<svg width="49" height="48" viewBox="0 0 49 48" fill="none" xmlns="http://www.w3.org/2000/svg">
<path d="M43.7899 17.3682C43.6466 17.4634 43.4556 17.6062 43.2168 17.7966C42.9779 17.9871 42.7869 18.1299 42.6436 18.2251C40.9242 19.0343 39.7779 20.51 39.2048 22.652C38.8705 23.9849 38.3929 24.9845 37.772 25.6509C37.1988 26.3174 36.7212 27.3884 36.3391 28.8641C36.0526 29.9589 35.6944 30.6967 35.2645 31.0776C34.8824 31.4584 34.7391 31.8154 34.8347 32.1486C35.0257 32.5294 34.9063 33.1482 34.4765 34.0051C34.5242 34.1479 34.6197 34.4097 34.763 34.7905C34.9541 35.1713 35.0973 35.4331 35.1929 35.5759C35.575 36.2424 35.957 36.8374 36.3391 37.361C36.4824 37.599 36.7212 37.9084 37.0556 38.2892C37.3899 38.67 37.6048 38.9319 37.7003 39.0747C38.5123 40.0743 39.6108 40.5027 40.9959 40.3599C41.3779 40.3123 42.4048 40.1219 44.0765 39.7887C44.2197 39.7411 44.4108 39.5983 44.6496 39.3603C45.6526 37.6466 46.2257 36.6708 46.369 36.4328C46.7511 35.9567 47.0376 35.7425 47.2287 35.7901C47.4197 35.8377 47.6108 35.9567 47.8018 36.1471C48.0406 36.3376 48.16 36.5042 48.16 36.647C48.1123 37.4086 47.9451 38.5034 47.6585 39.9315C47.563 40.4551 47.2765 40.5979 46.7988 40.3599C46.6078 40.2647 46.2974 40.5265 45.8675 41.1453C45.4854 41.7642 45.3421 42.1926 45.4377 42.4306C45.7242 43.0494 45.4854 43.573 44.7212 44.0014C44.5779 44.0966 44.4108 44.1919 44.2197 44.2871C44.0287 44.3347 43.8138 44.4061 43.575 44.5013C43.3362 44.5489 43.1451 44.5965 43.0018 44.6441C42.763 44.6441 42.5959 44.6917 42.5003 44.7869C42.4526 45.0249 42.3332 45.1915 42.1421 45.2867C41.9511 45.3343 41.76 45.3343 41.569 45.2867C41.4257 45.2391 41.2585 45.2391 41.0675 45.2867C41.2108 45.7627 41.2585 46.0721 41.2108 46.2149C41.0675 46.5005 40.8048 46.7385 40.4227 46.929C40.3272 46.9766 39.9929 47.0718 39.4197 47.2146C38.8944 47.3574 38.5362 47.4526 38.3451 47.5002C38.1541 47.5478 37.8436 47.5716 37.4138 47.5716C37.0317 47.5716 36.6735 47.524 36.3391 47.4288C35.8138 47.2384 34.7153 46.929 33.0436 46.5005C31.4675 46.0245 30.2018 45.0963 29.2466 43.7158C28.769 43.0494 28.2914 42.5496 27.8138 42.2164C27.4317 41.8356 26.9779 41.669 26.4526 41.7166C25.975 41.7642 25.5929 42.026 25.3063 42.502C24.8765 43.0732 24.2317 43.5254 23.372 43.8586C21.9869 44.3347 20.9123 44.9535 20.1481 45.7151C19.9093 45.9531 19.4556 46.1673 18.7869 46.3577C16.6376 47.2146 15.3481 47.643 14.9182 47.643C14.8227 47.643 14.4406 47.6906 13.772 47.7858C13.1511 47.8334 12.7451 47.881 12.5541 47.9286C12.4108 47.9286 12.0526 47.9524 11.4794 48C10.9541 48 10.5481 48 10.2615 48C9.97496 47.9524 9.61675 47.9048 9.1869 47.8572C8.75705 47.8096 8.35108 47.7382 7.96899 47.643C7.5869 47.5002 7.22869 47.3336 6.89436 47.1432C5.46153 46.4767 4.33914 45.5009 3.5272 44.2157C3.33615 43.8348 3.14511 43.5492 2.95406 43.3588C2.61974 43.0256 2.54809 42.6686 2.73914 42.2878C2.83466 42.0974 2.81078 41.9546 2.6675 41.8594C2.57197 41.7642 2.42869 41.7642 2.23765 41.8594C1.85556 40.9073 1.61675 40.3837 1.52123 40.2885C1.47347 40.1933 1.23466 40.0505 0.80481 39.8601C0.422721 39.6697 0.207795 39.3841 0.160034 39.0033C0.207795 38.9557 0.327198 38.8605 0.518243 38.7176C0.709288 38.5272 0.876452 38.3606 1.01974 38.2178C0.924213 37.5038 0.971975 36.9564 1.16302 36.5756C1.44959 35.9567 1.76003 35.0761 2.09436 33.9337C2.47645 32.7912 2.76302 32.0058 2.95406 31.5774C3.28839 30.7205 3.55108 30.1255 3.74212 29.7923C3.78988 29.7447 4.12421 29.6733 4.74511 29.5781C4.31526 28.7689 4.2675 28.1976 4.60183 27.8644C4.64959 27.8168 4.74511 27.674 4.88839 27.436C5.07944 27.1504 5.2466 26.9838 5.38989 26.9362C5.58093 26.841 5.81974 26.8172 6.1063 26.8648C6.15406 26.8648 6.22571 26.8172 6.32123 26.722C6.41675 26.5792 6.51227 26.4126 6.6078 26.2222C6.75108 26.0318 6.87048 25.889 6.966 25.7938C7.01377 25.7938 7.13317 25.77 7.32421 25.7223C7.51526 25.6271 7.65854 25.5557 7.75406 25.5081C7.7063 25.5081 7.68242 25.3415 7.68242 25.0083C9.21078 24.1515 10.166 23.5565 10.5481 23.2233C10.7391 23.0804 11.5511 22.176 12.9839 20.51C12.9362 20.4147 12.8406 20.2719 12.6973 20.0815C12.6018 19.8911 12.5063 19.7245 12.4108 19.5817C12.3153 19.4389 12.2197 19.3199 12.1242 19.2247C11.5033 18.6535 11.0496 17.511 10.763 15.7974C10.572 14.8453 10.4765 14.0837 10.4765 13.5125C10.4765 13.3697 10.6436 12.7509 10.9779 11.656L10.8347 11.5132C10.6914 11.418 10.5959 11.3228 10.5481 11.2276C10.3093 10.7516 10.2138 10.4422 10.2615 10.2994C10.4048 9.63294 10.7153 8.63329 11.1929 7.30044L10.9779 7.15764C10.8347 7.11004 10.763 7.06244 10.763 7.01484C10.763 6.96723 10.8824 6.65782 11.1212 6.0866C11.2645 6.1818 11.3839 6.39601 11.4794 6.72923C11.6227 7.01484 11.766 7.22904 11.9093 7.37185C12.1003 7.51465 12.3869 7.56226 12.769 7.51466L12.4824 5.72959C14.6794 4.63475 16.2078 3.4685 17.0675 2.23085C18.2138 0.612392 20.0765 -0.125436 22.6556 0.0173678C22.7988 0.0173678 23.0615 0.064969 23.4436 0.160174C25.3541 0.160174 26.9779 0.802798 28.3153 2.08805C29.7003 3.37329 30.6556 4.84895 31.1809 6.51502C31.3242 6.84823 31.372 7.15764 31.3242 7.44325C30.9421 9.44253 30.4884 11.2276 29.963 12.7985C29.6765 13.8457 28.9839 14.5835 27.8854 15.0119C27.4078 15.25 27.1451 15.4642 27.0973 15.6546C26.7153 16.5114 25.8794 17.4158 24.5899 18.3679C24.4944 18.4631 24.4227 18.5821 24.375 18.7249C25.0914 20.1529 25.1153 21.5096 24.4466 22.7948C24.4944 22.9852 24.6138 23.4851 24.8048 24.2943C25.0436 25.1035 25.2585 25.6985 25.4496 26.0794C25.7362 26.603 26.0466 27.1504 26.3809 27.7216C26.763 28.2928 27.169 28.9355 27.5988 29.6495C28.0765 30.3159 28.4347 30.8395 28.6735 31.2204C28.769 31.3632 29.2227 31.9582 30.0347 33.0054C31.1809 32.0534 31.8257 31.2918 31.969 30.7205C32.0168 30.6253 32.0645 30.5301 32.1123 30.4349C32.2078 30.2921 32.3033 30.1493 32.3988 30.0065C32.4944 29.8637 32.566 29.7447 32.6138 29.6495C32.8526 29.2687 32.972 29.0545 32.972 29.0069C32.7809 28.5309 32.8765 27.9358 33.2585 27.2218C33.6406 26.4602 33.8556 26.0318 33.9033 25.9366C34.2854 24.0325 34.4287 22.8662 34.3332 22.4378C34.3332 22.3426 34.3809 21.3906 34.4765 19.5817L33.6168 17.4396C37.4376 16.1544 40.8287 16.1306 43.7899 17.3682ZM21.366 16.0116C21.5093 15.964 21.772 15.9402 22.1541 15.9402C22.5362 15.9402 22.8466 15.8926 23.0854 15.7974C23.3242 15.6546 23.5153 15.3928 23.6585 15.0119C23.7063 14.9643 23.8018 14.9405 23.9451 14.9405C24.0884 14.8929 24.1839 14.8691 24.2317 14.8691C24.6138 14.6787 24.8287 14.4883 24.8765 14.2979C25.8317 12.6319 26.3571 11.6322 26.4526 11.299C26.9302 9.91855 27.0973 8.8237 26.9541 8.01448C27.1929 7.72886 27.2406 7.44325 27.0973 7.15764C27.0018 6.82443 26.8585 6.63402 26.6675 6.58642C26.3809 6.49122 26.2376 6.25321 26.2376 5.87239C26.2376 5.44397 26.1421 5.18217 25.9511 5.08696C25.76 4.99176 25.3779 4.80135 24.8048 4.51574C24.2317 4.23013 23.7779 4.03972 23.4436 3.94452C22.1063 3.4685 21.0078 3.68271 20.1481 4.58714L18.8585 6.0866C19.575 7.80027 19.957 8.7523 20.0048 8.94271C20.2436 10.1328 20.363 11.5608 20.363 13.2269C20.4585 14.4169 20.7929 15.3452 21.366 16.0116ZM23.2287 38.2892C22.4168 36.5756 21.9391 35.5759 21.7959 35.2903C21.6048 35.0047 21.2466 34.7191 20.7212 34.4335C20.1003 34.0527 19.6944 33.5767 19.5033 33.0054C19.2168 32.1962 18.763 31.4346 18.1421 30.7205C18.0944 30.6729 17.8794 30.4825 17.4973 30.1493C17.1153 29.7685 16.8526 29.4591 16.7093 29.2211C16.566 28.9355 16.5182 28.6023 16.566 28.2214C16.566 27.9834 16.3988 27.7454 16.0645 27.5074C15.4914 27.0314 14.5839 26.3174 13.3421 25.3653L12.769 26.0794C12.6735 26.841 12.172 27.7216 11.2645 28.7213C10.3093 29.9113 10.2615 31.149 11.1212 32.4342C11.5988 33.1006 11.7182 33.9337 11.4794 34.9333C11.0973 37.123 11.36 38.9795 12.2675 40.5027C12.5541 40.9311 13.2944 41.3357 14.4884 41.7166C15.6824 42.0974 16.5182 42.1926 16.9959 42.0022L17.6406 41.5738C19.5033 40.5741 20.6257 40.0505 21.0078 40.0029C21.8197 39.9077 22.56 39.3365 23.2287 38.2892ZM6.39287 46.0007C6.82272 46.5719 7.34809 46.929 7.96899 47.0718C8.58989 47.167 9.16302 47.1432 9.68839 47.0004C9.49735 46.81 9.25854 46.6671 8.97198 46.5719C8.68541 46.4291 8.42272 46.3577 8.18391 46.3577C7.99287 46.3101 7.7063 46.2625 7.32421 46.2149C6.94212 46.1197 6.63168 46.0483 6.39287 46.0007Z" fill="#FFC100" fill-opacity="1"/>
</svg>
