<svg width="89" height="34" viewBox="0 0 89 34" fill="none" xmlns="http://www.w3.org/2000/svg">
<g clip-path="url(#clip0_27_8)">
<path d="M24.3013 13.3002C25.3133 13.7673 22.2228 12.4911 21.1619 12.1496C18.2526 11.2132 15.2963 10.7358 12.4946 9.44262C10.8902 8.70212 9.22719 8.13352 7.62493 7.39398C6.53145 6.88926 5.41441 6.57268 4.35024 6.08149M6.2915 11.1588C5.63024 9.36388 4.81299 7.46433 3.2265 6.3501C3.08714 6.25223 2.39883 5.70683 2.50862 5.5102C2.7291 5.11529 4.76229 5.08397 5.28067 4.96552C6.26787 4.73995 8.00672 4.42475 8.4748 3.41062" stroke="#B22222" stroke-width="1.54268" stroke-linecap="round"/>
</g>
<path d="M34.0767 8.9494L33.9356 9.13943C34.0819 9.27582 34.1732 9.36206 34.2096 9.39815L34.3885 9.41737C34.4116 9.42788 34.4297 9.44593 34.4431 9.4715C34.4652 9.48997 34.4874 9.50844 34.5095 9.52691C34.5326 9.53743 34.5564 9.53999 34.5811 9.5346C34.6104 9.56188 34.6672 9.63234 34.7515 9.746C34.8359 9.85965 34.921 9.92913 35.0067 9.95444C35.2198 10.2187 35.3365 10.368 35.3569 10.4024C35.3916 10.4544 35.4607 10.5221 35.5644 10.6057C35.676 10.6901 35.7487 10.7623 35.7825 10.8222L35.9734 10.8427C36.0183 10.7993 36.0936 10.7349 36.1993 10.6497C36.1965 10.6011 36.2215 10.5556 36.2744 10.513C36.336 10.4633 36.3717 10.4309 36.3813 10.4158C36.4419 10.3016 36.5061 10.2281 36.574 10.1951L36.8365 10.2233C36.8436 10.2321 36.8574 10.2537 36.8778 10.2881C36.9062 10.3233 36.9275 10.3498 36.9417 10.3674L36.8764 10.9759C36.8667 10.9909 36.8355 11.0198 36.7826 11.0624L36.7544 11.3248C36.7104 11.3603 36.6791 11.3892 36.6607 11.4113L36.6427 11.5784C36.6012 11.59 36.5643 11.6343 36.5319 11.7113C36.5004 11.7803 36.4638 11.8207 36.4224 11.8323C36.2618 11.9036 36.1728 11.9463 36.1551 11.9605C36.0742 12.0403 36.005 12.0852 35.9476 12.0951L35.671 12.1982C35.5528 12.2499 35.465 12.2807 35.4076 12.2906C35.375 12.2951 35.3322 12.3187 35.2794 12.3613C35.2353 12.3968 35.2049 12.4177 35.1881 12.4239C35.1458 12.4435 35.054 12.4739 34.9128 12.515L34.4356 12.4638L34.2089 12.4395C34.1683 12.4431 34.1258 12.4265 34.0815 12.3896C34.0372 12.3526 34.0075 12.3293 33.9924 12.3197C33.8677 12.2821 33.8018 12.259 33.7947 12.2502C33.7805 12.2325 33.7504 12.2132 33.7044 12.1922C33.6592 12.1632 33.6331 12.1443 33.626 12.1355C33.611 12.1258 33.5729 12.1057 33.5118 12.075C33.4596 12.0372 33.4144 12.0082 33.3763 11.988L33.257 11.9752C33.2499 11.9664 33.2388 11.9571 33.2238 11.9475C33.2096 11.9299 33.1989 11.9166 33.1918 11.9078C33.1856 11.8911 33.1789 11.8783 33.1718 11.8695C33.1505 11.8431 33.0978 11.8092 33.0137 11.768C32.9385 11.7197 32.9038 11.6677 32.9098 11.612C32.9061 11.5714 32.8754 11.5198 32.8178 11.4573C32.761 11.3869 32.7396 11.3242 32.7535 11.2694L32.5324 10.9681C32.4901 10.7624 32.4144 10.6054 32.3054 10.4971L32.3412 10.1631L32.2492 10.0084C32.3169 9.90297 32.3929 9.79447 32.4773 9.68284L32.5413 9.08627L32.6603 8.99042C32.6353 8.92337 32.6063 8.85589 32.5734 8.78798C32.5836 8.69253 32.6152 8.62351 32.668 8.58091C32.6856 8.56671 32.6961 8.5437 32.6996 8.51188C32.703 8.48006 32.7024 8.44782 32.6979 8.41515C32.7013 8.38333 32.7091 8.34796 32.7213 8.30905C32.7222 8.30109 32.7402 8.28291 32.7755 8.25451C32.8187 8.22697 32.8344 8.19245 32.8228 8.15097C32.8413 8.12882 32.8941 8.08622 32.9814 8.02317C33.0694 7.95217 33.1213 7.8813 33.1369 7.81056C33.173 7.77421 33.2307 7.72408 33.31 7.66018C33.3981 7.58918 33.4641 7.53593 33.5082 7.50042L33.5184 7.40497C33.5264 7.40583 33.5383 7.40711 33.5542 7.40882C33.571 7.40257 33.5873 7.4003 33.6032 7.40201C33.62 7.39576 33.6328 7.38909 33.6416 7.38199C33.6848 7.35444 33.7416 7.31227 33.8121 7.25547C33.8288 7.24922 33.846 7.239 33.8636 7.2248C33.8821 7.20264 33.9001 7.18446 33.9178 7.17026C33.9354 7.15606 33.9482 7.14939 33.9561 7.15024C34.0109 7.16418 34.0692 7.14629 34.1308 7.09659C34.1934 7.03894 34.233 7.00699 34.2498 7.00074C34.4404 6.94879 34.5577 6.90507 34.6018 6.86957C34.6026 6.86162 34.619 6.85935 34.6508 6.86276C34.6905 6.86703 34.7144 6.8696 34.7224 6.87045C34.7383 6.87216 34.8009 6.85072 34.9103 6.80615L35.0535 6.82152C35.0975 6.78602 35.1323 6.76159 35.1579 6.74825L35.9454 6.8328C35.9675 6.85127 35.9964 6.88253 36.0319 6.92657L36.2228 6.94707C36.2406 7.00531 36.2868 7.06256 36.3612 7.11883C36.4444 7.168 36.4967 7.20579 36.518 7.23222L36.7391 7.53354C36.763 7.53611 36.7864 7.54264 36.8094 7.55316C36.8333 7.55572 36.8492 7.55743 36.8571 7.55829C36.8946 7.65886 36.9298 7.7431 36.9628 7.81101L36.9474 7.95418C36.9607 7.97975 36.9852 8.01456 37.0207 8.0586L36.9681 8.54779C36.8496 8.75231 36.7273 8.87998 36.6011 8.9308C36.5429 8.94868 36.4758 8.97367 36.4 9.00575L35.9108 8.95323C35.7691 8.8495 35.6871 8.78841 35.665 8.76994C35.5931 8.68981 35.5257 8.60613 35.4626 8.5189L35.5164 8.01778C35.5173 8.00982 35.5004 7.97985 35.4657 7.92785C35.4311 7.87586 35.4238 7.83083 35.444 7.79276C35.4227 7.76634 35.3868 7.72627 35.3362 7.67257C35.2936 7.61972 35.2577 7.57966 35.2285 7.55238L34.8705 7.51394C34.8617 7.52104 34.8172 7.56052 34.7371 7.63238C34.6658 7.69713 34.6077 7.75124 34.5628 7.79469L34.5589 7.83049C34.5564 7.85435 34.5511 7.86586 34.5432 7.865C34.4983 7.90846 34.446 7.9833 34.3863 8.08954C34.3275 8.18782 34.2756 8.25869 34.2307 8.30214C34.2344 8.34277 34.2165 8.39717 34.177 8.46534L34.1177 8.5676C34.1055 8.60652 34.0968 8.64984 34.0917 8.69756C34.0874 8.73733 34.0823 8.78506 34.0763 8.84074C34.0792 8.88932 34.0793 8.92554 34.0767 8.9494ZM41.2307 4.99857C41.2836 4.95597 41.3184 4.93155 41.3351 4.9253L41.7766 4.9727C41.8422 5.03607 41.899 5.10654 41.947 5.18411C41.9703 5.26706 41.9967 5.3584 42.0262 5.45813L41.9301 6.35298C41.9514 6.37941 41.9825 6.427 42.0234 6.49576C42.0137 6.51081 41.9948 6.53694 41.9667 6.57415C41.9386 6.61136 41.9153 6.64105 41.8968 6.6632L41.8058 7.51033L41.7134 7.58488L41.6378 8.28884L41.723 8.39454L41.6576 9.00304C41.6639 9.0198 41.6812 9.0458 41.7096 9.08103C41.7088 9.08899 41.7115 9.10135 41.7177 9.11811C41.7239 9.13487 41.7266 9.14723 41.7258 9.15518L41.6118 10.2171C41.5836 10.2543 41.5458 10.3066 41.4984 10.3739C41.4597 10.4341 41.4303 10.4832 41.4101 10.5213L41.3768 10.8315C41.4259 10.9736 41.4924 11.1416 41.5761 11.3357L41.5428 11.6459C41.4954 11.7132 41.425 11.8062 41.3318 11.925C41.3506 11.9752 41.3362 12.034 41.2888 12.1014C41.2413 12.1687 41.2159 12.2183 41.2124 12.2501C41.255 12.3029 41.2901 12.3509 41.3177 12.3941L41.6756 12.4326L41.8034 12.5911C41.7946 12.5982 41.7872 12.6296 41.7812 12.6853C41.7753 12.741 41.7591 12.7794 41.7326 12.8007C41.7094 12.7178 41.6875 12.6591 41.667 12.6247C41.6273 12.6205 41.5959 12.6131 41.5729 12.6026C41.5376 12.631 41.4967 12.6748 41.4501 12.7342C41.4458 12.774 41.5234 12.8386 41.6827 12.9282C41.6651 12.9424 41.6043 12.9841 41.5003 13.0534L40.9992 12.9996C40.9816 13.0138 40.964 13.028 40.9464 13.0422C40.9296 13.0484 40.9168 13.0551 40.908 13.0622L40.2995 12.9969C40.2827 13.0031 40.2616 13.0129 40.236 13.0263C40.2096 13.0476 40.1915 13.0657 40.1819 13.0808L39.2154 12.977C39.1816 12.9171 39.1254 12.8788 39.0467 12.8624L38.9402 12.7302L38.9684 12.4677C39.0053 12.4234 39.0366 12.3946 39.0622 12.3813L39.0711 12.2977C39.1248 12.2472 39.2045 12.1793 39.3102 12.0941L39.4057 12.1043L39.6435 11.9126L39.6717 11.6501C39.6654 11.6334 39.6512 11.6158 39.6291 11.5973C39.6157 11.5717 39.6055 11.5545 39.5984 11.5457L39.6176 11.3668L39.7233 11.2816C39.785 11.2319 39.818 11.1871 39.8222 11.1473C39.8239 11.1314 39.834 11.1124 39.8525 11.0903C39.8789 11.069 39.897 11.0508 39.9066 11.0357L39.9451 10.6778C39.938 10.669 39.9233 10.6553 39.9012 10.6369C39.887 10.6192 39.8688 10.6012 39.8466 10.5827C39.8253 10.5563 39.8072 10.5383 39.7921 10.5286L39.8984 9.53829L39.7519 9.32945C39.7403 9.28797 39.7525 9.24905 39.7886 9.2127C39.8247 9.17634 39.848 9.14666 39.8585 9.12365C39.8522 9.10689 39.8393 9.07734 39.8197 9.03501C39.8001 8.99267 39.7837 8.95872 39.7703 8.93315C39.7879 8.91895 39.8064 8.8968 39.8257 8.86669C39.853 8.83743 39.8755 8.8157 39.8931 8.8015L39.9482 8.28845L39.863 8.18275L39.9103 8.07921C39.9367 8.05791 39.9653 8.01673 39.996 7.95565C40.0267 7.89458 40.0552 7.8534 40.0816 7.8321C40.0904 7.825 40.0978 7.79361 40.1038 7.73793C40.1107 7.67429 40.1352 7.63268 40.1776 7.61309C40.1855 7.61394 40.1899 7.61039 40.1908 7.60243C40.1916 7.59448 40.1881 7.59008 40.1801 7.58922C40.135 7.56023 40.1167 7.50597 40.1252 7.42643C40.1337 7.34688 40.1234 7.29347 40.0941 7.26619C40.072 7.24772 40.0578 7.23011 40.0515 7.21334C40.0541 7.18948 40.0571 7.16164 40.0605 7.12982C40.0719 7.09886 40.0784 7.07543 40.0801 7.05952C40.1242 7.02402 40.1554 6.99519 40.1739 6.97303L40.2021 6.71054C40.1666 6.6665 40.1421 6.63169 40.1288 6.60612L40.1467 6.43908L40.0296 6.29375L39.8745 6.27709C39.8523 6.25862 39.8147 6.23446 39.7616 6.20462C39.7172 6.16768 39.6876 6.14438 39.6725 6.13472C39.6583 6.1171 39.6423 6.07917 39.6244 6.02093C39.6074 5.95473 39.5886 5.90444 39.5682 5.87006C39.6025 5.84962 39.6391 5.80929 39.6777 5.74907L39.6828 5.70134L40.1453 5.32858C40.2169 5.33627 40.261 5.33699 40.2778 5.33074C40.2858 5.3316 40.3272 5.31996 40.4022 5.29583C40.4861 5.2646 40.5456 5.23478 40.5808 5.20638C40.6266 5.15497 40.7077 5.11138 40.8242 5.07561C40.9406 5.03984 41.0205 5.00819 41.0637 4.98064L41.2307 4.99857ZM45.0695 7.04007C44.9263 7.02469 44.782 6.94483 44.6366 6.80048C44.4921 6.64818 44.4076 6.4983 44.3832 6.35086C44.3284 6.11164 44.3431 5.9 44.4272 5.71593C44.5034 5.531 44.6364 5.41655 44.8261 5.37256C45.1458 5.31837 45.4007 5.34172 45.591 5.44262C45.7885 5.55232 45.9246 5.70775 45.9996 5.9089C46.0745 6.11005 46.0585 6.2974 45.9513 6.47096C45.9294 6.52493 45.9181 6.55589 45.9172 6.56384C45.9416 6.71129 45.8576 6.81894 45.6653 6.8868C45.6238 6.89843 45.5647 6.92427 45.488 6.96431C45.4121 6.9964 45.3411 7.02095 45.2749 7.03798C45.2087 7.05501 45.1402 7.05571 45.0695 7.04007ZM45.2236 13.248C45.1605 13.3861 45.1273 13.471 45.1239 13.5028C45.1205 13.5346 45.1099 13.5576 45.0923 13.5718C45.0818 13.5948 45.0686 13.6055 45.0527 13.6038C45.0368 13.6021 45.0169 13.5999 44.993 13.5974C44.9683 13.6028 44.9476 13.6086 44.9308 13.6148C44.8638 13.6398 44.79 13.652 44.7096 13.6514C44.6284 13.6588 44.5599 13.6595 44.5042 13.6535C44.4565 13.6484 44.3818 13.6323 44.2801 13.6053C44.1864 13.5792 44.1196 13.5639 44.0798 13.5597C44.048 13.5563 44.0175 13.5409 43.9882 13.5136C43.9661 13.4952 43.9368 13.4679 43.9005 13.4318C43.8641 13.3957 43.8309 13.368 43.8008 13.3487L43.675 13.3955C43.6262 13.3259 43.5431 13.2003 43.4258 13.0188C43.4679 12.9267 43.5022 12.8701 43.5286 12.8488C43.563 12.8283 43.6428 12.7967 43.7681 12.7538C43.7826 12.6186 43.8017 12.516 43.8253 12.4461C43.8497 12.3683 43.882 12.2551 43.9221 12.1065C43.9701 11.9588 44.002 11.8496 44.0176 11.7788C44.0236 11.7232 44.0199 11.6825 44.0065 11.657C43.9841 11.5661 43.9448 11.4452 43.8886 11.2943C43.9281 11.2261 43.9926 11.1124 44.0821 10.953C44.1725 10.7857 44.2423 10.6604 44.2914 10.5772C44.3116 10.5392 44.3159 10.4994 44.3043 10.4579C44.2801 10.3829 44.2684 10.3052 44.2689 10.2248C44.2695 10.1444 44.2749 10.0565 44.2852 9.96103C44.2963 9.85762 44.3004 9.78163 44.2976 9.73305C44.2982 9.65265 44.2735 9.5454 44.2235 9.4113C44.1966 9.28772 44.1226 9.22748 44.0016 9.23057C43.9706 9.2192 43.9467 9.21664 43.93 9.22289C43.9132 9.22913 43.8933 9.227 43.8703 9.21648C43.8561 9.19886 43.8411 9.1892 43.8251 9.18749C43.8172 9.18664 43.8061 9.1774 43.7919 9.15979C43.7786 9.13422 43.7679 9.121 43.76 9.12015C43.7529 9.11134 43.7426 9.09415 43.7293 9.06858C43.7159 9.04301 43.7057 9.02582 43.6986 9.01701C43.6995 9.00906 43.6932 8.99229 43.6799 8.96672C43.6745 8.94201 43.6682 8.92524 43.6611 8.91644C43.6345 8.86529 43.6404 8.80961 43.6791 8.7494C43.876 8.48893 44.1022 8.36839 44.3576 8.38776C44.4928 8.40228 44.5756 8.45543 44.606 8.54719C44.6051 8.55515 44.6622 8.58542 44.7773 8.638C44.8898 8.48916 44.9777 8.38194 45.0411 8.31633C45.1431 8.1905 45.2857 8.17363 45.4689 8.26572C45.6141 8.33762 45.6578 8.45496 45.6001 8.61773C45.5731 8.71943 45.5573 8.86658 45.5527 9.05919C45.5496 9.16345 45.5382 9.30706 45.5185 9.49001C45.5077 9.66585 45.4993 9.78162 45.4933 9.8373C45.4779 9.98048 45.4955 10.0789 45.5461 10.1326C45.5736 10.1758 45.5739 10.2483 45.5469 10.3499C45.5094 10.4747 45.4603 10.5941 45.3998 10.7083C45.2736 10.9844 45.2315 11.3017 45.2734 11.6602C45.2842 11.7097 45.2636 11.8644 45.2115 12.1243C45.2073 12.1641 45.1889 12.2224 45.1565 12.2994C45.1241 12.3764 45.1058 12.4348 45.1015 12.4745C45.0555 12.6788 45.1051 12.8531 45.2505 12.9974L45.4742 13.2749L45.2236 13.248ZM49.2823 10.5821L49.1412 10.7721C49.2875 10.9085 49.3788 10.9947 49.4151 11.0308L49.5941 11.05C49.6171 11.0605 49.6353 11.0786 49.6487 11.1042C49.6708 11.1226 49.693 11.1411 49.7151 11.1596C49.7381 11.1701 49.762 11.1726 49.7867 11.1673C49.816 11.1945 49.8728 11.265 49.9571 11.3787C50.0415 11.4923 50.1265 11.5618 50.2123 11.5871C50.4253 11.8513 50.542 12.0007 50.5625 12.035C50.5971 12.087 50.6663 12.1548 50.77 12.2384C50.8816 12.3228 50.9543 12.3949 50.9881 12.4549L51.179 12.4754C51.2239 12.4319 51.2992 12.3676 51.4049 12.2824C51.4021 12.2338 51.4271 12.1882 51.4799 12.1456C51.5416 12.0959 51.5773 12.0635 51.5869 12.0485C51.6474 11.9343 51.7117 11.8607 51.7796 11.8278L52.0421 11.856C52.0492 11.8648 52.0629 11.8864 52.0834 11.9208C52.1118 11.956 52.1331 11.9824 52.1473 12L52.082 12.6085C52.0723 12.6236 52.041 12.6524 51.9882 12.695L51.96 12.9575C51.916 12.993 51.8847 13.0218 51.8662 13.044L51.8483 13.211C51.8068 13.2227 51.7699 13.267 51.7375 13.344C51.7059 13.413 51.6694 13.4533 51.6279 13.465C51.4674 13.5362 51.3783 13.579 51.3607 13.5932C51.2797 13.673 51.2105 13.7178 51.1532 13.7278L50.8766 13.8308C50.7584 13.8825 50.6706 13.9133 50.6132 13.9232C50.5805 13.9278 50.5378 13.9514 50.4849 13.994C50.4409 14.0295 50.4105 14.0503 50.3937 14.0566C50.3514 14.0762 50.2596 14.1065 50.1184 14.1477L49.6412 14.0965L49.4145 14.0721C49.3738 14.0758 49.3314 14.0592 49.2871 14.0222C49.2427 13.9853 49.2131 13.962 49.198 13.9523C49.0733 13.9148 49.0074 13.8916 49.0003 13.8828C48.9861 13.8652 48.956 13.8459 48.91 13.8248C48.8648 13.7959 48.8387 13.777 48.8316 13.7682C48.8165 13.7585 48.7785 13.7383 48.7174 13.7076C48.6651 13.6698 48.62 13.6408 48.5819 13.6207L48.4626 13.6078C48.4555 13.599 48.4444 13.5898 48.4293 13.5801C48.4151 13.5625 48.4045 13.5493 48.3974 13.5405C48.3912 13.5237 48.3845 13.511 48.3774 13.5021C48.3561 13.4757 48.3034 13.4419 48.2193 13.4007C48.144 13.3524 48.1094 13.3004 48.1154 13.2447C48.1117 13.2041 48.081 13.1525 48.0234 13.09C47.9666 13.0195 47.9451 12.9569 47.9591 12.9021L47.738 12.6007C47.6957 12.395 47.62 12.2381 47.5109 12.1298L47.5468 11.7957L47.4548 11.641C47.5224 11.5356 47.5985 11.4271 47.6829 11.3155L47.7469 10.7189L47.8658 10.6231C47.8408 10.556 47.8119 10.4885 47.7789 10.4206C47.7892 10.3252 47.8207 10.2562 47.8736 10.2136C47.8912 10.1994 47.9017 10.1764 47.9051 10.1445C47.9086 10.1127 47.908 10.0805 47.9035 10.0478C47.9069 10.016 47.9147 9.98062 47.9269 9.9417C47.9278 9.93375 47.9458 9.91557 47.981 9.88717C48.0242 9.85962 48.04 9.82511 48.0284 9.78363C48.0468 9.76148 48.0997 9.71888 48.1869 9.65583C48.275 9.58483 48.3269 9.51396 48.3425 9.44322C48.3786 9.40687 48.4363 9.35674 48.5155 9.29284C48.6036 9.22184 48.6697 9.16858 48.7137 9.13308L48.724 9.03763C48.7319 9.03849 48.7439 9.03977 48.7598 9.04147C48.7765 9.03523 48.7929 9.03296 48.8088 9.03467C48.8255 9.02842 48.8383 9.02175 48.8471 9.01465C48.8903 8.9871 48.9472 8.94493 49.0176 8.88813C49.0344 8.88188 49.0516 8.87166 49.0692 8.85746C49.0877 8.8353 49.1057 8.81712 49.1233 8.80292C49.1409 8.78872 49.1537 8.78205 49.1617 8.7829C49.2165 8.79684 49.2747 8.77895 49.3364 8.72925C49.3989 8.67159 49.4386 8.63964 49.4553 8.6334C49.646 8.58145 49.7633 8.53773 49.8073 8.50223C49.8082 8.49427 49.8245 8.49201 49.8563 8.49542C49.8961 8.49969 49.92 8.50225 49.9279 8.50311C49.9438 8.50482 50.0065 8.48338 50.1159 8.4388L50.259 8.45418C50.3031 8.41868 50.3379 8.39425 50.3635 8.38091L51.1509 8.46546C51.1731 8.48393 51.2019 8.51519 51.2374 8.55923L51.4283 8.57973C51.4462 8.63797 51.4924 8.69522 51.5668 8.75149C51.65 8.80066 51.7023 8.83845 51.7236 8.86488L51.9447 9.1662C51.9685 9.16876 51.992 9.1753 52.015 9.18582C52.0388 9.18838 52.0547 9.19009 52.0627 9.19094C52.1002 9.29152 52.1354 9.37576 52.1683 9.44366L52.1529 9.58684C52.1663 9.61241 52.1907 9.64722 52.2262 9.69126L52.1737 10.1804C52.0552 10.385 51.9329 10.5126 51.8067 10.5635C51.7485 10.5813 51.6814 10.6063 51.6056 10.6384L51.1164 10.5859C50.9746 10.4822 50.8927 10.4211 50.8705 10.4026C50.7987 10.3225 50.7312 10.2388 50.6682 10.1516L50.722 9.65044C50.7228 9.64248 50.7059 9.61251 50.6713 9.56051C50.6366 9.50852 50.6294 9.46349 50.6496 9.42542C50.6283 9.399 50.5924 9.35893 50.5418 9.30523C50.4992 9.25238 50.4633 9.21231 50.434 9.18504L50.0761 9.1466C50.0673 9.1537 50.0228 9.19318 49.9427 9.26504C49.8714 9.32979 49.8132 9.3839 49.7683 9.42735L49.7645 9.46315C49.7619 9.48701 49.7567 9.49852 49.7487 9.49766C49.7038 9.54112 49.6515 9.61596 49.5919 9.7222C49.533 9.82048 49.4812 9.89135 49.4363 9.9348C49.44 9.97543 49.422 10.0298 49.3825 10.098L49.3233 10.2003C49.3111 10.2392 49.3024 10.2825 49.2973 10.3302C49.293 10.37 49.2879 10.4177 49.2819 10.4734C49.2847 10.522 49.2849 10.5582 49.2823 10.5821ZM55.2051 8.76801C55.2438 8.70779 55.2885 8.62811 55.3394 8.52898C55.3982 8.4307 55.4421 8.35898 55.4711 8.31381C55.4791 8.31467 55.4914 8.31197 55.5082 8.30572C55.5338 8.29238 55.5589 8.28301 55.5836 8.27762C55.6172 8.26512 55.6507 8.25263 55.6842 8.24014C55.5675 8.20347 55.494 8.17547 55.4639 8.15614L55.7324 8.016C55.704 7.98077 55.6743 7.95747 55.6434 7.9461C55.6124 7.93473 55.5846 7.93174 55.5599 7.93713C55.536 7.93457 55.4998 7.9347 55.4512 7.93753C55.4106 7.94122 55.3739 7.94533 55.3412 7.94987L55.6396 7.64397C55.5087 7.58968 55.3673 7.59462 55.2156 7.65879C55.0718 7.72381 54.9649 7.7083 54.8947 7.61227C54.8112 7.49066 54.836 7.37263 54.969 7.25817L55.0521 7.15847C55.1055 7.03547 55.2149 6.9909 55.3802 7.02474C55.3893 7.09008 55.3965 7.13511 55.4019 7.15983L55.4484 7.17689C55.4728 7.09905 55.4951 7.0411 55.5153 7.00304C55.5321 6.99679 55.5595 7.00376 55.5976 7.02394C55.6444 7.03702 55.6878 7.04569 55.7275 7.04996C55.7682 7.04628 55.8065 7.02626 55.8426 6.9899C55.7966 6.96887 55.7426 6.94698 55.6807 6.92424C55.796 6.82398 56.0161 6.7229 56.3408 6.62098C56.4988 6.57358 56.6327 6.60003 56.7427 6.70034C56.8614 6.79354 56.9118 6.92367 56.8938 7.09071C56.8879 7.14639 56.8674 7.22465 56.8324 7.32549C56.7975 7.42634 56.7774 7.50062 56.7723 7.54835C56.7601 7.58726 56.7537 7.64692 56.7531 7.72732C56.7533 7.79976 56.7518 7.85189 56.7483 7.88371C56.7449 7.91553 56.739 7.97121 56.7304 8.05075C56.7307 8.12319 56.7287 8.1793 56.7244 8.21907C56.7147 8.4594 56.6995 8.6388 56.6787 8.75726C56.5387 9.6112 56.4683 10.0421 56.4675 10.0501C56.4666 10.0581 56.4303 10.5088 56.3585 11.4022C56.5241 11.5085 56.6728 11.4722 56.8047 11.2932C56.9243 11.1532 57.039 11.0971 57.1486 11.125C57.1875 11.1372 57.2206 11.1287 57.2479 11.0994C57.284 11.0631 57.2962 11.0241 57.2846 10.9827C57.2817 10.9341 57.3032 10.8841 57.349 10.8327C57.3754 10.8114 57.4295 10.7568 57.5113 10.6691C57.5932 10.5813 57.6645 10.5166 57.7253 10.4748C57.787 10.4251 57.8557 10.3842 57.9316 10.3521C57.9404 10.345 57.9576 10.3348 57.9832 10.3215C58.0096 10.3002 58.0316 10.2824 58.0492 10.2682L57.9546 10.1374C57.9484 10.1206 57.9306 10.0986 57.9014 10.0713C57.8809 10.0369 57.8641 10.007 57.8507 9.98138C57.8382 9.94786 57.8293 9.91874 57.8239 9.89402C57.8015 9.80311 57.8144 9.72001 57.8627 9.64474C57.9119 9.56151 57.9983 9.50642 58.1218 9.47946C58.2454 9.4525 58.348 9.47156 58.4295 9.53663C58.519 9.60256 58.6579 9.6577 58.8462 9.70207C59.0434 9.73933 59.1729 9.76933 59.2348 9.79207C59.2968 9.81481 59.3405 9.81951 59.3661 9.80616C59.4385 9.80589 59.4827 9.80661 59.4986 9.80832C59.5154 9.80207 59.5499 9.81785 59.6021 9.85564C59.6624 9.89429 59.7 9.91845 59.715 9.92811C59.671 9.96361 59.6304 9.9673 59.5932 9.93916C59.5568 9.90308 59.5183 9.88688 59.4777 9.89056C59.4379 9.88629 59.4023 9.91867 59.3707 9.98769C59.4724 10.0147 59.6258 10.0473 59.8309 10.0854C59.815 10.0837 59.7846 10.1045 59.7397 10.148C59.6948 10.1915 59.6502 10.1947 59.6059 10.1578C59.5908 10.1481 59.5749 10.1464 59.5582 10.1526C59.5502 10.1518 59.5335 10.158 59.5079 10.1714C59.4832 10.1768 59.4629 10.1786 59.447 10.1769C59.2325 10.2263 59.1133 10.2497 59.0894 10.2471C59.0496 10.2429 58.9962 10.2532 58.9292 10.2782C58.8701 10.3041 58.8242 10.3192 58.7915 10.3238C58.7438 10.3187 58.6782 10.3679 58.5946 10.4716C58.49 10.6213 58.3443 10.7424 58.1573 10.835C57.9888 10.9054 57.7872 11.097 57.5525 11.4097C57.4127 11.5878 57.3668 11.8283 57.4147 12.1311C57.4246 12.1885 57.4425 12.2468 57.4684 12.3058C57.4942 12.3649 57.5236 12.4284 57.5565 12.4963C57.5974 12.5651 57.6277 12.6207 57.6473 12.663C57.6989 12.7812 57.8029 12.9372 57.9591 13.131C58.1241 13.3176 58.2302 13.4537 58.2773 13.5393C58.3191 13.6001 58.356 13.6684 58.3881 13.7443C58.4673 13.9056 58.5136 13.9991 58.5269 14.0247C58.5332 14.0414 58.5647 14.0851 58.6215 14.1555C58.6871 14.2189 58.7293 14.2757 58.748 14.326C58.7676 14.3683 58.774 14.4213 58.7671 14.485C58.7663 14.4929 58.7845 14.511 58.8217 14.5391C58.8569 14.5107 58.8838 14.4854 58.9022 14.4633C58.9465 14.5002 59.0174 14.5521 59.1148 14.6188C59.2131 14.6777 59.2946 14.7427 59.3594 14.8141C59.425 14.8774 59.4686 14.9586 59.4902 15.0574C59.4743 15.0557 59.4575 15.062 59.4399 15.0762C59.4063 15.0886 59.3821 15.0901 59.367 15.0804C59.2875 15.0719 59.2004 15.0585 59.1058 15.0403C59.0183 15.0309 58.9153 15.0158 58.7969 14.995C58.6864 14.9751 58.5993 14.9618 58.5356 14.9549C58.4482 14.9455 58.309 14.9306 58.118 14.9101C57.9263 14.8975 57.7827 14.8862 57.6872 14.8759L57.3493 14.8758C57.2141 14.8613 57.1463 14.8178 57.1461 14.7454C57.1336 14.7119 57.1612 14.6424 57.2288 14.537C57.2296 14.5291 57.2429 14.5184 57.2684 14.5051C57.2949 14.4838 57.3129 14.4656 57.3226 14.4505C57.4033 14.2983 57.4382 14.1974 57.4275 14.148C57.4059 13.8239 57.2934 13.5986 57.0897 13.4721C57.0755 13.4545 57.0195 13.376 56.9218 13.2368C56.8801 13.176 56.8175 13.0848 56.734 12.9632C56.6505 12.8416 56.5879 12.7504 56.5461 12.6896L56.3867 12.938C56.3844 13.0343 56.35 13.1674 56.2835 13.3372C56.2633 13.3753 56.2586 13.4191 56.2694 13.4685C56.3043 13.5929 56.2791 13.7149 56.1939 13.8345C56.1191 13.9311 56.1553 14.0436 56.3025 14.172C56.3175 14.1817 56.3441 14.1966 56.3821 14.2168C56.4211 14.229 56.448 14.24 56.4631 14.2496C56.5517 14.3235 56.6165 14.3948 56.6574 14.4636C56.6832 14.5227 56.6816 14.5748 56.6526 14.62C56.6245 14.6572 56.5782 14.6764 56.5137 14.6775C56.4254 14.676 56.1961 14.6756 55.8259 14.6761C55.4558 14.6765 55.1721 14.6581 54.975 14.6209C54.8335 14.5896 54.7622 14.5417 54.7611 14.4772C54.7446 14.3306 54.637 14.2467 54.4381 14.2253C54.3745 14.2185 54.2515 14.165 54.0691 14.065C54.1589 13.9781 54.2214 13.9204 54.2567 13.892C54.3859 13.9622 54.4581 14.0022 54.4731 14.0118C54.5776 14.0874 54.6681 14.069 54.7446 13.9565C54.7832 13.8963 54.8398 13.7817 54.9143 13.6126C54.9168 13.5888 54.9211 13.549 54.9271 13.4933C54.933 13.4376 54.9413 13.3983 54.9518 13.3753L54.9582 13.3156C54.9616 13.2838 54.9638 13.2639 54.9646 13.256C54.9655 13.248 54.9712 13.2325 54.9817 13.2095C54.9922 13.1865 55.0019 13.1715 55.0107 13.1644C55.0283 13.1502 55.0494 13.1404 55.0742 13.135C55.0997 13.1216 55.1324 13.1171 55.1722 13.1214C55.0057 13.023 54.9349 12.8585 54.9596 12.6279C54.9665 12.5642 54.9807 12.4692 55.0023 12.3428C55.0239 12.2164 55.0382 12.1213 55.045 12.0577C55.0476 12.0339 55.0462 12.0096 55.0408 11.9848C55.0442 11.953 55.0436 11.9208 55.0391 11.8881C55.0354 11.8475 55.0344 11.8192 55.0361 11.8033L55.0669 11.517C55.178 11.2312 55.2004 10.8353 55.134 10.3293C55.1312 10.2808 55.1375 10.0722 55.1529 9.70378C55.1563 9.67197 55.1897 9.62325 55.2531 9.55764C55.4247 9.38297 55.4457 9.18809 55.3159 8.973C55.2946 8.94658 55.2706 8.90779 55.2439 8.85665C55.2251 8.80637 55.2122 8.77682 55.2051 8.76801ZM69.5186 12.948C69.4695 13.0312 69.4168 13.11 69.3605 13.1845L69.194 14.7355C69.2073 14.7611 69.23 14.8118 69.2621 14.8877C69.295 14.9556 69.3213 15.0107 69.3409 15.053L69.305 15.3871C69.3681 15.4744 69.4426 15.5668 69.5287 15.6646C69.4917 15.7089 69.4649 15.7342 69.4481 15.7404C69.4058 15.76 69.3458 15.7938 69.2683 15.8418C69.1995 15.8827 69.1484 15.9094 69.1148 15.9219C69.0734 15.9335 69.0222 15.9602 68.9614 16.002C68.9006 16.0437 68.8535 16.0708 68.8199 16.0833C68.737 16.1066 68.6739 16.132 68.6307 16.1596C68.5961 16.1076 68.5331 16.0565 68.442 16.0065C68.3579 15.9653 68.3048 15.9355 68.2826 15.917C68.2565 16.0107 68.2425 16.0656 68.2408 16.0815C68.232 16.0886 68.2188 16.0992 68.2012 16.1134C68.1836 16.1276 68.1664 16.1379 68.1496 16.1441C68.132 16.1583 68.1184 16.1729 68.1087 16.188C68.0664 16.2076 68.0203 16.1865 67.9706 16.1249C67.928 16.072 67.886 16.0514 67.8445 16.0631C67.8278 16.0693 67.8065 16.0429 67.7806 15.9838C67.7539 15.9326 67.7321 15.874 67.715 15.8078C67.6991 15.8061 67.6757 15.7995 67.6447 15.7882C67.6146 15.7688 67.5881 15.7539 67.565 15.7434C67.6099 15.6999 67.6764 15.6427 67.7645 15.5717L67.7927 15.3092L67.7181 15.2167C67.7534 15.1883 67.7802 15.1631 67.7987 15.1409C67.7365 15.0457 67.722 14.9557 67.7553 14.8707C67.7198 14.8267 67.6954 14.7919 67.682 14.7663C67.7005 14.7442 67.7318 14.7153 67.7758 14.6798L67.8885 13.6299C67.8973 13.6228 67.9066 13.6117 67.9162 13.5966C67.9339 13.5824 67.9471 13.5718 67.9559 13.5647C67.9735 13.5505 67.9827 13.5394 67.9836 13.5314L68.095 12.4934L68.1743 12.4295C68.2121 12.3772 68.2123 12.3008 68.1748 12.2003C68.1461 12.0926 68.1427 12.0118 68.1646 11.9578C68.0246 11.8381 67.9324 11.7599 67.8881 11.7229L67.6733 11.6999C67.6549 11.722 67.6184 11.7623 67.5638 11.8209C67.5181 11.8723 67.482 11.9086 67.4555 11.9299L67.2288 11.9056C67.2067 11.8871 67.1743 11.8514 67.1317 11.7986C67.1238 11.7977 67.0448 11.8214 66.8948 11.8697C66.8612 11.8822 66.8396 11.896 66.83 11.911C66.7595 11.9678 66.719 12.0077 66.7085 12.0307C66.6912 12.1174 66.6424 12.1966 66.5623 12.2685C66.4708 12.3713 66.4676 12.4756 66.5528 12.5813C66.5599 12.5901 66.5622 12.6064 66.5597 12.6303C66.5659 12.647 66.5686 12.6594 66.5677 12.6674C66.5237 12.7029 66.4924 12.7317 66.474 12.7538C66.4865 12.7874 66.499 12.8209 66.5114 12.8544C66.5239 12.8879 66.54 12.9259 66.5596 12.9682C66.5792 13.0105 66.5956 13.0445 66.609 13.0701L66.5167 13.9291C66.5699 13.959 66.5917 14.0176 66.5823 14.1051C66.5809 14.1935 66.5988 14.2517 66.636 14.2799L66.6308 14.6655C66.6299 14.6735 66.6366 14.6862 66.6508 14.7039C66.665 14.7215 66.6757 14.7347 66.6828 14.7435C66.6651 14.7577 66.6379 14.787 66.6009 14.8313L66.5548 15.2608L66.4491 15.346L66.4299 15.525C66.3955 15.5454 66.3351 15.5832 66.2487 15.6383L66.0727 15.7039L65.9296 15.6885C65.9128 15.6947 65.8916 15.7045 65.8661 15.7179C65.8476 15.74 65.8339 15.7547 65.8251 15.7618L65.5626 15.7336C65.5379 15.739 65.5186 15.7691 65.5047 15.8239C65.4899 15.8867 65.4551 15.9111 65.4003 15.8972C65.3684 15.8938 65.3312 15.8656 65.2886 15.8128C65.246 15.7599 65.2017 15.723 65.1557 15.7019L65.0364 15.6891C65.0276 15.6962 65.0104 15.7065 64.9848 15.7198C64.9672 15.734 64.954 15.7447 64.9452 15.7518L64.8574 15.6699L64.6784 15.6507L64.574 15.724C64.5678 15.7072 64.562 15.6865 64.5566 15.6618C64.5512 15.637 64.5493 15.6167 64.551 15.6008L64.6461 15.5024C64.6185 15.4592 64.5693 15.3936 64.4983 15.3055C64.515 15.2992 64.5366 15.2855 64.563 15.2642C64.5983 15.2358 64.6247 15.2145 64.6423 15.2003L64.7258 15.2092C64.7699 15.1737 64.8232 15.1272 64.8857 15.0695C64.9561 15.0127 65.0046 14.9737 65.031 14.9524C65.0697 14.8921 65.1171 14.8248 65.1734 14.7504C65.1245 14.6808 65.1101 14.5907 65.13 14.4802L65.196 14.427L65.0742 14.1001L65.1281 13.599C65.1721 13.5635 65.2034 13.5346 65.2218 13.5125L65.2398 13.3455L65.3322 13.2709C65.334 13.255 65.3369 13.2272 65.3412 13.1874C65.3534 13.1485 65.3608 13.1171 65.3634 13.0932C65.418 13.0347 65.4641 12.9793 65.5019 12.9271L65.2787 12.7583C65.3051 12.737 65.3275 12.7152 65.346 12.6931C65.3724 12.6718 65.3901 12.6576 65.3989 12.6505L65.4078 12.5669C65.3786 12.5397 65.3554 12.4929 65.3384 12.4267C65.3302 12.3534 65.3031 12.3063 65.257 12.2852L65.3057 11.8318L65.2418 11.7526L65.32 11.0248L65.3992 10.9609L65.4761 10.245L65.4548 10.2185C65.4415 10.193 65.4277 10.1714 65.4135 10.1538L65.4327 9.97479C65.3458 9.885 65.2873 9.83044 65.2572 9.81112L65.2802 9.59635C65.2192 9.56565 65.1516 9.44575 65.0775 9.23665C65.0783 9.22869 65.0717 9.21591 65.0575 9.19829C65.0521 9.17357 65.0458 9.15681 65.0387 9.148C65.0396 9.14005 65.0329 9.12726 65.0187 9.10965C65.0133 9.08493 65.0066 9.07214 64.9987 9.07129C64.9995 9.06334 64.9929 9.05055 64.9787 9.03293C64.9724 9.01617 64.9613 9.00694 64.9454 9.00523C64.9383 8.99642 64.9233 8.98676 64.9003 8.97624C64.8852 8.96658 64.8697 8.96089 64.8538 8.95919C64.8459 8.95833 64.8099 8.91827 64.746 8.83899L64.7947 8.3856C64.8308 8.34924 64.8991 8.31233 64.9997 8.27485C65.1091 8.23027 65.1827 8.18185 65.2205 8.12959L65.3995 8.1488C65.4892 8.06189 65.5861 7.98379 65.6901 7.9145L66.227 7.97215C66.2367 7.95709 66.2596 7.93139 66.2957 7.89503C66.3326 7.85072 66.3559 7.82104 66.3656 7.80599L66.5923 7.83033L66.6668 7.92282L66.7461 7.85891C66.7683 7.87738 66.8059 7.90154 66.859 7.93138C66.913 7.95327 66.9475 7.96904 66.9626 7.97871C66.9608 7.99461 66.9645 8.03524 66.9736 8.10058L67.0269 8.16665L67.0375 8.17986C67.0367 8.18781 67.0358 8.19577 67.0349 8.20372L66.9991 8.5378C66.9903 8.5449 66.9771 8.55555 66.9594 8.56975C66.9418 8.58395 66.9326 8.59503 66.9317 8.60298C66.8845 8.74274 66.8376 8.84231 66.791 8.90167L66.7564 9.22382C66.7627 9.24058 66.7694 9.25337 66.7765 9.26218C66.7915 9.27184 66.8026 9.28107 66.8097 9.28988C66.8168 9.29869 66.8239 9.3075 66.831 9.31631L66.799 9.61459C66.8637 9.68591 66.944 9.76292 67.0397 9.84561C67.0252 9.98083 67.0215 10.0528 67.0286 10.0617C67.0357 10.0705 67.0704 10.1587 67.1329 10.3263C67.2042 10.4868 67.2806 10.5996 67.3621 10.6647C67.37 10.6656 67.3855 10.6712 67.4085 10.6818C67.4324 10.6843 67.4523 10.6865 67.4682 10.6882C67.4841 10.6899 67.5004 10.6876 67.5172 10.6814C67.5419 10.676 67.5631 10.6662 67.5807 10.652C67.5895 10.6449 67.6469 10.6349 67.7529 10.6222C67.7696 10.6159 67.7987 10.607 67.8402 10.5954C67.8825 10.5758 67.9161 10.5633 67.9408 10.5579L68.251 10.5912C68.2715 10.6256 68.3197 10.6629 68.3959 10.7033C68.472 10.7437 68.5194 10.789 68.5382 10.8393C68.6382 10.8822 68.7299 10.9644 68.8134 11.0861L68.9804 11.104C69.0912 11.1963 69.1371 11.2938 69.118 11.3964L69.2373 11.4092L69.3545 11.5545C69.3422 11.5934 69.3376 11.6372 69.3404 11.6857C69.352 11.7272 69.3668 11.7771 69.3847 11.8353C69.4105 11.8944 69.4265 11.9324 69.4328 11.9491C69.4953 12.1167 69.5447 12.2186 69.581 12.2547C69.6032 12.2732 69.629 12.3323 69.6585 12.432L69.754 12.4422C69.7824 12.4775 69.8175 12.5255 69.8592 12.5863C69.9089 12.6479 69.9444 12.692 69.9657 12.7184C69.9455 12.7565 69.9178 12.7897 69.8826 12.8181C69.8553 12.8474 69.8201 12.8758 69.7769 12.9033C69.7417 12.9317 69.7152 12.953 69.6976 12.9672L69.5186 12.948ZM73.0054 12.6344L73.9837 12.7395C74.0394 12.7455 74.1004 12.7399 74.1665 12.7229C74.2734 12.7022 74.2988 12.6526 74.2429 12.5742C74.1477 12.4111 74.1114 12.2624 74.1339 12.128C74.1399 12.0723 74.1043 12.0283 74.0274 11.9959C73.8584 11.9214 73.7179 11.8058 73.606 11.6489C73.5359 11.5529 73.4346 11.5219 73.3022 11.556C73.0127 11.6295 72.8294 11.7627 72.7524 11.9556C72.7217 12.0166 72.6826 12.0808 72.6352 12.1481C72.5314 12.2899 72.4787 12.3687 72.477 12.3846C72.4833 12.4014 72.5308 12.4829 72.6197 12.6292C72.61 12.6443 72.5815 12.6855 72.534 12.7528L72.6951 12.9391C72.5859 13.0561 72.5138 13.1288 72.4785 13.1572C72.32 13.285 72.2552 13.4389 72.2841 13.6191C72.3411 13.9873 72.4989 14.3542 72.7573 14.7199C72.918 14.9463 73.0816 15.1087 73.2481 15.2071C73.4597 15.3344 73.6118 15.3789 73.7045 15.3405C73.7292 15.3351 73.78 15.3487 73.857 15.3811C74.0135 15.422 74.1578 15.3892 74.29 15.2827C74.3164 15.2614 74.4332 15.1854 74.6403 15.0548C74.6571 15.0486 74.6862 15.0396 74.7277 15.028C74.7691 15.0163 74.7991 14.9995 74.8176 14.9773C74.8361 14.9551 74.8439 14.9198 74.8411 14.8712C74.834 14.8624 74.8476 14.8478 74.882 14.8273C74.9243 14.8077 74.9662 14.7921 75.0077 14.7805C75.0245 14.7742 75.0845 14.7767 75.1879 14.7878C75.1248 14.9258 75.0767 15.0373 75.0434 15.1222C75.1178 15.1785 75.1732 15.2247 75.2096 15.2608C75.2008 15.2679 75.1951 15.2833 75.1925 15.3072C75.1328 15.4134 75.1065 15.471 75.1136 15.4798C75.1315 15.538 75.1044 15.6035 75.0322 15.6762L74.311 16.3229C74.1516 16.4587 73.9624 16.5349 73.7434 16.5516C73.6295 16.5635 73.5089 16.5626 73.3816 16.549C73.2614 16.5441 73.1183 16.5287 72.9521 16.5029C72.7938 16.4778 72.6789 16.4615 72.6073 16.4538C72.5676 16.4495 72.5096 16.4272 72.4335 16.3868C72.2165 16.2348 72.0557 16.121 71.9512 16.0454C71.8555 15.9627 71.7402 15.8377 71.6052 15.6703C71.4703 15.503 71.3761 15.3319 71.3224 15.1572C71.3162 15.1404 71.3006 15.0985 71.2756 15.0315C71.2585 14.9653 71.2433 14.9194 71.23 14.8938C71.2255 14.8611 71.2182 14.8161 71.2083 14.7587C71.1992 14.6934 71.1924 14.6444 71.1879 14.6117C71.1922 14.5719 71.1973 14.5242 71.2033 14.4685C71.2172 14.4137 71.2347 14.3633 71.2557 14.3173C71.2847 14.2721 71.2756 14.2068 71.2285 14.1212C71.1157 13.9723 71.0652 13.806 71.0769 13.6222C71.0894 13.4304 71.1281 13.2576 71.1929 13.1036C71.2708 12.9028 71.3127 12.7745 71.3187 12.7189C71.3455 12.5447 71.4458 12.3222 71.6197 12.0512C71.639 12.0211 71.6782 11.9931 71.7373 11.9673C71.7621 11.9619 71.7991 11.9538 71.8486 11.943C71.898 11.9322 71.9355 11.9201 71.9611 11.9068C72.0546 11.6352 72.1075 11.48 72.1197 11.4411C72.1819 11.311 72.2692 11.2479 72.3814 11.2519C72.4476 11.2349 72.5274 11.2032 72.6209 11.1569C72.6999 11.2459 72.7632 11.2929 72.8109 11.298C72.8666 11.304 72.9381 11.2755 73.0253 11.2124C73.2799 11.0145 73.5768 10.9096 73.916 10.8977C74.1677 10.8765 74.4083 10.9586 74.6378 11.1442C75.0366 11.4767 75.2926 11.7898 75.4059 12.0836C75.413 12.0924 75.4401 12.1395 75.4872 12.2251L75.5179 12.2766C75.5384 12.311 75.5517 12.3366 75.558 12.3533C75.5625 12.386 75.5677 12.4872 75.5737 12.6568C75.5796 12.8264 75.5938 12.9566 75.6162 13.0475C75.6153 13.0555 75.604 13.0864 75.5821 13.1404L75.351 13.3811C75.3113 13.3769 75.2154 13.3706 75.0634 13.3623C74.9194 13.3549 74.804 13.3425 74.7174 13.3252C74.4876 13.2924 74.1636 13.2375 73.7454 13.1605L73.638 13.1489C73.5736 13.15 73.5417 13.1466 73.5426 13.1387C73.5108 13.1353 73.4675 13.1266 73.4126 13.1126C73.3666 13.0916 73.3357 13.0802 73.3197 13.0785L73.359 12.9379C73.3738 12.8751 73.3705 12.8305 73.3492 12.8041C73.3279 12.7777 73.2863 12.7531 73.2244 12.7304C73.2014 12.7198 73.1735 12.7169 73.1408 12.7214C73.117 12.7188 73.0896 12.7119 73.0586 12.7005C73.0356 12.69 73.0179 12.668 73.0054 12.6344ZM77.5974 12.3792C77.7946 12.1912 77.9749 12.0858 78.1382 12.0631C78.2436 11.9055 78.3012 11.8192 78.3109 11.8041C78.4632 11.6595 78.626 11.6046 78.7992 11.6393C78.8461 11.6524 78.8978 11.6579 78.9543 11.656C79.0197 11.6469 79.0894 11.6342 79.1636 11.6181C79.2377 11.6019 79.2951 11.592 79.3358 11.5883C79.3474 11.6298 79.3613 11.6876 79.3775 11.7617C79.3937 11.8359 79.408 11.8897 79.4205 11.9232C79.4523 11.9267 79.4718 11.9328 79.4789 11.9416C79.6277 12.0541 79.8136 12.0459 80.0367 11.917C80.0543 11.9028 80.0878 11.8903 80.1372 11.8795C80.1875 11.8608 80.2299 11.8412 80.2642 11.8207C80.2986 11.8003 80.3224 11.7666 80.3354 11.7198C80.4079 11.7195 80.5055 11.7099 80.6282 11.6908C80.7589 11.6727 80.8366 11.6609 80.8613 11.6555C81.007 11.647 81.1283 11.7164 81.2252 11.8636C81.3308 12.0036 81.3667 12.1564 81.3329 12.3217C81.3195 12.2961 81.3008 12.2458 81.2767 12.1708C81.2525 12.0958 81.2298 12.0451 81.2085 12.0187C81.196 11.9852 81.1636 11.9495 81.1114 11.9117C81.0679 11.8668 81.0104 11.8405 80.9388 11.8328C80.9664 11.876 81.0001 11.936 81.0402 12.0127C81.0882 12.0902 81.1118 12.133 81.1109 12.141C81.2194 12.3296 81.1975 12.4962 81.0452 12.6408C81.017 12.678 81.0025 12.7006 81.0017 12.7085C81.0088 12.7173 81.0416 12.749 81.1001 12.8036C80.7799 12.9382 80.5001 12.884 80.2606 12.641C80.0772 12.4765 79.9124 12.4749 79.7663 12.6362C79.5137 12.8907 79.3747 13.1735 79.3494 13.4846C79.3426 13.5482 79.3381 13.6644 79.3361 13.8331C79.3429 13.9948 79.3416 14.1194 79.3322 14.2069C79.3006 14.5012 79.3896 14.6837 79.5992 14.7545C79.5685 14.8156 79.5343 14.8722 79.4965 14.9245C79.4087 15.068 79.3854 15.2103 79.4265 15.3515C79.4356 15.4168 79.4464 15.4663 79.4589 15.4998C79.5287 15.7487 79.5038 15.9431 79.3842 16.0831C79.3657 16.1053 79.3677 16.1618 79.3901 16.2527C79.4006 16.2297 79.4204 16.1956 79.4493 16.1505L79.6023 16.2997C79.5665 16.4085 79.5442 16.4664 79.5354 16.4735C79.4578 16.5215 79.4122 16.6091 79.3985 16.7364C79.3812 16.823 79.3588 16.881 79.3316 16.9103C79.3051 16.9316 79.2477 16.9415 79.1594 16.94C78.9191 16.9303 78.7199 16.9492 78.5619 16.9966C78.5125 17.0074 78.4361 17.0072 78.3327 16.9961C78.2293 16.985 78.1524 16.9888 78.1021 17.0076C78.0112 17.03 77.8614 17.0018 77.6526 16.9231C77.589 16.9162 77.5402 16.8829 77.5065 16.8229C77.3795 16.6564 77.2092 16.5939 76.9956 16.6353C76.8808 16.6552 76.7963 16.6179 76.742 16.5236C76.6895 16.4133 76.7086 16.3108 76.7992 16.2159C76.9595 16.0722 77.1298 16.0221 77.3102 16.0656L77.5569 16.1283C77.7239 16.1463 77.8284 16.073 77.8702 15.9085C77.8761 15.8528 77.8922 15.7781 77.9184 15.6844C77.9445 15.5906 77.9606 15.5159 77.9666 15.4602C77.9768 15.3648 77.9721 15.2959 77.9525 15.2536C77.9017 15.1274 77.9053 15.0192 77.9633 14.9289C78.0028 14.8607 78.0132 14.8014 77.9944 14.7512C77.9598 14.6992 77.9577 14.6064 77.9881 14.4729C78.0265 14.3402 78.0403 14.2492 78.0295 14.1998C78.025 14.1671 78.0336 14.1238 78.0555 14.0698C78.0854 14.0167 78.1007 13.9861 78.1016 13.9782C78.1391 13.8535 78.162 13.7151 78.1703 13.5631C78.1873 13.4041 78.1581 13.2641 78.0826 13.1434C78.0621 13.109 78.0266 13.065 77.9761 13.0113C77.9343 12.9505 77.9028 12.9068 77.8815 12.8804C77.8943 12.7611 77.7996 12.594 77.5974 12.3792ZM84.2027 13.8367L85.1811 13.9418C85.2368 13.9478 85.2977 13.9422 85.3639 13.9252C85.4707 13.9045 85.4962 13.8549 85.4402 13.7765C85.3451 13.6134 85.3088 13.4647 85.3312 13.3303C85.3372 13.2746 85.3017 13.2306 85.2247 13.1982C85.0557 13.1237 84.9153 13.0081 84.8034 12.8512C84.7332 12.7552 84.6319 12.7242 84.4995 12.7583C84.21 12.8318 84.0268 12.965 83.9497 13.1578C83.9191 13.2189 83.88 13.2831 83.8325 13.3504C83.7288 13.4922 83.6761 13.571 83.6744 13.5869C83.6806 13.6037 83.7282 13.6852 83.8171 13.8315C83.8074 13.8466 83.7788 13.8878 83.7314 13.9551L83.8924 14.1413C83.7833 14.2584 83.7111 14.3311 83.6759 14.3595C83.5173 14.4873 83.4525 14.6412 83.4815 14.8214C83.5385 15.1895 83.6962 15.5565 83.9547 15.9222C84.1154 16.1486 84.279 16.311 84.4455 16.4093C84.6571 16.5367 84.8092 16.5812 84.9018 16.5428C84.9265 16.5374 84.9774 16.5509 85.0544 16.5833C85.2109 16.6243 85.3552 16.5915 85.4873 16.485C85.5138 16.4637 85.6305 16.3877 85.8377 16.2571C85.8544 16.2509 85.8835 16.2419 85.925 16.2303C85.9665 16.2186 85.9965 16.2017 86.015 16.1796C86.0334 16.1574 86.0412 16.1221 86.0384 16.0735C86.0313 16.0647 86.045 16.05 86.0793 16.0296C86.1217 16.01 86.1636 15.9944 86.2051 15.9828C86.2218 15.9765 86.2819 15.9789 86.3853 15.99C86.3222 16.1281 86.274 16.2396 86.2408 16.3245C86.3152 16.3808 86.3706 16.427 86.4069 16.4631C86.3981 16.4702 86.3924 16.4856 86.3899 16.5095C86.3302 16.6157 86.3039 16.6733 86.311 16.6821C86.3289 16.7403 86.3017 16.8058 86.2296 16.8785L85.5084 17.5252C85.349 17.661 85.1598 17.7372 84.9407 17.7539C84.8268 17.7658 84.7062 17.7649 84.579 17.7513C84.4588 17.7464 84.3156 17.731 84.1494 17.7051C83.9912 17.6801 83.8763 17.6637 83.8047 17.6561C83.7649 17.6518 83.707 17.6295 83.6308 17.5891C83.4138 17.4371 83.2531 17.3233 83.1485 17.2477C83.0528 17.165 82.9375 17.04 82.8026 16.8726C82.6677 16.7052 82.5734 16.5342 82.5198 16.3595C82.5135 16.3427 82.4979 16.3008 82.4729 16.2338C82.4559 16.1676 82.4407 16.1217 82.4274 16.0961C82.4228 16.0634 82.4156 16.0184 82.4057 15.961C82.3966 15.8957 82.3898 15.8467 82.3852 15.814C82.3895 15.7742 82.3946 15.7265 82.4006 15.6708C82.4145 15.616 82.432 15.5656 82.4531 15.5196C82.482 15.4744 82.473 15.409 82.4258 15.3235C82.3131 15.1746 82.2626 15.0083 82.2742 14.8245C82.2868 14.6327 82.3255 14.4599 82.3903 14.3059C82.4682 14.1051 82.5101 13.9768 82.5161 13.9211C82.5428 13.747 82.6431 13.5244 82.8171 13.2535C82.8364 13.2234 82.8756 13.1954 82.9347 13.1695C82.9594 13.1641 82.9965 13.1561 83.0459 13.1453C83.0954 13.1345 83.1329 13.1224 83.1584 13.1091C83.252 12.8375 83.3048 12.6823 83.3171 12.6434C83.3793 12.5133 83.4665 12.4502 83.5787 12.4542C83.6449 12.4372 83.7248 12.4055 83.8183 12.3592C83.8972 12.4482 83.9606 12.4952 84.0083 12.5003C84.064 12.5063 84.1354 12.4778 84.2226 12.4147C84.4772 12.2168 84.7741 12.1119 85.1133 12.1C85.365 12.0788 85.6056 12.1609 85.8351 12.3465C86.2339 12.679 86.49 12.9921 86.6032 13.2859C86.6103 13.2947 86.6375 13.3418 86.6846 13.4273L86.7153 13.4789C86.7357 13.5133 86.7491 13.5389 86.7553 13.5556C86.7599 13.5883 86.7651 13.6894 86.771 13.859C86.7769 14.0286 86.7911 14.1589 86.8135 14.2498C86.8127 14.2578 86.8013 14.2887 86.7794 14.3427L86.5484 14.5834C86.5086 14.5791 86.4128 14.5729 86.2608 14.5646C86.1167 14.5572 86.0014 14.5448 85.9148 14.5274C85.6849 14.4947 85.3609 14.4398 84.9428 14.3627L84.8354 14.3512C84.7709 14.3523 84.7391 14.3489 84.74 14.341C84.7081 14.3375 84.6648 14.3289 84.61 14.3149C84.564 14.2939 84.533 14.2825 84.5171 14.2808L84.5563 14.1402C84.5711 14.0774 84.5679 14.0328 84.5466 14.0064C84.5253 13.98 84.4837 13.9554 84.4217 13.9327C84.3987 13.9221 84.3709 13.9191 84.3382 13.9237C84.3143 13.9211 84.2869 13.9142 84.256 13.9028C84.233 13.8923 84.2152 13.8702 84.2027 13.8367ZM34.5995 21.2234C34.5995 21.2234 34.5944 21.2711 34.5842 21.3665C34.5825 21.3825 34.5724 21.4015 34.5539 21.4236C34.5442 21.4387 34.539 21.4502 34.5381 21.4582C34.5171 21.5042 34.5057 21.5351 34.504 21.551C34.498 21.6067 34.4847 21.6938 34.4639 21.8122C34.4519 21.9236 34.443 22.0071 34.437 22.0628L34.3819 22.5759C34.3742 22.6474 34.3881 22.7053 34.4236 22.7493C34.4378 22.7669 34.4424 22.7996 34.4373 22.8473C34.4224 23.1354 34.4153 23.3519 34.4158 23.4967L34.3927 23.7115C34.3859 23.7751 34.3916 23.8723 34.4097 24.003L34.4224 24.2216C34.4139 24.3011 34.4115 24.3612 34.4152 24.4018C34.4109 24.4416 34.4269 24.4795 34.4633 24.5156C34.4783 24.5253 34.4925 24.5429 34.5059 24.5685C34.528 24.587 34.5458 24.609 34.5591 24.6345C34.5804 24.661 34.5982 24.683 34.6124 24.7006C34.6337 24.727 34.6745 24.7596 34.7347 24.7982L34.874 24.8494L34.9072 24.8771C34.9143 24.8859 34.9214 24.8947 34.9285 24.9035C34.9436 24.9132 34.9547 24.9224 34.9618 24.9312C34.9839 24.9497 34.9986 24.9633 35.0057 24.9721C35.0769 25.1327 35.1153 25.2253 35.1206 25.25L35.0507 25.3391C35.0428 25.3382 35.0348 25.3373 35.0269 25.3365C35.0189 25.3356 35.0145 25.3392 35.0137 25.3471C34.9168 25.4252 34.7962 25.4244 34.6519 25.3445C34.6209 25.3331 34.5807 25.3328 34.5313 25.3436C34.4668 25.3447 34.3678 25.3301 34.2343 25.2997C34.1883 25.2786 34.1056 25.2617 33.9863 25.2489C33.951 25.2773 33.8976 25.2877 33.8261 25.28C33.7624 25.2731 33.7226 25.2689 33.7067 25.2672L33.6948 25.2659C33.655 25.2616 33.5954 25.2552 33.5158 25.2467C33.4371 25.2302 33.3779 25.2198 33.3381 25.2155C33.3151 25.205 33.2789 25.2051 33.2295 25.2159C33.134 25.2057 33.062 25.202 33.0134 25.2048C32.9975 25.2031 32.9649 25.2076 32.9154 25.2184C32.8748 25.2221 32.8421 25.2266 32.8174 25.232C32.7521 25.2411 32.7043 25.236 32.6742 25.2166C32.5609 25.1482 32.4561 25.1128 32.3598 25.1105L32.2405 25.0977L32.0815 25.1168C32.0576 25.1142 32.0386 25.1041 32.0244 25.0865C32.0057 25.0362 31.9689 25.0041 31.9141 24.9902C31.8601 24.9683 31.8436 24.9344 31.8647 24.8883L31.8711 24.8287C31.877 24.773 31.9083 24.7442 31.9648 24.7422C31.9816 24.7359 31.9984 24.7297 32.0151 24.7235L32.0535 24.7034C32.1381 24.6643 32.2012 24.6388 32.2427 24.6272C32.2674 24.6218 32.3116 24.6225 32.3752 24.6294C32.4531 24.6538 32.4962 24.6263 32.5048 24.5467C32.523 24.4521 32.589 24.3989 32.703 24.387C32.7604 24.377 32.7757 24.3465 32.749 24.2954C32.7161 24.2275 32.7229 24.1638 32.7695 24.1045C32.7783 24.0974 32.7796 24.0854 32.7734 24.0687C32.7751 24.0528 32.7724 24.0404 32.7653 24.0316C32.7386 23.9804 32.7464 23.9451 32.7887 23.9255L32.8416 23.8829C32.876 23.8624 32.8838 23.8271 32.865 23.7768C32.8525 23.7433 32.8418 23.6938 32.8327 23.6285C32.8299 23.5799 32.8044 23.5168 32.7564 23.4393C32.728 23.404 32.7315 23.3722 32.7667 23.3438C32.8195 23.3012 32.8419 23.2433 32.8336 23.17C32.8353 23.1541 32.8375 23.1342 32.84 23.1103C32.8506 23.0873 32.8562 23.0718 32.8571 23.0639C32.8685 23.0329 32.8855 22.9865 32.9083 22.9245C32.9398 22.8555 32.9617 22.8015 32.9739 22.7626C33.0115 22.6379 33.0426 22.4602 33.0674 22.2295C33.0921 21.9989 33.1136 21.8362 33.1318 21.7416C33.1412 21.6541 33.1671 21.6006 33.2094 21.581L33.2226 21.5704C33.2261 21.5385 33.2396 21.4877 33.2632 21.4178C33.2956 21.3408 33.3064 21.2776 33.2956 21.2282C33.2729 21.0648 33.2918 20.9261 33.3524 20.8119C33.383 20.7508 33.363 20.7124 33.2923 20.6968C33.1755 20.6601 33.0434 20.654 32.896 20.6784C32.7477 20.7107 32.6329 20.7306 32.5517 20.738C32.4448 20.7587 32.36 20.7616 32.2973 20.7469C32.1265 20.6883 32.031 20.6418 32.0105 20.6074C32.0034 20.5986 31.9848 20.5846 31.9547 20.5652C31.907 20.5601 31.8857 20.5337 31.8908 20.486L31.9074 20.3309C31.9151 20.2593 31.9433 20.2221 31.9918 20.2192L32.0315 20.1873C32.0949 20.1217 32.1686 20.1095 32.2527 20.1507C32.2845 20.1541 32.3012 20.1479 32.3029 20.1319C32.3319 20.0868 32.4157 20.0556 32.5544 20.0383C32.5862 20.0417 32.6383 20.0432 32.7108 20.043C32.792 20.0356 32.853 20.0301 32.8936 20.0264L33.1799 20.0571C33.2038 20.0597 33.2241 20.0579 33.2409 20.0516C33.2576 20.0454 33.2824 20.04 33.315 20.0354C33.3486 20.023 33.3733 20.0176 33.3892 20.0193C33.4298 20.0156 33.4531 19.9859 33.4591 19.9302C33.4685 19.8427 33.4718 19.7747 33.4689 19.7261C33.4695 19.6457 33.5068 19.5612 33.5806 19.4726C33.6079 19.4433 33.6074 19.4111 33.579 19.3758C33.5435 19.3318 33.5266 19.3018 33.5283 19.2859C33.5368 19.2064 33.5512 19.1476 33.5713 19.1095C33.6117 19.0334 33.6336 18.9794 33.637 18.9476C33.6481 18.8442 33.6734 18.7584 33.7129 18.6902C33.7226 18.6752 33.7287 18.6557 33.7313 18.6319C33.7418 18.6088 33.7487 18.5814 33.7522 18.5496C33.7635 18.5187 33.7701 18.4952 33.7718 18.4793L33.7731 18.4674C33.7668 18.4506 33.7641 18.4383 33.765 18.4303L33.8801 18.0323C33.8827 18.0085 33.9033 17.9664 33.9419 17.9062C33.9709 17.861 34.0106 17.8291 34.0608 17.8103C34.0856 17.805 34.1376 17.7703 34.2168 17.7064L34.2935 17.6664C34.3623 17.6255 34.4134 17.5988 34.447 17.5863L34.5475 17.5488L34.6468 17.5233C34.6988 17.4886 34.7531 17.4703 34.8096 17.4683C34.8255 17.47 34.8463 17.4642 34.8719 17.4509C34.8974 17.4375 34.9142 17.4313 34.9221 17.4321C34.9398 17.4179 34.9565 17.4117 34.9724 17.4134C34.9954 17.4239 35.0621 17.4029 35.1723 17.3504L35.1974 17.341C35.1974 17.341 35.2014 17.3414 35.2094 17.3423C35.3366 17.356 35.4325 17.3622 35.497 17.3611C35.5129 17.3628 35.5293 17.3605 35.546 17.3543C35.6273 17.3469 35.6838 17.345 35.7156 17.3484C35.7483 17.3438 35.7925 17.3446 35.8481 17.3505C35.9675 17.3633 36.0585 17.3771 36.1213 17.3919C36.1451 17.3945 36.188 17.4071 36.25 17.4299C36.3127 17.4447 36.3605 17.4498 36.3931 17.4453C36.4011 17.4461 36.4578 17.4804 36.5631 17.548C36.5702 17.5568 36.6362 17.58 36.7609 17.6175C36.7918 17.6289 36.8347 17.6415 36.8895 17.6555C36.9444 17.6694 36.9758 17.6768 36.9837 17.6776C36.9996 17.6793 37.0111 17.6846 37.0182 17.6934C37.0245 17.7102 37.0918 17.7576 37.2202 17.8358C37.3114 17.8858 37.3636 17.9236 37.377 17.9492C37.3761 17.9571 37.4173 17.9857 37.5005 18.0348C37.5448 18.0718 37.5693 18.1066 37.5738 18.1393C37.5729 18.1472 37.5796 18.16 37.5938 18.1776C37.608 18.1952 37.6147 18.208 37.6138 18.216L37.6419 18.2914C37.6482 18.3082 37.6496 18.3325 37.6462 18.3643C37.6516 18.389 37.6534 18.4093 37.6517 18.4252C37.6483 18.457 37.6591 18.5065 37.6841 18.5735C37.7136 18.6732 37.6931 18.7515 37.6227 18.8083L37.6094 18.819C37.5989 18.842 37.5888 18.861 37.5792 18.8761C37.5704 18.8832 37.5576 18.8898 37.5408 18.8961C37.5241 18.9023 37.5073 18.9086 37.4905 18.9148C37.4817 18.9219 37.465 18.9282 37.4402 18.9335C37.4243 18.9318 37.408 18.9341 37.3912 18.9404C37.333 18.9582 37.2331 18.9515 37.0917 18.9203C37.0758 18.9186 37.0643 18.9133 37.0572 18.9045L36.9775 18.8597C36.8641 18.7912 36.795 18.7235 36.77 18.6564C36.7487 18.63 36.7301 18.6159 36.7142 18.6142C36.6753 18.602 36.6266 18.5686 36.568 18.514C36.5538 18.4964 36.5166 18.4683 36.4564 18.4296C36.4104 18.4086 36.3763 18.3889 36.3542 18.3704C36.3073 18.3573 36.2652 18.3367 36.228 18.3086L36.1364 18.2625C36.1063 18.2432 36.0833 18.2327 36.0674 18.231C36.0276 18.2267 36.0002 18.2197 35.9852 18.2101C35.9329 18.1723 35.8613 18.1646 35.7704 18.187C35.7624 18.1862 35.7501 18.1889 35.7333 18.1951C35.7254 18.1942 35.7174 18.1934 35.7095 18.1925C35.6944 18.1829 35.6569 18.1949 35.597 18.2287C35.5802 18.235 35.5472 18.2797 35.4981 18.3629C35.4972 18.3709 35.4836 18.3855 35.4571 18.4068C35.4122 18.4503 35.3563 18.4845 35.2892 18.5095L35.2747 18.5321L35.2602 18.5546C35.2585 18.5706 35.252 18.594 35.2406 18.625C35.2301 18.648 35.224 18.6674 35.2223 18.6833C35.2197 18.7072 35.1913 18.7846 35.137 18.9156C35.0975 18.9837 35.0718 19.0735 35.0598 19.1849C35.0376 19.3917 35.0168 19.5101 34.9975 19.5402L35.0069 19.5654C35.0069 19.5654 35.0065 19.5694 35.0056 19.5773C35.013 19.6586 35.0141 19.723 35.009 19.7708C34.9962 19.8901 35.0169 19.9969 35.0711 20.0912L35.0941 20.2144C35.1032 20.2797 35.1475 20.3167 35.227 20.3252C35.3162 20.3187 35.375 20.3331 35.4034 20.3683C35.4105 20.3771 35.4181 20.3819 35.426 20.3828C35.4419 20.3845 35.4543 20.3818 35.4631 20.3747C35.5293 20.3577 35.5858 20.3557 35.6327 20.3688C35.6477 20.3784 35.6716 20.381 35.7043 20.3765C35.7449 20.3728 35.7692 20.3714 35.7771 20.3722C35.8646 20.3816 35.9287 20.3845 35.9693 20.3808C35.9861 20.3745 36.0449 20.3889 36.1457 20.4239C36.1608 20.4335 36.1737 20.4631 36.1845 20.5125C36.1925 20.5134 36.1996 20.5222 36.2058 20.5389C36.212 20.5557 36.2187 20.5685 36.2258 20.5773C36.248 20.5958 36.2573 20.6209 36.2539 20.6527C36.2585 20.6854 36.2479 20.7084 36.2224 20.7217C36.2136 20.7288 36.2004 20.7395 36.1827 20.7537L36.1682 20.7763C36.1481 20.8143 36.134 20.833 36.126 20.8321L35.95 20.8977C35.9165 20.9102 35.8799 20.9143 35.8401 20.91C35.8083 20.9066 35.7689 20.8983 35.7221 20.8853C35.6752 20.8722 35.6398 20.8644 35.616 20.8618C35.577 20.8496 35.5253 20.844 35.4608 20.8452C35.4043 20.8471 35.3641 20.8468 35.3403 20.8443C35.3067 20.8568 35.2829 20.8542 35.2687 20.8366C35.2076 20.8059 35.1236 20.8009 35.0168 20.8216L34.7032 20.9328C34.6873 20.9311 34.6696 20.9453 34.6503 20.9754C34.6398 20.9984 34.6316 21.0377 34.6256 21.0934C34.6196 21.1491 34.6109 21.1924 34.5995 21.2234ZM32.3076 20.3135L32.3221 20.2909C32.3221 20.2909 32.3225 20.2869 32.3234 20.279C32.3154 20.2781 32.3035 20.2768 32.2876 20.2751C32.2725 20.2655 32.261 20.2602 32.2531 20.2593L32.2479 20.3071L32.3076 20.3135ZM38.2494 22.8825L38.1749 22.79L38.212 22.444C38.2217 22.429 38.2353 22.4143 38.253 22.4001C38.2785 22.3868 38.2961 22.3726 38.3058 22.3575L38.3148 22.274L38.6979 21.9651C38.7067 21.958 38.712 21.9465 38.7137 21.9306C38.7163 21.9068 38.718 21.8909 38.7188 21.8829C38.7532 21.8625 38.7858 21.8217 38.8164 21.7606C38.848 21.6916 38.8849 21.6473 38.9273 21.6277L38.9555 21.3652C39.0523 21.2871 39.1291 21.2471 39.1856 21.2451C39.1935 21.2459 39.2191 21.2326 39.2623 21.2051C39.3055 21.1775 39.3426 21.1694 39.3735 21.1808C39.3929 21.1507 39.4312 21.1307 39.4886 21.1207C39.5468 21.1028 39.5843 21.0908 39.6011 21.0845C39.6267 21.0712 39.6602 21.0587 39.7017 21.0471C39.744 21.0275 39.7736 21.0145 39.7903 21.0083L39.7993 20.9248C39.8513 20.8901 39.9195 20.817 40.0039 20.7054C40.0971 20.5866 40.1816 20.5112 40.2575 20.4791C40.3027 20.5081 40.34 20.5725 40.3695 20.6722C40.3999 20.764 40.4416 20.8248 40.4948 20.8546L40.8408 20.8918C40.8584 20.8776 40.872 20.8629 40.8817 20.8479C40.8993 20.8337 40.9125 20.823 40.9213 20.8159L41.1003 20.8352C41.1443 20.7997 41.1791 20.7752 41.2047 20.7619L41.3718 20.7798C41.3868 20.7895 41.4085 20.8119 41.4369 20.8472C41.6571 20.8949 41.8263 21.0056 41.9444 21.1792C42.0089 21.1781 42.0823 21.2061 42.1647 21.2632C42.2559 21.3133 42.309 21.3431 42.324 21.3528C42.3428 21.403 42.3898 21.4523 42.4651 21.5007C42.5483 21.5498 42.597 21.5832 42.6112 21.6008C42.6475 21.6369 42.699 21.6827 42.7654 21.7381C42.8319 21.7935 42.8722 21.83 42.8864 21.8476L43.1101 22.1251C43.1592 22.2671 43.19 22.3549 43.2025 22.3885L43.1871 22.5316L43.2723 22.6373L43.2262 23.0669L43.3007 23.1594C43.2655 23.1878 43.2382 23.217 43.2189 23.2471L43.1087 24.2732L43.0005 24.3823C42.9988 24.3982 42.9914 24.4296 42.9783 24.4765C42.974 24.5162 42.9706 24.5481 42.968 24.5719C42.9513 24.5782 42.9341 24.5884 42.9165 24.6026C42.9068 24.6176 42.8936 24.6283 42.8768 24.6345L42.8499 24.8851C42.8403 24.9001 42.8222 24.9183 42.7958 24.9396C42.7782 24.9538 42.7641 24.9724 42.7536 24.9954C42.7439 25.0105 42.7414 25.0344 42.7459 25.067C42.6146 25.1656 42.4213 25.3178 42.1658 25.5237L42.1556 25.6192C42.138 25.6334 42.1072 25.6582 42.0631 25.6937C42.0279 25.7221 41.9966 25.7509 41.9693 25.7802C41.95 25.8103 41.9382 25.8452 41.9339 25.885L41.8679 25.9383C41.8591 25.9454 41.8459 25.956 41.8282 25.9702L41.8018 25.9915C41.7399 25.9688 41.6733 25.9898 41.602 26.0545C41.5394 26.1122 41.4918 26.1433 41.4592 26.1478C41.4186 26.1515 41.2509 26.214 40.9563 26.3352L40.8817 26.2427L40.7028 26.2235L40.6103 26.2981C40.5776 26.3026 40.5175 26.3002 40.43 26.2908C40.4124 26.305 40.3908 26.3188 40.3653 26.3321C40.3476 26.3463 40.3344 26.357 40.3256 26.3641L39.6217 26.2885L39.5578 26.2092C39.5092 26.212 39.4397 26.1845 39.3494 26.1265C39.2582 26.0765 39.1844 26.0524 39.1278 26.0544C39.1048 26.0439 39.072 26.0122 39.0294 25.9594C38.9948 25.9074 38.958 25.8753 38.9191 25.863C38.8563 25.8482 38.7947 25.7853 38.7342 25.6742C38.7217 25.6407 38.6845 25.6126 38.6225 25.5898C38.5694 25.56 38.5326 25.5279 38.5122 25.4935L38.5224 25.398C38.4702 25.3602 38.4227 25.3149 38.3801 25.2621C38.3464 25.2021 38.3197 25.151 38.3001 25.1086C38.2805 25.0663 38.2511 25.0028 38.2119 24.9181C38.1815 24.8264 38.1601 24.7637 38.1476 24.7302L38.1643 24.5751L38.0991 24.5077C38.0857 24.4822 38.0829 24.4336 38.0906 24.362C38.1071 24.2833 38.1126 24.2316 38.1072 24.2069L38.0433 24.1276L38.0818 23.7697C38.0463 23.7256 38.0174 23.6944 37.9953 23.6759L38.0517 23.1509C38.165 22.9941 38.231 22.9047 38.2494 22.8825ZM40.0938 22.453C40.0339 22.4867 39.9955 22.5068 39.9788 22.513C39.9629 22.5113 39.9403 22.4968 39.911 22.4695C39.8906 22.4352 39.8728 22.4131 39.8578 22.4035L39.7256 22.51C39.7327 22.5188 39.743 22.536 39.7563 22.5615C39.7776 22.588 39.7914 22.6096 39.7976 22.6263C39.7942 22.6581 39.7688 22.7077 39.7213 22.775C39.6739 22.8423 39.6555 22.9007 39.6663 22.9502L39.5845 23.0379L39.5371 23.4794C39.5822 23.5084 39.6001 23.5666 39.5907 23.6541C39.5893 23.7425 39.6111 23.8011 39.6563 23.8301C39.6574 23.8946 39.6485 23.9781 39.6294 24.0807C39.6192 24.1761 39.6194 24.2486 39.6302 24.298L39.6941 24.3773L39.6723 24.5801C39.7556 24.6293 39.8368 24.7346 39.916 24.8959C39.9952 25.0573 40.0419 25.1468 40.0561 25.1644C40.0536 25.1883 40.0502 25.2201 40.0459 25.2599C40.0504 25.2926 40.0523 25.3129 40.0514 25.3208C40.0886 25.349 40.1152 25.3639 40.1311 25.3656C40.155 25.3681 40.1801 25.3588 40.2065 25.3375C40.2409 25.317 40.2661 25.3077 40.282 25.3094C40.3609 25.3983 40.4349 25.4585 40.5039 25.4901C40.5551 25.4634 40.5899 25.439 40.6084 25.4168L40.9663 25.4553C40.976 25.4402 40.994 25.422 41.0204 25.4007C41.0548 25.3803 41.0773 25.3586 41.0878 25.3355C41.1062 25.3134 41.1172 25.2864 41.1206 25.2546C41.1382 25.2404 41.1668 25.1992 41.2063 25.131C41.2537 25.0637 41.3137 25.0299 41.3861 25.0296C41.402 25.0314 41.4232 25.0216 41.4496 25.0003C41.4849 24.9719 41.5038 24.9457 41.5063 24.9219C41.5097 24.89 41.5255 24.8555 41.5537 24.8183C41.5897 24.782 41.6122 24.7602 41.621 24.7531C41.6236 24.7293 41.6266 24.7014 41.63 24.6696C41.6342 24.6298 41.6412 24.6024 41.6509 24.5874C41.7142 24.5218 41.7449 24.4607 41.743 24.4042C41.7447 24.3883 41.7424 24.3719 41.7361 24.3552C41.7379 24.3392 41.7391 24.3273 41.74 24.3194L41.6774 24.2282C41.695 24.214 41.7122 24.2037 41.7289 24.1975C41.7466 24.1833 41.7598 24.1726 41.7686 24.1655C41.7552 24.14 41.7308 24.1052 41.6953 24.0611L41.7235 23.7986C41.7675 23.7631 41.7988 23.7343 41.8173 23.7121C41.8303 23.6653 41.812 23.611 41.7623 23.5493L41.7436 23.4991L41.7974 22.9979L41.7228 22.9055L41.7613 22.5475L41.6974 22.4682C41.6991 22.4523 41.6972 22.432 41.6918 22.4073C41.6953 22.3755 41.6938 22.3512 41.6876 22.3344C41.6893 22.3185 41.6906 22.3066 41.6914 22.2986L41.1696 21.6512C41.1369 21.6558 41.0949 21.6352 41.0435 21.5894C41.0009 21.5366 40.9588 21.5159 40.9173 21.5276C40.7267 21.5795 40.6075 21.6029 40.5598 21.5978L40.388 21.7363L40.2926 21.726C40.1781 21.8183 40.1116 21.8756 40.0931 21.8977C40.0755 21.9119 40.0518 21.9456 40.0219 21.9987C40 22.0527 39.9723 22.0859 39.9388 22.0984L39.9119 22.3489C39.9579 22.37 40.0186 22.4046 40.0938 22.453ZM45.2158 21.977C45.413 21.789 45.5933 21.6837 45.7566 21.661C45.8621 21.5033 45.9196 21.417 45.9293 21.4019C46.0816 21.2574 46.2444 21.2024 46.4177 21.2371C46.4645 21.2502 46.5162 21.2558 46.5728 21.2538C46.6381 21.2447 46.7078 21.2321 46.782 21.2159C46.8562 21.1997 46.9135 21.1898 46.9542 21.1861C46.9658 21.2276 46.9797 21.2854 46.9959 21.3596C47.0121 21.4337 47.0264 21.4876 47.0389 21.5211C47.0707 21.5245 47.0902 21.5306 47.0973 21.5394C47.2461 21.6519 47.432 21.6437 47.6551 21.5148C47.6727 21.5006 47.7062 21.4881 47.7557 21.4773C47.8059 21.4586 47.8483 21.439 47.8827 21.4186C47.917 21.3981 47.9408 21.3645 47.9538 21.3176C48.0263 21.3173 48.1239 21.3077 48.2466 21.2887C48.3773 21.2705 48.455 21.2588 48.4797 21.2534C48.6254 21.2449 48.7467 21.3142 48.8436 21.4614C48.9492 21.6015 48.9851 21.7542 48.9513 21.9195C48.9379 21.8939 48.9192 21.8437 48.8951 21.7687C48.8709 21.6936 48.8482 21.6429 48.8269 21.6165C48.8144 21.583 48.782 21.5473 48.7298 21.5095C48.6863 21.4646 48.6288 21.4383 48.5572 21.4307C48.5848 21.4738 48.6186 21.5338 48.6586 21.6105C48.7066 21.6881 48.7302 21.7308 48.7293 21.7388C48.8378 21.9274 48.8159 22.0941 48.6636 22.2386C48.6354 22.2758 48.6209 22.2984 48.6201 22.3064C48.6272 22.3152 48.66 22.3469 48.7185 22.4014C48.3983 22.536 48.1185 22.4818 47.8791 22.2389C47.6956 22.0743 47.5308 22.0727 47.3847 22.2341C47.1321 22.4886 46.9932 22.7713 46.9678 23.0824C46.961 23.146 46.9565 23.2622 46.9545 23.431C46.9613 23.5926 46.96 23.7172 46.9506 23.8047C46.919 24.099 47.008 24.2816 47.2176 24.3523C47.187 24.4134 47.1527 24.4701 47.1149 24.5223C47.0271 24.6658 47.0038 24.8081 47.0449 24.9493C47.054 25.0147 47.0648 25.0641 47.0773 25.0976C47.1471 25.3465 47.1222 25.5409 47.0026 25.681C46.9841 25.7031 46.9861 25.7597 47.0085 25.8506C47.019 25.8276 47.0388 25.7935 47.0678 25.7483L47.2207 25.8975C47.1849 26.0063 47.1626 26.0642 47.1538 26.0713C47.0762 26.1193 47.0306 26.207 47.0169 26.3342C46.9996 26.4209 46.9773 26.4788 46.95 26.5081C46.9235 26.5294 46.8662 26.5393 46.7778 26.5379C46.5375 26.5282 46.3383 26.547 46.1804 26.5944C46.1309 26.6052 46.0545 26.605 45.9511 26.5939C45.8477 26.5828 45.7708 26.5867 45.7206 26.6054C45.6296 26.6278 45.4798 26.5997 45.271 26.5209C45.2074 26.5141 45.1587 26.4807 45.1249 26.4207C44.9979 26.2542 44.8276 26.1917 44.614 26.2331C44.4992 26.253 44.4147 26.2158 44.3605 26.1214C44.3079 26.0112 44.327 25.9086 44.4176 25.8138C44.5779 25.6701 44.7482 25.62 44.9286 25.6635L45.1753 25.7262C45.3423 25.7441 45.4468 25.6708 45.4886 25.5063C45.4945 25.4507 45.5106 25.3759 45.5368 25.2822C45.5629 25.1885 45.579 25.1138 45.585 25.0581C45.5952 24.9626 45.5906 24.8937 45.571 24.8514C45.5201 24.7252 45.5237 24.617 45.5817 24.5267C45.6212 24.4585 45.6316 24.3993 45.6128 24.349C45.5782 24.297 45.5761 24.2042 45.6065 24.0707C45.6449 23.9381 45.6587 23.847 45.6479 23.7976C45.6434 23.7649 45.652 23.7216 45.6739 23.6676C45.7038 23.6145 45.7191 23.584 45.72 23.576C45.7575 23.4513 45.7804 23.313 45.7887 23.161C45.8058 23.0019 45.7765 22.862 45.701 22.7412C45.6805 22.7068 45.645 22.6628 45.5945 22.6091C45.5527 22.5483 45.5212 22.5047 45.4999 22.4782C45.5127 22.3589 45.418 22.1919 45.2158 21.977ZM53.4012 26.3439C53.3941 26.3351 53.383 26.3258 53.368 26.3162C53.3609 26.3074 53.3502 26.2941 53.336 26.2765C53.3298 26.2598 53.3231 26.247 53.316 26.2382C53.3328 26.2319 53.3632 26.2111 53.4072 26.1756C53.4098 26.1517 53.4145 26.1079 53.4213 26.0443C53.4361 25.9815 53.4456 25.9303 53.4499 25.8905L53.6233 25.8488L53.6631 25.4789L53.926 25.2778C53.9411 25.2875 53.9637 25.302 53.9938 25.3213C54.0327 25.3335 54.0637 25.3449 54.0867 25.3554C54.1097 25.3659 54.1283 25.38 54.1425 25.3976C54.1788 25.4337 54.2254 25.487 54.2822 25.5574C54.347 25.6288 54.3975 25.6825 54.4339 25.7185C54.4344 25.8634 54.4387 25.9363 54.4466 25.9372C54.4688 25.9556 54.4848 25.9936 54.4947 26.0509C54.5047 26.1083 54.5207 26.1463 54.5429 26.1647C54.6139 26.2528 54.6477 26.3128 54.6442 26.3446C54.6479 26.3852 54.6671 26.4315 54.7017 26.4835C54.7452 26.5284 54.7705 26.5553 54.7776 26.5641L54.8521 26.6566L55.1112 26.8292L55.4811 26.8689L55.8378 26.5814C55.8199 26.5231 55.7667 26.4571 55.678 26.3832C55.6187 26.3366 55.5596 26.2498 55.5008 26.1228C55.4429 25.9878 55.3882 25.8975 55.3368 25.8517C55.3348 25.7952 55.3201 25.7453 55.2925 25.7021C55.265 25.6589 55.2295 25.6149 55.186 25.57C55.1434 25.5171 55.1115 25.4775 55.0902 25.4511C55.076 25.4335 55.0419 25.4137 54.9879 25.3918C54.934 25.3699 54.9007 25.3422 54.8882 25.3087C54.8547 25.3212 54.8127 25.3006 54.7621 25.2469C54.7195 25.194 54.6775 25.1734 54.636 25.1851L54.4123 24.9076C54.3186 24.8815 54.2439 24.8654 54.1882 24.8594C54.1908 24.8355 54.1902 24.8033 54.1865 24.7627C54.1908 24.7229 54.1938 24.6951 54.1955 24.6792L54.1861 24.654C54.1799 24.6372 54.1732 24.6245 54.1661 24.6157C54.1448 24.5892 54.1089 24.5492 54.0583 24.4955C54.0166 24.4347 53.9819 24.3827 53.9544 24.3395C53.9277 24.2883 53.9094 24.2341 53.8994 24.1767L53.9276 23.9142L53.8424 23.8085L53.8706 23.546C53.8644 23.5292 53.8502 23.5116 53.828 23.4931C53.8138 23.4755 53.8036 23.4583 53.7973 23.4416L53.8537 22.9166C53.8977 22.8811 53.929 22.8523 53.9475 22.8301C53.9296 22.7719 53.9725 22.6719 54.0762 22.5301C54.1157 22.462 54.2007 22.3826 54.3311 22.292C54.3479 22.2857 54.3699 22.268 54.3972 22.2387C54.4324 22.2103 54.4628 22.1895 54.4884 22.1761C54.5228 22.1557 54.5563 22.1432 54.589 22.1386C54.6296 22.135 54.735 22.09 54.9052 22.0036L55.0603 22.0203C55.077 22.014 55.0942 22.0038 55.1118 21.9896C55.1383 21.9683 55.1559 21.9541 55.1647 21.947L55.8687 22.0226L55.9432 22.1151L56.2773 22.151L56.4089 22.2737C56.4856 22.2337 56.5408 22.2074 56.5743 22.1949L57.1112 22.2526C57.1183 22.2614 57.1281 22.2825 57.1406 22.3161C57.1619 22.3425 57.1823 22.3769 57.2019 22.4192C57.2303 22.4544 57.2548 22.4892 57.2752 22.5236L57.2406 22.8458L57.1613 22.9097C57.1684 22.9185 57.1787 22.9357 57.192 22.9612C57.2054 22.9868 57.2156 23.004 57.2227 23.0128L57.1753 23.4543C57.1665 23.4614 57.1572 23.4724 57.1476 23.4875C57.1388 23.4946 57.126 23.5013 57.1092 23.5075C57.1004 23.5146 57.0916 23.5217 57.0828 23.5288C57.1183 23.5729 57.1427 23.6077 57.1561 23.6332C57.1464 23.6483 57.1284 23.6665 57.1019 23.6878C57.0843 23.702 57.0711 23.7126 57.0623 23.7197C57.0572 23.7675 57.0582 23.7957 57.0653 23.8045C57.1576 23.919 57.1588 24.0197 57.069 24.1067C57.0514 24.1209 57.0274 24.1947 56.997 24.3282L56.8648 24.4347L56.6023 24.4065C56.5137 24.3327 56.4248 24.299 56.3356 24.3055C56.2158 24.1478 56.0879 23.9892 55.9522 23.8298C55.9883 23.7935 56.0336 23.7461 56.0882 23.6875L56.1125 23.4608C56.1054 23.452 56.0912 23.4344 56.0699 23.408C56.0486 23.3816 56.0269 23.3591 56.0047 23.3407C55.9905 23.323 55.9728 23.301 55.9515 23.2746C55.9302 23.2482 55.9128 23.2222 55.8995 23.1966C55.97 23.1398 55.9918 23.0858 55.9652 23.0347C55.951 23.0171 55.9081 23.0044 55.8365 22.9967C55.7649 22.989 55.7201 22.9561 55.7023 22.8978L55.404 22.8658C55.3767 22.8951 55.3327 22.9306 55.2719 22.9723L55.2334 23.3303L55.5742 23.7531C55.6291 23.767 55.6746 23.792 55.711 23.8281C55.7482 23.8562 55.7837 23.9003 55.8175 23.9602C55.8601 24.0131 55.8925 24.0487 55.9146 24.0672C55.9871 24.0669 56.054 24.1184 56.1153 24.2215C56.1767 24.3246 56.2352 24.3792 56.2908 24.3852L56.6142 24.7458C56.6284 24.7634 56.6457 24.7894 56.6662 24.8237C56.6954 24.851 56.7167 24.8775 56.7301 24.903C56.7443 24.9206 56.7664 24.9391 56.7965 24.9584C56.8266 24.9778 56.8576 24.9891 56.8894 24.9925C56.9124 25.0031 56.9408 25.0383 56.9746 25.0982C57.0482 25.1625 57.0793 25.2101 57.0679 25.241C57.0628 25.2887 57.0891 25.3439 57.1467 25.4064C57.2123 25.4697 57.2382 25.5288 57.2242 25.5837C57.2225 25.5996 57.2319 25.6247 57.2523 25.6591C57.2728 25.6935 57.2866 25.7151 57.2937 25.7239L57.2783 25.8671C57.3138 25.9111 57.3382 25.9459 57.3515 25.9715L57.3054 26.401C57.2685 26.4453 57.2372 26.4741 57.2117 26.4875C57.2472 26.5315 57.2716 26.5663 57.2849 26.5919C57.2869 26.6484 57.2571 26.7016 57.1954 26.7513C57.1346 26.793 57.1038 26.8179 57.1029 26.8258C57.1032 26.8983 57.0651 26.9907 56.9887 27.1032C56.9122 27.2157 56.8692 27.2795 56.8595 27.2945C56.8368 27.3564 56.7994 27.4047 56.7474 27.4394C56.7042 27.4669 56.6447 27.4967 56.5688 27.5288C56.5009 27.5618 56.4498 27.5884 56.4154 27.6089L56.2484 27.591C56.2316 27.5972 56.21 27.611 56.1836 27.6323C56.166 27.6465 56.1527 27.6571 56.1439 27.6642L55.9769 27.6463C55.9593 27.6605 55.9377 27.6743 55.9121 27.6876C55.8945 27.7018 55.8813 27.7125 55.8725 27.7196L55.085 27.635L55.0211 27.5557C54.9972 27.5532 54.9614 27.5493 54.9137 27.5442C54.8748 27.532 54.8438 27.5206 54.8208 27.5101L54.7569 27.4308L53.9575 27.345L53.865 27.4195L53.698 27.4016C53.6307 27.3541 53.5636 27.2665 53.4969 27.1386C53.439 27.0037 53.3883 26.9138 53.3448 26.8689L53.4012 26.3439ZM63.7148 25.3995C63.6656 25.4828 63.6129 25.5616 63.5566 25.636L63.3901 27.1871C63.4034 27.2127 63.4261 27.2634 63.4582 27.3392C63.4911 27.4071 63.5174 27.4623 63.537 27.5046L63.5011 27.8387C63.5642 27.9259 63.6387 28.0184 63.7248 28.1161C63.6879 28.1604 63.661 28.1857 63.6442 28.192C63.6019 28.2116 63.542 28.2454 63.4644 28.2933C63.3956 28.3342 63.3445 28.3609 63.311 28.3734C63.2695 28.3851 63.2183 28.4118 63.1575 28.4535C63.0967 28.4952 63.0496 28.5224 63.016 28.5349C62.9331 28.5581 62.87 28.5835 62.8268 28.6111C62.7922 28.5591 62.7293 28.5081 62.6381 28.4581C62.554 28.4169 62.5009 28.387 62.4787 28.3685C62.4526 28.4623 62.4386 28.5171 62.4369 28.533C62.4281 28.5401 62.4149 28.5508 62.3973 28.565C62.3797 28.5792 62.3625 28.5894 62.3457 28.5956C62.3281 28.6098 62.3145 28.6245 62.3048 28.6395C62.2625 28.6591 62.2165 28.6381 62.1667 28.5764C62.1241 28.5236 62.0821 28.503 62.0406 28.5146C62.0239 28.5209 62.0026 28.4944 61.9767 28.4353C61.95 28.3842 61.9282 28.3255 61.9111 28.2593C61.8952 28.2576 61.8718 28.2511 61.8408 28.2397C61.8107 28.2204 61.7842 28.2055 61.7612 28.1949C61.8061 28.1515 61.8725 28.0943 61.9606 28.0233L61.9888 27.7608L61.9143 27.6683C61.9495 27.6399 61.9763 27.6146 61.9948 27.5925C61.9326 27.4973 61.9182 27.4072 61.9514 27.3223C61.9159 27.2782 61.8915 27.2434 61.8781 27.2179C61.8966 27.1957 61.9279 27.1669 61.9719 27.1314L62.0846 26.0814C62.0935 26.0743 62.1027 26.0632 62.1124 26.0482C62.13 26.034 62.1432 26.0233 62.152 26.0162C62.1696 26.002 62.1788 25.9909 62.1797 25.983L62.2912 24.945L62.3704 24.8811C62.4082 24.8288 62.4084 24.7524 62.3709 24.6518C62.3422 24.5441 62.3388 24.4633 62.3607 24.4093C62.2207 24.2897 62.1285 24.2114 62.0842 24.1745L61.8695 24.1514C61.851 24.1736 61.8145 24.2139 61.7599 24.2724C61.7142 24.3238 61.6781 24.3602 61.6517 24.3815L61.425 24.3571C61.4028 24.3387 61.3704 24.303 61.3278 24.2501C61.3199 24.2493 61.2409 24.273 61.0909 24.3213C61.0574 24.3337 61.0358 24.3475 61.0261 24.3626C60.9556 24.4194 60.9151 24.4593 60.9046 24.4823C60.8873 24.5689 60.8385 24.6482 60.7584 24.72C60.6669 24.8229 60.6638 24.9271 60.749 25.0328C60.7561 25.0416 60.7583 25.058 60.7558 25.0818C60.762 25.0986 60.7647 25.1109 60.7639 25.1189C60.7198 25.1544 60.6886 25.1832 60.6701 25.2054C60.6826 25.2389 60.6951 25.2724 60.7076 25.306C60.7201 25.3395 60.7361 25.3774 60.7557 25.4197C60.7753 25.4621 60.7917 25.496 60.8051 25.5216L60.7129 26.3807C60.766 26.4105 60.7878 26.4692 60.7784 26.5567C60.777 26.645 60.7949 26.7033 60.8321 26.7314L60.8269 27.117C60.826 27.125 60.8327 27.1378 60.8469 27.1554C60.8611 27.173 60.8718 27.1862 60.8789 27.195C60.8612 27.2092 60.834 27.2385 60.797 27.2828L60.7509 27.7123L60.6452 27.7975L60.626 27.9765C60.5916 27.997 60.5312 28.0347 60.4449 28.0898L60.2688 28.1554L60.1257 28.14C60.1089 28.1463 60.0877 28.1561 60.0622 28.1694C60.0437 28.1916 60.0301 28.2062 60.0213 28.2133L59.7588 28.1851C59.734 28.1905 59.7147 28.2206 59.7008 28.2754C59.686 28.3382 59.6512 28.3627 59.5964 28.3487C59.5646 28.3453 59.5273 28.3172 59.4847 28.2643C59.4421 28.2115 59.3978 28.1745 59.3518 28.1535L59.2325 28.1407C59.2237 28.1478 59.2065 28.158 59.1809 28.1714C59.1633 28.1856 59.1501 28.1962 59.1413 28.2033L59.0535 28.1215L58.8746 28.1022L58.7701 28.1755C58.7639 28.1588 58.7581 28.138 58.7527 28.1133C58.7473 28.0886 58.7454 28.0683 58.7472 28.0524L58.8422 27.9539C58.8147 27.9108 58.7654 27.8451 58.6944 27.757C58.7111 27.7508 58.7327 27.737 58.7592 27.7157C58.7944 27.6873 58.8208 27.666 58.8384 27.6518L58.922 27.6608C58.966 27.6253 59.0193 27.5787 59.0818 27.5211C59.1523 27.4642 59.2007 27.4252 59.2271 27.4039C59.2658 27.3437 59.3132 27.2764 59.3695 27.2019C59.3207 27.1323 59.3062 27.0423 59.3261 26.9318L59.3922 26.8785L59.2704 26.5516L59.3242 26.0505C59.3682 26.015 59.3995 25.9862 59.4179 25.964L59.4359 25.797L59.5284 25.7224C59.5301 25.7065 59.5331 25.6787 59.5373 25.6389C59.5495 25.6 59.5569 25.5686 59.5595 25.5448C59.6141 25.4862 59.6602 25.4309 59.698 25.3786L59.4748 25.2098C59.5012 25.1885 59.5237 25.1668 59.5421 25.1446C59.5686 25.1233 59.5862 25.1091 59.595 25.102L59.6039 25.0185C59.5747 24.9912 59.5515 24.9445 59.5345 24.8783C59.5263 24.805 59.4992 24.7578 59.4532 24.7368L59.5018 24.2834L59.4379 24.2041L59.5161 23.4763L59.5954 23.4124L59.6722 22.6965L59.6509 22.6701C59.6376 22.6445 59.6238 22.6229 59.6096 22.6053L59.6288 22.4263C59.5419 22.3365 59.4834 22.282 59.4533 22.2627L59.4764 22.0479C59.4153 22.0172 59.3477 21.8973 59.2736 21.6882C59.2744 21.6802 59.2678 21.6675 59.2536 21.6498C59.2482 21.6251 59.2419 21.6084 59.2348 21.5995C59.2357 21.5916 59.229 21.5788 59.2148 21.5612C59.2094 21.5365 59.2028 21.5237 59.1948 21.5228C59.1957 21.5149 59.189 21.5021 59.1748 21.4845C59.1685 21.4677 59.1575 21.4585 59.1415 21.4568C59.1344 21.448 59.1194 21.4383 59.0964 21.4278C59.0813 21.4181 59.0658 21.4124 59.0499 21.4107C59.042 21.4099 59.0061 21.3698 58.9422 21.2905L58.9908 20.8371C59.0269 20.8008 59.0953 20.7639 59.1958 20.7264C59.3052 20.6818 59.3788 20.6334 59.4166 20.5811L59.5956 20.6003C59.6854 20.5134 59.7823 20.4353 59.8862 20.366L60.4232 20.4237C60.4328 20.4086 60.4557 20.3829 60.4918 20.3466C60.5287 20.3023 60.552 20.2726 60.5617 20.2575L60.7884 20.2819L60.8629 20.3744L60.9422 20.3105C60.9644 20.3289 61.002 20.3531 61.0551 20.3829C61.1091 20.4048 61.1436 20.4206 61.1587 20.4303C61.157 20.4462 61.1606 20.4868 61.1697 20.5521L61.223 20.6182L61.2336 20.6314C61.2328 20.6394 61.2319 20.6473 61.2311 20.6553L61.1952 20.9893C61.1864 20.9964 61.1732 21.0071 61.1555 21.0213C61.1379 21.0355 61.1287 21.0466 61.1278 21.0545C61.0806 21.1943 61.0338 21.2939 60.9871 21.3532L60.9526 21.6754C60.9588 21.6921 60.9655 21.7049 60.9726 21.7137C60.9876 21.7234 60.9987 21.7326 61.0058 21.7414C61.0129 21.7502 61.02 21.759 61.0271 21.7679L60.9951 22.0661C61.0598 22.1375 61.1401 22.2145 61.2358 22.2972C61.2213 22.4324 61.2176 22.5044 61.2247 22.5132C61.2318 22.522 61.2665 22.6102 61.329 22.7779C61.4003 22.9384 61.4767 23.0512 61.5582 23.1163C61.5661 23.1171 61.5816 23.1228 61.6046 23.1333C61.6285 23.1359 61.6484 23.138 61.6643 23.1397C61.6802 23.1414 61.6965 23.1392 61.7133 23.1329C61.738 23.1275 61.7592 23.1177 61.7768 23.1035C61.7856 23.0964 61.843 23.0865 61.949 23.0737C61.9657 23.0675 61.9948 23.0585 62.0363 23.0469C62.0787 23.0273 62.1122 23.0148 62.1369 23.0094L62.4471 23.0427C62.4676 23.0771 62.5159 23.1145 62.592 23.1548C62.6681 23.1952 62.7155 23.2405 62.7343 23.2908C62.8343 23.3337 62.926 23.416 63.0095 23.5376L63.1765 23.5555C63.2873 23.6479 63.3332 23.7453 63.3141 23.8479L63.4334 23.8607L63.5506 24.006C63.5384 24.045 63.5337 24.0887 63.5365 24.1373C63.5481 24.1788 63.5629 24.2286 63.5808 24.2869C63.6066 24.346 63.6227 24.3839 63.6289 24.4007C63.6914 24.5683 63.7408 24.6701 63.7771 24.7062C63.7993 24.7247 63.8251 24.7838 63.8546 24.8835L63.9501 24.8938C63.9785 24.929 64.0136 24.977 64.0553 25.0378C64.105 25.0995 64.1405 25.1435 64.1618 25.17C64.1416 25.208 64.1139 25.2412 64.0787 25.2696C64.0514 25.2989 64.0162 25.3273 63.973 25.3549C63.9378 25.3833 63.9113 25.4046 63.8937 25.4188L63.7148 25.3995ZM65.3515 25.7925L65.2769 25.7L65.3141 25.354C65.3237 25.339 65.3374 25.3243 65.355 25.3101C65.3806 25.2968 65.3982 25.2826 65.4078 25.2675L65.4168 25.184L65.8 24.8752C65.8088 24.8681 65.814 24.8565 65.8157 24.8406C65.8183 24.8168 65.82 24.8009 65.8209 24.7929C65.8552 24.7725 65.8878 24.7317 65.9185 24.6706C65.95 24.6016 65.987 24.5573 66.0293 24.5377L66.0575 24.2752C66.1544 24.1971 66.2311 24.1571 66.2876 24.1551C66.2956 24.156 66.3212 24.1426 66.3643 24.1151C66.4075 24.0875 66.4446 24.0794 66.4756 24.0908C66.4949 24.0607 66.5332 24.0407 66.5906 24.0307C66.6489 24.0129 66.6864 24.0008 66.7031 23.9945C66.7287 23.9812 66.7622 23.9687 66.8037 23.9571C66.8461 23.9375 66.8756 23.9246 66.8924 23.9183L66.9013 23.8348C66.9533 23.8001 67.0215 23.727 67.1059 23.6154C67.1991 23.4966 67.2837 23.4212 67.3595 23.3892C67.4047 23.4181 67.442 23.4825 67.4716 23.5822C67.5019 23.674 67.5437 23.7348 67.5968 23.7646L67.9428 23.8018C67.9604 23.7876 67.9741 23.773 67.9837 23.7579C68.0013 23.7437 68.0146 23.7331 68.0234 23.726L68.2023 23.7452C68.2464 23.7097 68.2812 23.6852 68.3068 23.6719L68.4738 23.6898C68.4888 23.6995 68.5106 23.7219 68.539 23.7572C68.7591 23.805 68.9283 23.9156 69.0464 24.0893C69.1109 24.0881 69.1843 24.1161 69.2667 24.1732C69.3579 24.2233 69.411 24.2531 69.4261 24.2628C69.4448 24.3131 69.4918 24.3624 69.5671 24.4107C69.6503 24.4598 69.699 24.4932 69.7132 24.5108C69.7496 24.5469 69.801 24.5927 69.8675 24.6481C69.9339 24.7035 69.9743 24.74 69.9885 24.7576L70.2121 25.0351C70.2612 25.1772 70.292 25.2649 70.3045 25.2985L70.2891 25.4417L70.3743 25.5474L70.3282 25.9769L70.4028 26.0694C70.3675 26.0978 70.3403 26.127 70.3209 26.1571L70.2108 27.1832L70.1025 27.2923C70.1008 27.3082 70.0934 27.3396 70.0803 27.3865C70.0761 27.4262 70.0726 27.4581 70.0701 27.4819C70.0533 27.4882 70.0361 27.4984 70.0185 27.5126C70.0088 27.5276 69.9956 27.5383 69.9789 27.5445L69.952 27.7951C69.9423 27.8102 69.9243 27.8283 69.8978 27.8496C69.8802 27.8638 69.8662 27.8824 69.8556 27.9055C69.846 27.9205 69.8434 27.9444 69.8479 27.977C69.7167 28.0756 69.5233 28.2278 69.2679 28.4337L69.2576 28.5292C69.24 28.5434 69.2092 28.5682 69.1651 28.6037C69.1299 28.6321 69.0987 28.661 69.0714 28.6902C69.052 28.7203 69.0403 28.7553 69.036 28.795L68.9699 28.8483C68.9611 28.8554 68.9479 28.866 68.9303 28.8802L68.9039 28.9015C68.8419 28.8788 68.7753 28.8998 68.704 28.9646C68.6415 29.0222 68.5939 29.0533 68.5612 29.0578C68.5206 29.0615 68.353 29.124 68.0583 29.2452L67.9838 29.1527L67.8048 29.1335L67.7123 29.2081C67.6796 29.2126 67.6196 29.2102 67.5321 29.2008C67.5145 29.215 67.4929 29.2288 67.4673 29.2421C67.4497 29.2563 67.4365 29.267 67.4276 29.2741L66.7237 29.1985L66.6598 29.1192C66.6112 29.122 66.5418 29.0945 66.4514 29.0365C66.3603 28.9865 66.2864 28.9624 66.2299 28.9644C66.2069 28.9539 66.174 28.9222 66.1314 28.8694C66.0968 28.8174 66.06 28.7853 66.0211 28.773C65.9583 28.7583 65.8967 28.6953 65.8362 28.5842C65.8237 28.5507 65.7865 28.5226 65.7246 28.4998C65.6715 28.47 65.6347 28.4379 65.6142 28.4035L65.6245 28.308C65.5722 28.2702 65.5248 28.2249 65.4822 28.1721C65.4484 28.1121 65.4217 28.061 65.4021 28.0186C65.3825 27.9763 65.3531 27.9128 65.3139 27.8281C65.2836 27.7364 65.2621 27.6737 65.2496 27.6402L65.2663 27.4851L65.2011 27.4178C65.1878 27.3922 65.1849 27.3436 65.1926 27.272C65.2091 27.1933 65.2147 27.1416 65.2093 27.1169L65.1454 27.0376L65.1838 26.6797C65.1483 26.6356 65.1195 26.6044 65.0973 26.5859L65.1537 26.0609C65.2671 25.9041 65.333 25.8147 65.3515 25.7925ZM67.1959 25.363C67.1359 25.3968 67.0976 25.4168 67.0808 25.423C67.0649 25.4213 67.0423 25.4068 67.0131 25.3795C66.9926 25.3452 66.9749 25.3231 66.9598 25.3135L66.8277 25.42C66.8348 25.4288 66.845 25.446 66.8583 25.4716C66.8796 25.498 66.8934 25.5196 66.8997 25.5363C66.8963 25.5682 66.8708 25.6177 66.8234 25.685C66.7759 25.7524 66.7576 25.8107 66.7683 25.8602L66.6865 25.9479L66.6391 26.3894C66.6843 26.4184 66.7022 26.4766 66.6928 26.5641C66.6913 26.6525 66.7132 26.7111 66.7583 26.7401C66.7595 26.8046 66.7505 26.8881 66.7314 26.9907C66.7212 27.0861 66.7215 27.1586 66.7322 27.208L66.7961 27.2873L66.7744 27.4901C66.8576 27.5393 66.9388 27.6446 67.018 27.8059C67.0973 27.9673 67.144 28.0568 67.1582 28.0744C67.1556 28.0983 67.1522 28.1301 67.1479 28.1699C67.1525 28.2026 67.1543 28.2229 67.1535 28.2308C67.1907 28.259 67.2172 28.2739 67.2331 28.2756C67.257 28.2782 67.2821 28.2688 67.3086 28.2475C67.3429 28.227 67.3681 28.2177 67.384 28.2194C67.463 28.3083 67.5369 28.3686 67.606 28.4001C67.6571 28.3734 67.6919 28.349 67.7104 28.3268L68.0683 28.3653C68.078 28.3502 68.096 28.332 68.1225 28.3107C68.1568 28.2903 68.1793 28.2686 68.1898 28.2456C68.2083 28.2234 68.2192 28.1964 68.2226 28.1646C68.2403 28.1504 68.2688 28.1092 68.3083 28.041C68.3558 27.9737 68.4157 27.9399 68.4882 27.9397C68.5041 27.9414 68.5252 27.9316 68.5517 27.9103C68.5869 27.8819 68.6058 27.8557 68.6084 27.8319C68.6118 27.8001 68.6276 27.7655 68.6557 27.7283C68.6918 27.692 68.7142 27.6703 68.723 27.6632C68.7256 27.6393 68.7286 27.6114 68.732 27.5796C68.7363 27.5399 68.7432 27.5124 68.7529 27.4974C68.8163 27.4318 68.847 27.3707 68.845 27.3142C68.8467 27.2983 68.8444 27.2819 68.8382 27.2652C68.8399 27.2493 68.8412 27.2373 68.842 27.2294L68.7794 27.1382C68.797 27.124 68.8142 27.1137 68.831 27.1075C68.8486 27.0933 68.8618 27.0826 68.8706 27.0755C68.8573 27.05 68.8328 27.0152 68.7973 26.9711L68.8255 26.7086C68.8696 26.6731 68.9008 26.6443 68.9193 26.6222C68.9324 26.5753 68.9141 26.521 68.8644 26.4594L68.8456 26.4091L68.8994 25.908L68.8249 25.8155L68.8633 25.4575L68.7994 25.3782C68.8011 25.3623 68.7993 25.342 68.7939 25.3173C68.7973 25.2855 68.7959 25.2612 68.7896 25.2444C68.7913 25.2285 68.7926 25.2166 68.7935 25.2086L68.2716 24.5612C68.2389 24.5658 68.1969 24.5452 68.1455 24.4994C68.1029 24.4466 68.0608 24.426 68.0194 24.4376C67.8287 24.4895 67.7096 24.5129 67.6618 24.5078L67.4901 24.6463L67.3946 24.636C67.2801 24.7283 67.2136 24.7856 67.1951 24.8077C67.1775 24.8219 67.1538 24.8556 67.124 24.9087C67.1021 24.9627 67.0744 24.9959 67.0408 25.0084L67.0139 25.2589C67.06 25.28 67.1206 25.3147 67.1959 25.363ZM78.1572 24.6813L78.7418 24.7441C78.7569 24.7537 78.7711 24.7713 78.7844 24.7969C78.8066 24.8154 78.8212 24.829 78.8283 24.8378L78.9953 24.8558L79.0997 24.7825L79.1636 24.8618L79.45 24.8925C79.4491 24.9005 79.4625 24.926 79.49 24.9692C79.5184 25.0045 79.5393 25.0349 79.5527 25.0604C79.5538 25.1249 79.4964 25.2475 79.3804 25.4281C79.3619 25.4503 79.3267 25.4787 79.2747 25.5133C79.2307 25.5489 79.1994 25.5777 79.181 25.5998C79.1633 25.614 79.1396 25.6477 79.1098 25.7008C79.0879 25.7548 79.0641 25.7884 79.0386 25.8018L79.1131 25.8943C79.1063 25.9579 79.0972 26.0052 79.0858 26.0362C79.0841 26.0521 79.07 26.0707 79.0436 26.092C79.026 26.1062 79.0163 26.1212 79.0146 26.1371C79.0138 26.1451 79.0077 26.1646 78.9963 26.1955C78.9858 26.2185 78.9797 26.238 78.978 26.2539C78.9737 26.2937 78.9667 26.3211 78.9571 26.3361L78.8752 26.4239C78.8664 26.431 78.8563 26.45 78.845 26.481C78.8344 26.504 78.8244 26.523 78.8147 26.5381L78.709 26.6233C78.605 26.6926 78.4993 26.7778 78.3919 26.8789L78.3586 27.1891L78.174 27.4469C78.1643 27.4619 78.1494 27.4885 78.1292 27.5266C78.1091 27.5646 78.0897 27.5947 78.0713 27.6169C78.0528 27.639 78.0268 27.6564 77.9933 27.6689C77.9598 27.6814 77.932 27.7146 77.9102 27.7686C77.8962 27.8234 77.876 27.8614 77.8496 27.8827C77.788 27.9325 77.7445 28.0002 77.7192 28.086C77.7149 28.1258 77.6974 28.1762 77.6667 28.2372C77.636 28.2983 77.6159 28.3364 77.6062 28.3514C77.5957 28.3744 77.5853 28.4337 77.575 28.5291C77.4275 28.7788 77.2862 29.009 77.1509 29.2198C77.0102 29.4058 76.9223 29.5131 76.887 29.5415C76.8518 29.5699 76.8096 29.6257 76.7604 29.7089C76.7201 29.785 76.6951 29.8306 76.6854 29.8457C76.674 29.8766 76.6428 29.9055 76.5916 29.9322C76.5749 29.9384 76.5466 29.9394 76.5068 29.9351C76.4651 29.8743 76.428 29.7698 76.3957 29.6215C76.3642 29.4652 76.3276 29.3567 76.2858 29.2959C76.277 29.303 76.2642 29.3096 76.2475 29.3159C76.2387 29.323 76.2294 29.3341 76.2198 29.3491C76.2109 29.3562 76.2021 29.3633 76.1933 29.3704C76.1448 29.3733 76.1027 29.3527 76.0672 29.3086C76.0326 29.2566 76.0077 29.2258 75.9927 29.2161L76.0221 28.9417C76 28.9232 75.9822 28.9012 75.9689 28.8756C75.9555 28.8501 75.9457 28.8289 75.9395 28.8121C75.942 28.7883 75.945 28.7604 75.9485 28.7286C75.9527 28.6888 75.9517 28.6606 75.9455 28.6438C75.9375 28.643 75.8946 28.6303 75.8168 28.6059C75.8035 28.5803 75.7719 28.5367 75.7222 28.475C75.7172 28.2975 75.6591 28.1263 75.5481 27.9615L75.381 27.9436C75.2523 28.0182 75.1912 28.1002 75.1977 28.1894L74.9949 28.1676L74.6514 28.4445L74.6322 28.6235C74.4063 28.7038 74.286 28.7754 74.2712 28.8382C74.2484 28.9001 74.193 28.9666 74.1049 29.0376C74.0168 29.1086 73.9636 29.1552 73.9451 29.1773L73.9272 29.3443C73.8928 29.3648 73.8514 29.4127 73.8031 29.4879C73.7628 29.5641 73.7174 29.6115 73.6672 29.6302L73.3211 29.5931C73.2359 29.4874 73.1725 29.4041 73.1307 29.3433L73.1461 29.2001C73.0936 29.0899 73.045 28.9801 73.0004 28.8707L73.0286 28.6082L72.9682 28.3845C72.9804 28.3456 72.9731 28.3005 72.9465 28.2494C72.9206 28.1903 72.9046 28.1524 72.8983 28.1356C72.8938 28.1029 72.8945 28.0588 72.9005 28.0031C72.9065 27.9474 72.9068 27.9072 72.9014 27.8825C72.9022 27.8745 72.8849 27.8485 72.8494 27.8045L72.8955 27.375L72.8103 27.2693L72.8295 27.0903C72.794 27.0462 72.7696 27.0114 72.7563 26.9859L72.7742 26.8188L72.689 26.7131L72.7044 26.5699C72.699 26.5452 72.6829 26.5073 72.6562 26.4562C72.6375 26.4059 72.6254 26.3684 72.62 26.3436C72.6218 26.3277 72.6115 26.3106 72.5894 26.2921C72.576 26.2665 72.5583 26.2445 72.5361 26.226C72.5148 26.1996 72.5011 26.178 72.4948 26.1612L72.5217 25.9107C72.4925 25.8834 72.4591 25.8195 72.4216 25.7189C72.3921 25.6192 72.3503 25.5584 72.2964 25.5365C72.2901 25.5197 72.29 25.4835 72.296 25.4278C72.3028 25.3642 72.2956 25.3192 72.2743 25.2927C72.2601 25.2751 72.2432 25.2451 72.2236 25.2028C72.2128 25.1534 72.2043 25.1203 72.198 25.1035C72.1696 25.0683 72.1593 25.0149 72.167 24.9433C72.1695 24.9194 72.1677 24.8991 72.1614 24.8823C72.1552 24.8656 72.1445 24.8524 72.1295 24.8427C72.1232 24.8259 72.113 24.8087 72.0988 24.7911C72.0846 24.7735 72.0744 24.7563 72.0681 24.7396C72.0187 24.7503 71.9484 24.7307 71.8572 24.6807C71.7669 24.6227 71.6891 24.5983 71.6237 24.6074L71.5475 24.4181L71.64 24.3436C71.6806 24.3399 71.7256 24.3327 71.7751 24.3219L71.8339 24.111C71.8515 24.0968 71.8643 24.0901 71.8723 24.0909L71.92 24.0961L72.7433 24.1845C72.7785 24.1561 72.8053 24.1308 72.8238 24.1086C72.8389 24.1183 72.861 24.1368 72.8903 24.164C72.9195 24.1913 72.9417 24.2098 72.9567 24.2195C73.0255 24.1786 73.0762 24.1558 73.1089 24.1513C73.1239 24.161 73.1492 24.1878 73.1847 24.2319L73.7932 24.2972C73.9182 24.4072 74.0094 24.5698 74.0667 24.7852L73.9571 24.9062L73.9302 25.1567L73.8365 25.2432L73.8083 25.5057L73.8722 25.585C73.8617 25.608 73.8344 25.6373 73.7904 25.6728L73.7161 26.3648L73.8323 26.6307C73.8735 26.7719 73.9202 26.8614 73.9725 26.8992L74.2588 26.93C74.2764 26.9158 74.3033 26.8905 74.3394 26.8541C74.3834 26.8186 74.4147 26.7898 74.4331 26.7676C74.5317 26.6736 74.5828 26.6107 74.5862 26.5789C74.5887 26.555 74.5988 26.536 74.6164 26.5218C74.6429 26.5005 74.6693 26.4792 74.6957 26.4579C74.7309 26.4295 74.7574 26.4082 74.775 26.394L74.7929 26.227C74.8282 26.1986 74.8586 26.1777 74.8841 26.1643L74.9226 25.8064C74.9021 25.772 74.8634 25.6834 74.8063 25.5405C74.7572 25.3984 74.6998 25.2957 74.6342 25.2323L74.6444 25.1369C74.6373 25.1281 74.6143 25.1176 74.5754 25.1053C74.5445 25.094 74.5219 25.0795 74.5077 25.0618C74.4855 25.0434 74.4247 24.9725 74.3253 24.8492L74.3548 24.5747C74.375 24.5367 74.4226 24.5056 74.4976 24.4815C74.5805 24.4582 74.6401 24.4284 74.6762 24.392L75.3801 24.4676L75.4726 24.393L76.1646 24.4673C76.2334 24.4264 76.2889 24.3962 76.3313 24.3766L76.4642 24.4874L76.6789 24.5105L76.9154 24.6686C76.9146 24.6766 76.9111 24.7084 76.9052 24.7641C76.9 24.8118 76.9002 24.848 76.9056 24.8728C76.9189 24.8983 76.9446 24.9212 76.9827 24.9414L76.9442 25.2993C76.8562 25.3703 76.7897 25.4276 76.7448 25.471L76.7268 25.6381L76.6331 25.7245C76.6297 25.7564 76.644 25.8102 76.6761 25.8861C76.709 25.954 76.711 26.0105 76.682 26.0557C76.7033 26.0821 76.7189 26.124 76.7289 26.1814C76.7476 26.2317 76.7641 26.2656 76.7783 26.2832C76.8121 26.3432 76.9071 26.47 77.0633 26.6638C77.0635 26.7363 77.0992 26.8165 77.1702 26.9046C77.25 26.9856 77.2966 27.0389 77.3099 27.0645C77.3338 27.067 77.3545 27.0612 77.3721 27.047C77.3977 27.0336 77.4193 27.0199 77.4369 27.0057C77.4554 26.9835 77.469 26.9689 77.4778 26.9618C77.4892 26.9308 77.4922 26.903 77.4868 26.8783C77.4822 26.8456 77.4852 26.8178 77.4958 26.7948C77.5151 26.7646 77.5455 26.7438 77.587 26.7321L77.6536 26.1117C77.6624 26.1046 77.6756 26.0939 77.6932 26.0797C77.7196 26.0584 77.7377 26.0403 77.7473 26.0252C77.7491 26.0093 77.752 25.9815 77.7563 25.9417C77.7606 25.9019 77.7675 25.8745 77.7772 25.8595C77.7781 25.8515 77.8102 25.8147 77.8735 25.7491L77.9094 25.415C77.8961 25.3895 77.8716 25.3547 77.8361 25.3106L77.8541 25.1436L77.7808 25.0392C77.77 24.9897 77.7955 24.9401 77.8571 24.8904C77.8659 24.8833 77.8712 24.8718 77.8729 24.8559C77.8826 24.8409 77.8882 24.8254 77.8899 24.8095C77.8996 24.7944 77.9049 24.7829 77.9057 24.775L78.1572 24.6813ZM80.0488 29.2051C80.0417 29.1963 80.0307 29.187 80.0156 29.1774C80.0085 29.1686 79.9978 29.1554 79.9836 29.1377C79.9774 29.121 79.9707 29.1082 79.9636 29.0994C79.9804 29.0931 80.0108 29.0723 80.0548 29.0368C80.0574 29.0129 80.0621 28.9692 80.0689 28.9055C80.0837 28.8427 80.0932 28.7915 80.0975 28.7517L80.271 28.71L80.3107 28.3401L80.5736 28.139C80.5887 28.1487 80.6113 28.1632 80.6414 28.1825C80.6803 28.1947 80.7113 28.2061 80.7343 28.2166C80.7573 28.2271 80.7759 28.2412 80.7901 28.2588C80.8264 28.2949 80.873 28.3482 80.9298 28.4187C80.9946 28.49 81.0451 28.5437 81.0815 28.5798C81.082 28.7246 81.0863 28.7975 81.0942 28.7984C81.1164 28.8168 81.1324 28.8548 81.1424 28.9122C81.1523 28.9695 81.1683 29.0075 81.1905 29.0259C81.2615 29.114 81.2953 29.174 81.2919 29.2058C81.2955 29.2464 81.3147 29.2927 81.3494 29.3447C81.3928 29.3896 81.4181 29.4165 81.4252 29.4253L81.4997 29.5178L81.7588 29.6904L82.1287 29.7301L82.4854 29.4426C82.4675 29.3843 82.4143 29.3183 82.3256 29.2444C82.2663 29.1978 82.2072 29.111 82.1484 28.984C82.0905 28.849 82.0358 28.7587 81.9844 28.7129C81.9825 28.6564 81.9677 28.6065 81.9402 28.5633C81.9126 28.5202 81.8771 28.4761 81.8336 28.4312C81.791 28.3784 81.7591 28.3387 81.7378 28.3123C81.7236 28.2947 81.6895 28.2749 81.6355 28.253C81.5816 28.2312 81.5483 28.2035 81.5358 28.1699C81.5023 28.1824 81.4603 28.1618 81.4097 28.1081C81.3671 28.0553 81.3251 28.0347 81.2836 28.0463L81.0599 27.7688C80.9662 27.7427 80.8915 27.7266 80.8358 27.7206C80.8384 27.6968 80.8378 27.6645 80.8341 27.6239C80.8384 27.5841 80.8414 27.5563 80.8431 27.5404L80.8337 27.5152C80.8275 27.4985 80.8208 27.4857 80.8137 27.4769C80.7924 27.4504 80.7565 27.4104 80.7059 27.3567C80.6642 27.2959 80.6295 27.2439 80.602 27.2007C80.5753 27.1495 80.557 27.0953 80.547 27.0379L80.5752 26.7754L80.49 26.6697L80.5182 26.4072C80.512 26.3904 80.4978 26.3728 80.4756 26.3544C80.4614 26.3367 80.4512 26.3196 80.4449 26.3028L80.5013 25.7778C80.5453 25.7423 80.5766 25.7135 80.5951 25.6913C80.5772 25.6331 80.6201 25.5331 80.7238 25.3914C80.7633 25.3232 80.8483 25.2438 80.9787 25.1532C80.9955 25.147 81.0175 25.1292 81.0448 25.1C81.08 25.0716 81.1104 25.0507 81.136 25.0373C81.1704 25.0169 81.2039 25.0044 81.2366 24.9999C81.2772 24.9962 81.3826 24.9512 81.5528 24.8648L81.7079 24.8815C81.7247 24.8753 81.7418 24.865 81.7595 24.8508C81.7859 24.8295 81.8035 24.8153 81.8123 24.8082L82.5163 24.8838L82.5908 24.9763L82.9249 25.0122L83.0565 25.1349C83.1333 25.0949 83.1884 25.0686 83.2219 25.0561L83.7588 25.1138C83.7659 25.1226 83.7757 25.1438 83.7882 25.1773C83.8095 25.2037 83.83 25.2381 83.8495 25.2804C83.8779 25.3157 83.9024 25.3505 83.9228 25.3848L83.8882 25.707L83.809 25.7709C83.8161 25.7797 83.8263 25.7969 83.8396 25.8225C83.853 25.848 83.8632 25.8652 83.8703 25.874L83.8229 26.3155C83.8141 26.3226 83.8048 26.3337 83.7952 26.3487C83.7864 26.3558 83.7736 26.3625 83.7568 26.3687C83.748 26.3758 83.7392 26.3829 83.7304 26.39C83.7659 26.4341 83.7903 26.4689 83.8037 26.4945C83.794 26.5095 83.776 26.5277 83.7495 26.549C83.7319 26.5632 83.7187 26.5738 83.7099 26.5809C83.7048 26.6287 83.7058 26.6569 83.7129 26.6657C83.8052 26.7803 83.8064 26.881 83.7166 26.9679C83.699 26.9821 83.675 27.0559 83.6446 27.1894L83.5124 27.296L83.25 27.2678C83.1613 27.1939 83.0724 27.1602 82.9832 27.1667C82.8634 27.009 82.7356 26.8505 82.5998 26.6911C82.6359 26.6547 82.6812 26.6073 82.7358 26.5488L82.7601 26.3221C82.753 26.3133 82.7388 26.2956 82.7175 26.2692C82.6962 26.2428 82.6745 26.2203 82.6523 26.2019C82.6381 26.1843 82.6204 26.1622 82.5991 26.1358C82.5778 26.1094 82.5605 26.0834 82.5471 26.0578C82.6176 26.001 82.6395 25.947 82.6128 25.8959C82.5986 25.8783 82.5557 25.8656 82.4841 25.8579C82.4125 25.8503 82.3678 25.8173 82.3499 25.7591L82.0516 25.727C82.0243 25.7563 81.9803 25.7918 81.9195 25.8335L81.881 26.1915L82.2218 26.6143C82.2767 26.6282 82.3223 26.6532 82.3586 26.6893C82.3958 26.7174 82.4313 26.7615 82.4651 26.8214C82.5077 26.8743 82.5401 26.9099 82.5622 26.9284C82.6347 26.9281 82.7016 26.9796 82.7629 27.0827C82.8243 27.1859 82.8828 27.2404 82.9385 27.2464L83.2618 27.607C83.276 27.6246 83.2933 27.6506 83.3138 27.685C83.343 27.7122 83.3643 27.7387 83.3777 27.7642C83.3919 27.7819 83.414 27.8003 83.4441 27.8197C83.4743 27.839 83.5052 27.8503 83.537 27.8538C83.56 27.8643 83.5884 27.8995 83.6222 27.9595C83.6958 28.0237 83.7269 28.0713 83.7155 28.1022C83.7104 28.15 83.7367 28.2051 83.7943 28.2676C83.8599 28.331 83.8858 28.3901 83.8718 28.4449C83.8701 28.4608 83.8795 28.4859 83.8999 28.5203C83.9204 28.5547 83.9342 28.5763 83.9413 28.5851L83.9259 28.7283C83.9614 28.7723 83.9858 28.8071 83.9992 28.8327L83.953 29.2622C83.9161 29.3065 83.8848 29.3354 83.8593 29.3487C83.8948 29.3928 83.9192 29.4276 83.9325 29.4531C83.9345 29.5097 83.9047 29.5628 83.843 29.6125C83.7822 29.6542 83.7514 29.6791 83.7505 29.687C83.7508 29.7595 83.7127 29.8519 83.6363 29.9644C83.5598 30.0769 83.5168 30.1407 83.5071 30.1557C83.4844 30.2177 83.447 30.2659 83.395 30.3006C83.3518 30.3281 83.2923 30.3579 83.2164 30.39C83.1485 30.423 83.0974 30.4497 83.063 30.4701L82.896 30.4522C82.8792 30.4584 82.8576 30.4722 82.8312 30.4935C82.8136 30.5077 82.8004 30.5183 82.7915 30.5254L82.6245 30.5075C82.6069 30.5217 82.5853 30.5355 82.5597 30.5488C82.5421 30.563 82.5289 30.5737 82.5201 30.5808L81.7326 30.4962L81.6687 30.417C81.6448 30.4144 81.6091 30.4105 81.5613 30.4054C81.5224 30.3932 81.4914 30.3818 81.4684 30.3713L81.4045 30.292L80.6051 30.2062L80.5126 30.2808L80.3456 30.2628C80.2783 30.2154 80.2113 30.1277 80.1445 29.9999C80.0866 29.8649 80.0359 29.775 79.9925 29.7301L80.0488 29.2051Z" fill="#B22222"/>
<defs>
<clipPath id="clip0_27_8">
<rect width="10.0274" height="25.4542" fill="white" transform="translate(0 9.10449) rotate(-65.2237)"/>
</clipPath>
</defs>
</svg>
