<svg xmlns="http://www.w3.org/2000/svg" width="20" height="20" viewBox="0 0 20 20" fill="none">
  <path d="M10.4948 0C13.0956 0.089156 15.5107 0.9807 17.2755 3.29876C19.9692 6.865 21.0839 10.7879 18.6688 14.6216C14.9534 20.5059 9.93749 21.3975 4.27142 18.0987C0.370193 15.7806 -0.74445 10.6987 0.463073 6.77586C1.6706 2.58553 5.57183 0 10.4948 0ZM4.73585 13.1059C5.01451 13.6409 5.29316 14.0866 5.47893 14.6216C5.66471 15.0674 6.03626 15.2457 6.50069 15.2457C7.05801 15.2457 7.33667 15.0674 7.42955 14.6216C7.52244 14.0866 7.24378 13.9975 6.87223 13.9083C6.12914 13.73 5.47895 13.1951 4.73585 13.1059C4.17854 12.036 3.43543 11.0553 3.62121 9.718C3.99275 7.75657 4.3643 5.70597 4.64296 3.8337C5.38605 3.65539 5.75761 3.83371 6.12915 4.10118C7.1509 4.72527 8.17264 5.08188 9.47305 4.72526C9.93749 4.6361 10.4948 4.72526 11.0521 4.81442C12.0739 4.99273 12.9099 4.90356 13.7458 4.19032C14.7676 3.38791 15.232 3.6554 15.3249 4.99274C15.4178 6.24093 15.3249 7.48912 15.8822 8.73731C16.8111 10.6987 15.7893 13.1951 13.1885 13.9083C12.7241 13.9975 12.3525 14.1758 12.5383 14.7999C12.817 15.8698 12.6312 17.0288 13.1885 18.0987C16.6253 16.583 18.2973 14.5324 18.7617 11.3228C18.9475 9.98546 18.6688 8.55896 18.2973 7.31078C16.2538 0.267452 10.4948 -0.534936 5.10739 2.2289C2.97101 3.29877 1.67059 5.43853 1.11328 7.84575C0.648843 9.80718 1.20617 11.5903 1.6706 13.4626C2.3208 15.6023 3.80699 16.9396 5.85049 17.8312C6.12915 18.0095 6.59358 18.277 6.77935 17.742C6.96513 17.2963 6.77936 16.9396 6.12915 16.8505C5.20029 16.7613 4.27142 16.583 3.99276 15.6023C3.80699 14.7107 3.0639 14.0867 2.59946 13.4626C3.34256 13.0168 4.08565 13.3734 4.73585 13.1059Z" fill="#FFC100" fill-opacity="0.85"/>
</svg>