<svg xmlns="http://www.w3.org/2000/svg" width="414" height="2" viewBox="0 0 414 2" fill="none">
  <path d="M272.284 1.33319C270.64 1.33319 269.425 1.31619 268.212 1.34119C267.69 1.35219 267.103 1.15619 266.66 1.56819C266.617 1.60819 266.451 1.59819 266.367 1.56919C265.126 1.13519 263.819 1.37819 262.543 1.34219C261.228 1.31309 259.912 1.31276 258.597 1.34119C258.215 1.34719 257.83 1.26619 257.434 1.43419C257.032 1.60719 256.571 1.11619 256.043 1.52719C255.783 1.72719 254.962 1.71719 254.599 1.54119C254.302 1.39809 253.967 1.30945 253.621 1.28176C253.274 1.25408 252.924 1.28805 252.596 1.38119C251.856 1.59818 251.056 1.65648 250.278 1.55019C247.036 1.10319 243.778 1.44319 240.533 1.34419C240.065 1.33019 239.531 1.16419 239.11 1.52619C239.049 1.57919 238.831 1.56219 238.713 1.52319C237.506 1.12319 236.247 1.43519 235.017 1.33319C233.27 1.83819 231.458 1.48519 229.679 1.55019C229.203 1.56719 228.709 1.30219 228.23 1.15519C228.144 1.12819 228.016 1.03619 228.027 0.991192C228.034 0.963704 228.048 0.937734 228.069 0.915291C228.09 0.892848 228.117 0.874536 228.149 0.861773C228.18 0.84901 228.215 0.842139 228.25 0.841691C228.285 0.841243 228.32 0.847231 228.352 0.859192C229.02 1.11307 229.774 1.19054 230.502 1.08019C233.791 0.608192 237.1 0.925192 240.398 0.866192C243.734 0.806192 247.076 0.839192 250.414 0.863192C251.234 0.869192 252.06 0.724192 252.884 1.06819C253.39 1.27819 255.113 1.09819 255.762 0.829192C256.486 0.529192 257.133 0.529192 257.83 0.801192C257.936 0.843192 259.866 0.868192 259.99 0.877192C260.907 0.947192 261.872 0.596192 262.747 1.08019C262.848 1.13719 263.066 1.13219 263.19 1.08719C264.48 0.615192 265.84 0.917192 267.165 0.865192C268.477 0.813192 269.795 0.885192 271.111 0.843192C272.133 0.810192 273.185 1.04619 274.184 0.631192C274.386 0.547192 274.789 0.509192 275.021 0.724192C275.224 0.911192 275.497 0.794192 275.712 0.861192C276.353 1.05919 276.96 0.210192 277.598 0.835192C278.303 0.841192 279.008 0.849192 279.713 0.852192C280.422 0.856192 281.13 0.853192 281.838 0.853192H286.088C286.24 0.853192 286.427 0.899192 286.537 0.845192C286.973 0.633192 287.379 0.800192 287.81 0.810192C288.77 0.833192 289.802 1.10319 290.719 0.613192C291.893 0.736192 293.111 0.363192 294.26 0.806192C294.343 0.838192 294.469 0.875192 294.535 0.848192C295.367 0.501192 296.187 0.919192 297.02 0.866192C297.924 0.809192 298.845 0.900192 299.749 0.839192C300.568 0.785192 301.452 1.10919 302.206 0.615192C303.01 1.13019 303.946 0.808192 304.811 0.829192C305.572 0.848192 306.412 1.08919 307.113 0.613192C307.788 1.04519 308.457 0.519192 309.14 0.604192C309.805 0.688192 310.505 0.497192 311.151 0.836192C311.364 0.946192 311.746 0.853192 312.049 0.853192C324.291 0.853192 336.533 0.853192 348.775 0.855192C349.286 0.855192 349.88 0.652192 350.254 0.748192C350.817 0.892192 351.336 0.780192 351.863 0.851192C353.16 1.02419 354.399 0.601192 355.683 0.611192C356.998 0.621192 358.32 0.679192 359.626 0.591192C360.64 0.524192 361.538 0.924192 362.539 0.865192C363.495 0.809192 364.461 0.883192 365.421 0.842192C365.992 0.817192 366.629 1.05219 367.131 0.640192C367.581 0.979192 368.143 0.832192 368.661 0.849192C369.267 0.869192 369.876 0.853192 370.483 0.853192C371.039 0.853192 371.597 0.878192 372.151 0.846192C372.623 0.818192 373.083 0.942192 373.569 0.639192C374.021 0.357192 374.537 0.849192 375.079 0.902192C375.606 0.954192 375.913 0.324192 376.416 0.731192C376.717 0.973192 377.091 0.863192 377.415 0.841192C378.036 0.796192 378.722 1.07119 379.275 0.638192C379.827 1.02919 380.496 0.813192 381.11 0.845192C381.765 0.880192 382.426 0.875192 383.083 0.845192C383.554 0.824192 384.044 0.975192 384.502 0.636192C384.691 0.496192 385.231 0.526192 385.529 0.628192C386.933 1.10819 388.391 0.732192 389.813 0.848192C389.998 0.864192 390.184 0.876192 390.372 0.756192C390.754 0.515192 391.207 0.528192 391.591 0.739192C391.971 0.949192 392.411 0.908192 392.738 0.829192C393.393 0.673192 393.997 0.441192 394.622 0.853192C395.507 0.400192 396.562 1.24419 397.443 0.624192C397.557 0.544192 397.835 0.614192 398.038 0.614192C398.695 0.614192 399.355 0.636192 400.011 0.610192C404.378 0.435192 408.725 0.930192 413.088 0.856192C413.282 0.852192 413.5 0.849192 413.662 0.915192C413.814 0.976192 413.996 1.12819 414 1.24319C414.004 1.37319 413.758 1.33219 413.615 1.33219C411.642 1.33419 409.624 1.12919 407.709 1.39419C406.002 1.63019 404.336 1.43719 402.663 1.57419C400.453 1.05619 398.16 1.22619 395.967 1.39819C393.667 1.57819 391.389 1.51619 389.103 1.56319C386.776 1.61019 384.449 1.55019 382.122 1.58519C381.228 1.59819 380.429 1.23019 379.513 1.31619C378.666 1.39619 377.794 1.30619 376.937 1.34319C376.416 1.36619 375.833 1.15319 375.372 1.54719C375.319 1.59219 375.053 1.56219 374.981 1.50019C374.647 1.20719 374.225 1.34119 373.848 1.34019C370.712 1.32819 367.575 1.33019 364.438 1.33719C364.015 1.33819 363.534 1.20719 363.205 1.56219C362.88 1.17919 362.343 1.45219 361.967 1.31919C361.251 1.06319 360.642 1.80919 359.897 1.38619C359.697 1.27319 359.845 1.78319 359.596 1.78419C359.018 1.78819 358.432 1.92819 357.855 1.67219C357.496 1.51319 357.09 1.17319 356.686 1.35619C356.288 1.53619 355.995 1.31619 355.714 1.36319C355.361 1.42219 355.182 1.61019 354.702 1.39419C354.289 1.20819 353.535 1.16919 353.01 1.49619C352.815 1.61819 352.576 1.61619 352.449 1.56119C351.409 1.11919 350.3 1.38719 349.227 1.34319C348.117 1.29819 347.001 1.34919 345.889 1.32319C345.566 1.31519 345.309 1.71919 344.894 1.35619C344.735 1.21619 344.06 1.21619 343.895 1.35619C343.48 1.70619 343.195 1.35919 342.908 1.31119C342.313 1.21319 341.845 1.83319 341.382 1.54719C340.805 1.18719 340.23 1.39119 339.661 1.34319C339.111 1.29719 338.549 1.32819 337.993 1.33519C337.704 1.33919 337.386 1.26119 337.173 1.51719C337.135 1.56219 336.963 1.59519 336.91 1.56719C336.037 1.10419 335.066 1.38119 334.145 1.35119C333.636 1.33519 333.034 1.13919 332.59 1.55019C332.141 1.20819 331.578 1.35619 331.059 1.33819C330.503 1.31819 329.946 1.33319 329.39 1.33319H327.72C327.164 1.33319 326.608 1.31919 326.051 1.33719C325.558 1.35419 325.039 1.23219 324.578 1.41619C324.101 1.60619 323.738 1.23419 323.262 1.31619C322.748 1.40419 322.225 1.28319 321.745 1.66019C321.549 1.81619 320.806 1.72319 320.48 1.54719C320.004 1.29119 319.544 1.34219 319.066 1.33719C317.902 1.32519 316.739 1.33719 315.575 1.33119C315.184 1.33019 314.833 1.27819 314.713 1.73019C314.67 1.89019 314.004 1.89619 313.966 1.71519C313.883 1.30819 313.592 1.37219 313.249 1.31919C312.8 1.24919 312.588 1.61919 312.157 1.58919C311.8 1.56319 311.632 1.22619 311.218 1.32419C310.941 1.39019 310.54 1.28019 310.356 1.40119C309.842 1.73719 309.23 1.63319 308.781 1.53519C308.206 1.40919 307.655 1.30219 307.072 1.34019C306.551 1.37419 305.992 1.17119 305.51 1.56019C305.321 1.71219 305.087 1.33219 304.897 1.34919C303.921 1.43219 302.958 1.24819 301.945 1.48319C300.889 1.72766 299.763 1.70916 298.72 1.43019C298.473 1.36319 298.199 1.27919 298.022 1.34819C297.376 1.60119 296.77 1.28019 296.139 1.32219C295.435 1.36919 294.723 1.33319 294.015 1.33319H291.89C291.182 1.33319 290.474 1.31119 289.766 1.34119C289.245 1.36319 288.661 1.15619 288.21 1.56519C288.144 1.62519 287.901 1.60919 287.77 1.56819C286.07 1.04119 284.303 1.48619 282.582 1.32419C282.104 1.28019 281.772 1.79919 281.356 1.55619C280.944 1.31519 280.424 1.20619 280.122 1.36019C279.306 1.77519 278.389 1.67919 277.659 1.53119C275.718 1.13719 273.778 1.50419 272.284 1.33319ZM223.645 1.57319C223.154 1.74519 222.761 1.29319 222.203 1.31719C221.626 1.34319 221.026 1.43519 220.453 1.25219C220.999 0.912192 221.633 1.10819 222.216 1.11419C222.643 1.11919 222.878 0.822192 223.287 0.846192C223.666 0.869192 224.055 0.786192 224.118 1.25119C224.137 1.39519 224.533 1.53619 224.024 1.57219C223.924 1.57919 223.824 1.57319 223.645 1.57319ZM128.803 1.43519C127.994 1.43519 127.184 1.45719 126.377 1.42719C125.856 1.40719 125.359 1.47919 124.803 1.24319C124.394 1.07019 123.633 1.02619 123.112 1.37619C122.684 1.66319 122.439 0.956192 122.086 1.24319C121.69 1.56319 121.239 1.38319 120.815 1.43319C119.822 1.54819 118.913 1.16119 117.909 1.17219C113.008 1.22319 108.104 1.20719 103.204 1.18119C102.54 1.17719 101.796 1.43819 101.198 0.971192C100.656 1.40719 99.9746 1.14819 99.36 1.18519C98.6568 1.22819 97.9409 1.15519 97.2403 1.20619C96.5219 1.25919 95.7605 0.983192 95.0776 1.42319C94.8056 1.59719 94.6299 1.17919 94.3061 1.18919C93.6497 1.20919 92.9907 1.21119 92.3356 1.18919C91.9587 1.17619 91.5806 1.28119 91.1986 1.02619C90.9874 0.884192 90.5005 0.892192 90.1919 0.968192C88.2808 1.44119 86.3218 1.04819 84.4032 1.21419C83.9339 1.25519 83.6633 0.850192 83.3269 0.978192C83.0107 1.09919 82.7375 1.24519 82.3783 1.19419C81.7636 1.10719 81.0731 1.42419 80.5204 0.964192C80.4609 0.914192 80.2497 0.931192 80.1182 1.03919C79.7502 1.34319 79.2114 1.26519 78.8484 1.17119C77.6431 0.862192 76.501 0.866192 75.2894 1.17019C74.7506 1.30519 74.0993 1.18719 73.5049 1.13719C73.3657 1.12619 73.1684 0.933192 73.1533 0.811192C73.1394 0.695192 73.3872 0.716192 73.5327 0.716192C74.4926 0.715192 75.4576 0.759192 76.4112 0.703192C77.3826 0.645192 78.3336 0.803192 79.3417 0.526192C80.1991 0.291192 81.2426 0.446192 82.2 0.486192C82.7248 0.509192 83.3041 0.286192 83.7809 0.640192C84.3058 0.413192 84.8774 0.483192 85.4352 0.477192C85.9917 0.470192 86.5734 0.390192 87.0983 0.491192C88.5654 0.777192 90.0452 0.716192 91.5249 0.705192C91.9967 0.702192 92.5316 0.885192 92.9414 0.517192C92.992 0.473192 93.1476 0.452192 93.2159 0.480192C94.4996 1.00419 95.868 0.677192 97.1872 0.697192C100.723 0.751192 104.262 0.706192 107.8 0.726192C108.317 0.728192 108.902 0.536192 109.363 0.929192C109.416 0.974192 109.674 0.944192 109.754 0.882192C110.187 0.542192 110.717 0.798192 111.185 0.712192C111.512 0.651192 111.754 1.02219 112.176 0.741192C112.426 0.574192 112.766 1.06619 113.241 0.973192C113.671 0.889192 114.145 0.955192 114.6 0.955192H117.026C117.431 0.955192 117.838 0.980192 118.238 0.950192C118.958 0.894192 119.717 1.12719 120.4 0.730192C120.544 0.647192 120.839 0.734192 121.087 0.830192C121.726 1.08019 122.444 1.01719 123.102 0.870192C123.317 0.822192 123.524 0.690192 123.773 0.718192C124.244 0.771192 124.704 0.638192 125.197 0.918192C125.488 1.08319 126.032 0.666192 126.557 0.698192C127.093 0.732192 127.555 1.20419 128.087 0.943192C128.884 0.553192 129.731 0.719192 130.547 0.738192C131.157 0.752192 131.739 1.06119 132.395 0.962192C132.441 0.955191 132.568 1.07419 132.557 1.09219C132.511 1.16019 132.409 1.20219 132.356 1.26819C132.189 1.47819 131.93 1.43619 131.683 1.43519H128.803ZM69.5386 1.19519C68.7962 1.08919 67.8692 1.41919 67.0572 0.955192C66.7044 1.39019 66.2351 0.776192 65.838 1.04819C65.4636 1.30419 65.0147 1.26419 64.6163 1.07819C64.1445 0.856192 63.5931 0.858192 63.2048 1.02619C62.8165 1.19419 62.6395 1.22319 62.3321 0.980192C62.193 0.871192 61.9869 0.993192 61.8212 1.10319C61.5733 1.26619 61.2419 1.27719 61.0168 1.10319C60.7993 0.933192 60.4945 0.878192 60.344 0.969192C59.6888 1.36519 59.1045 1.06319 58.4532 0.983192C57.6235 0.881192 56.7546 0.981192 55.9022 0.994192C55.6113 1.38019 55.2028 0.665192 54.8196 1.09119C54.5704 1.36719 54.1493 1.17119 53.7926 0.971192C53.4714 0.791192 53.2905 1.27419 52.8681 1.20919C51.9625 1.06919 50.9963 1.40519 50.1033 0.971192C49.8833 0.864192 49.5089 0.955192 49.2054 0.955192C46.4267 0.955192 43.6468 0.953192 40.8669 0.957192C40.3851 0.957192 39.9336 1.04419 39.4593 1.14619C38.9281 1.26019 38.2287 1.06519 37.6735 0.876192C37.0854 0.676192 36.5731 0.638192 36.0205 0.874192C35.5968 1.05419 34.9581 0.784192 34.7367 0.984192C34.2448 1.42819 33.9577 0.964192 33.5858 0.960192C32.2705 0.948192 30.9564 0.962192 29.6436 0.950192C29.3591 0.947192 29.0403 1.05019 28.7925 0.841192C28.6925 0.757192 28.499 0.661192 28.5117 0.589192C28.5344 0.467192 28.752 0.439192 28.8848 0.480192C29.5146 0.678192 30.1356 0.785192 30.7591 0.475192C31.7064 0.976192 32.808 0.0261916 33.7401 0.673192C34.1448 0.390192 34.719 0.363192 35.0883 0.507192C35.5436 0.685192 35.851 0.472192 36.2215 0.480192C36.4416 0.485192 36.6111 0.450192 36.7401 0.307192C36.7654 0.281192 36.8324 0.246192 36.8438 0.252192C37.6596 0.735192 38.7358 0.182192 39.415 0.527192C40.0347 0.842192 40.4584 0.276192 40.9643 0.603192C41.4449 0.913192 41.9483 0.585192 42.4517 0.522192C42.7185 0.488192 43.0562 0.589192 43.4103 0.493192C43.7278 0.408192 44.111 0.475192 44.4651 0.475192C44.7181 0.475192 44.971 0.487192 45.2214 0.469192C45.3251 0.462192 45.4213 0.465192 45.4149 0.279192C45.4036 -0.0258084 45.5022 -0.0458084 45.697 0.0531916C46.557 0.489192 47.4094 0.730192 48.3959 0.251192C48.616 0.144192 49.0271 0.164192 49.2876 0.247192C50.6889 0.694192 52.1408 0.411192 53.5662 0.465192C54.8259 0.513192 56.145 0.303192 57.3389 0.531192C58.2369 0.703192 59.145 0.808192 59.9443 0.666192C60.8309 0.509192 61.6884 0.486192 62.5623 0.485192C62.9847 0.485192 63.3857 0.477192 63.8397 0.649192C64.1111 0.745639 64.4079 0.789166 64.705 0.776115C65.0021 0.763064 65.2909 0.693816 65.5471 0.574192C65.9025 0.404192 66.3376 0.381192 66.6563 0.564192C66.9661 0.742192 67.1546 0.776192 67.4075 0.546192C67.4581 0.498192 67.5998 0.459192 67.6668 0.481192C69.2123 0.973192 70.8236 0.599192 72.3969 0.713192C72.5462 0.723192 72.7637 0.714192 72.7713 0.830192C72.7776 0.938192 72.5007 0.910192 72.4273 0.964192C71.9631 1.31519 71.4003 1.17319 70.8729 1.19219C70.4695 1.20719 70.0648 1.19519 69.5386 1.19519ZM141.069 0.955192C142.78 0.955192 144.49 0.956192 146.2 0.954192C146.436 0.954192 146.574 1.01419 146.559 1.22019C146.549 1.35919 146.462 1.44319 146.288 1.43319C145.699 1.39919 145.214 1.70019 144.606 1.71919C144.075 1.73619 143.573 1.31719 143.05 1.66219C142.669 1.27619 142.13 1.48419 141.659 1.43719C140.499 1.32019 139.287 1.68719 138.16 1.20119C138.091 1.17554 138.012 1.17204 137.939 1.19143C137.867 1.21081 137.807 1.25158 137.771 1.30519C137.402 1.87819 136.908 1.49119 136.426 1.45519C136.069 1.42919 135.72 1.27119 135.724 1.12119C135.734 0.767192 136.167 0.970192 136.392 0.967192C137.951 0.945192 139.509 0.955192 141.069 0.955192ZM192.665 1.67519C190.848 1.67519 189.03 1.67619 187.213 1.67419C186.826 1.67419 186.425 1.72819 186.115 1.44419C186.052 1.38719 185.765 1.44919 185.748 1.32619C185.734 1.21619 185.933 1.19519 186.085 1.19319C186.812 1.18519 187.512 1.16319 188.242 0.985192C189.187 0.755192 190.205 1.00719 191.12 1.23119C191.666 1.36519 192.181 1.00019 192.523 1.22119C193.043 1.55819 193.571 1.41619 194.089 1.42619C195.502 1.45319 196.916 1.43419 198.329 1.43619C198.473 1.43619 198.718 1.40319 198.716 1.52919C198.711 1.74219 198.44 1.67319 198.269 1.67319C196.401 1.67619 194.533 1.67519 192.666 1.67519H192.665ZM170.609 1.67519C170.231 1.63919 169.793 1.80119 169.505 1.46319C169.485 1.44019 169.4 1.42419 169.372 1.43819C168.09 2.08019 166.811 1.39019 165.527 1.42319C163.661 1.47119 161.789 1.43519 159.92 1.43519C159.667 1.43519 159.412 1.45119 159.161 1.43119C158.923 1.41119 158.526 1.54419 158.478 1.35019C158.41 1.08019 158.91 1.22219 159.108 1.03619C159.242 0.910192 159.749 0.873192 159.94 0.974192C160.587 1.31419 161.28 1.18419 161.952 1.18819C164.681 1.20519 167.411 1.19519 170.139 1.19519C170.493 1.19519 170.847 1.18719 171.2 1.19919C171.363 1.20419 171.45 1.28019 171.454 1.42919C171.459 1.57719 171.373 1.65619 171.214 1.67119C171.015 1.68919 170.812 1.67519 170.609 1.67519ZM2.27334 0.963192C1.60177 1.18719 0.927659 0.571192 0.123283 0.708192C0.0941938 0.713192 0.0271624 0.614192 0.000602787 0.558192C-0.00698566 0.543192 0.0587808 0.492192 0.101782 0.478192C0.150462 0.467273 0.201902 0.466584 0.251022 0.476192C1.54485 0.642192 2.77924 0.202192 4.05789 0.241192C4.5777 0.257192 5.14178 0.0871916 5.60847 0.464192C5.74127 0.571192 5.94995 0.397192 6.10804 0.295192C6.36605 0.130192 6.55576 0.285192 6.72523 0.433192L6.92127 0.603192C6.83906 0.640192 6.76065 0.707192 6.67717 0.710192C6.32558 0.722192 5.9626 0.755192 5.62112 0.708192C4.51953 0.558192 3.49635 0.969192 2.27334 0.963192ZM27.8692 0.591192C27.7933 0.632192 27.7225 0.703192 27.6415 0.711192C26.9257 0.776192 26.158 0.551192 25.5016 0.955192C24.376 0.500192 23.1669 0.807192 22.0021 0.710192C21.9401 0.704192 21.8857 0.622192 21.8376 0.569192C21.8338 0.563192 21.8996 0.499192 21.9413 0.489192C22.4776 0.381192 23.0063 0.0151916 23.5665 0.330192C23.884 0.509192 24.0471 0.352192 24.3127 0.325192C25.4169 0.210192 26.5513 0.0611916 27.6264 0.475192C27.7111 0.508192 27.7882 0.552192 27.8692 0.591192ZM13.0161 0.552192C12.9199 0.624192 12.8605 0.707192 12.7985 0.709192C12.3938 0.721192 11.9866 0.689192 11.5856 0.722192C11.1114 0.762192 10.6485 0.633192 10.1413 0.873192C9.86053 1.00719 9.27622 0.750192 8.83356 0.653192C8.73238 0.632192 8.77032 0.486192 8.88415 0.500192C9.3091 0.550192 9.6139 0.279192 9.96803 0.253192C10.7699 0.196192 11.5844 0.242192 12.3925 0.232192C12.7138 0.228192 12.7416 0.502192 13.0161 0.552192ZM148.08 1.43519C147.83 1.43519 147.58 1.44519 147.33 1.43219C147.174 1.42319 146.884 1.51519 146.929 1.28019C146.955 1.15819 147.189 0.977192 147.34 0.970192C148.037 0.937192 148.738 0.951192 149.437 0.963192C149.491 0.964192 149.566 1.07319 149.588 1.14019C149.626 1.26019 149.57 1.41719 149.427 1.42519C148.981 1.45219 148.529 1.43519 148.08 1.43519Z" fill="white"/>
</svg>