<svg width="307" height="67" viewBox="0 0 307 67" fill="none" xmlns="http://www.w3.org/2000/svg">
<path d="M290.223 26.032H296.127C296.463 26.032 296.823 25.96 297.207 25.816C297.831 25.624 297.951 25.312 297.567 24.88C296.895 23.968 296.583 23.104 296.631 22.288C296.631 21.952 296.391 21.712 295.911 21.568C294.855 21.232 293.943 20.632 293.175 19.768C292.695 19.24 292.071 19.12 291.303 19.408C289.623 20.032 288.615 20.944 288.279 22.144C288.135 22.528 287.943 22.936 287.703 23.368C287.175 24.28 286.911 24.784 286.911 24.88C286.959 24.976 287.295 25.432 287.919 26.248C287.871 26.344 287.727 26.608 287.487 27.04L288.567 28.048C287.991 28.816 287.607 29.296 287.415 29.488C286.551 30.352 286.263 31.312 286.551 32.368C287.127 34.528 288.303 36.616 290.079 38.632C291.183 39.88 292.263 40.744 293.319 41.224C294.663 41.848 295.599 42.016 296.127 41.728C296.271 41.68 296.583 41.728 297.063 41.872C298.023 42.016 298.863 41.728 299.583 41.008C299.727 40.864 300.375 40.336 301.527 39.424C301.623 39.376 301.791 39.304 302.031 39.208C302.271 39.112 302.439 38.992 302.535 38.848C302.631 38.704 302.655 38.488 302.607 38.2C302.559 38.152 302.631 38.056 302.823 37.912C303.063 37.768 303.303 37.648 303.543 37.552C303.639 37.504 303.999 37.48 304.623 37.48C304.335 38.344 304.119 39.04 303.975 39.568C304.455 39.856 304.815 40.096 305.055 40.288C305.007 40.336 304.983 40.432 304.983 40.576C304.695 41.248 304.575 41.608 304.623 41.656C304.767 41.992 304.647 42.4 304.263 42.88L300.375 47.2C299.511 48.112 298.431 48.688 297.135 48.928C296.463 49.072 295.743 49.144 294.975 49.144C294.255 49.192 293.391 49.192 292.383 49.144C291.423 49.096 290.727 49.072 290.295 49.072C290.055 49.072 289.695 48.976 289.215 48.784C287.823 48.016 286.791 47.44 286.119 47.056C285.495 46.624 284.727 45.952 283.815 45.04C282.903 44.128 282.231 43.168 281.799 42.16C281.751 42.064 281.631 41.824 281.439 41.44C281.295 41.056 281.175 40.792 281.079 40.648C281.031 40.456 280.959 40.192 280.863 39.856C280.767 39.472 280.695 39.184 280.647 38.992C280.647 38.752 280.647 38.464 280.647 38.128C280.695 37.792 280.767 37.48 280.863 37.192C281.007 36.904 280.911 36.52 280.575 36.04C279.807 35.224 279.399 34.264 279.351 33.16C279.303 32.008 279.423 30.952 279.711 29.992C280.047 28.744 280.215 27.952 280.215 27.616C280.263 26.56 280.719 25.168 281.583 23.44C281.679 23.248 281.895 23.056 282.231 22.864C282.375 22.816 282.591 22.744 282.879 22.648C283.167 22.552 283.383 22.456 283.527 22.36C283.911 20.68 284.127 19.72 284.175 19.48C284.463 18.664 284.943 18.232 285.615 18.184C285.999 18.04 286.455 17.8 286.983 17.464C287.511 17.944 287.919 18.184 288.207 18.184C288.543 18.184 288.951 17.968 289.431 17.536C290.823 16.192 292.527 15.376 294.543 15.088C296.031 14.8 297.519 15.136 299.007 16.096C301.599 17.824 303.327 19.528 304.191 21.208C304.239 21.256 304.431 21.52 304.767 22L304.983 22.288C305.127 22.48 305.223 22.624 305.271 22.72C305.319 22.912 305.415 23.512 305.559 24.52C305.703 25.528 305.871 26.296 306.063 26.824C306.063 26.872 306.015 27.064 305.919 27.4L304.695 28.984C304.455 28.984 303.879 29.008 302.967 29.056C302.103 29.104 301.407 29.104 300.879 29.056C299.487 29.008 297.519 28.888 294.975 28.696H294.327C293.943 28.744 293.751 28.744 293.751 28.696C293.559 28.696 293.295 28.672 292.959 28.624C292.671 28.528 292.479 28.48 292.383 28.48L292.527 27.616C292.575 27.232 292.527 26.968 292.383 26.824C292.239 26.68 291.975 26.56 291.591 26.464C291.447 26.416 291.279 26.416 291.087 26.464C290.943 26.464 290.775 26.44 290.583 26.392C290.439 26.344 290.319 26.224 290.223 26.032Z" fill="#FFC100" fill-opacity="0.85"/>
<path d="M266.91 16.384L268.134 18.472C268.422 17.848 268.494 17.44 268.35 17.248C268.254 17.008 267.966 16.72 267.486 16.384C268.446 16.384 268.926 16.744 268.926 17.464C270.366 17.56 271.35 17.608 271.878 17.608C271.83 18.04 271.638 18.184 271.302 18.04C270.966 17.896 270.75 17.968 270.654 18.256C270.606 18.496 270.654 18.688 270.798 18.832C270.942 18.976 271.158 19.12 271.446 19.264C271.782 19.408 272.022 19.528 272.166 19.624C271.878 20.2 271.662 20.56 271.518 20.704C270.078 22.576 269.07 24.64 268.494 26.896C268.446 27.088 268.35 27.28 268.206 27.472C268.11 27.616 267.942 27.784 267.702 27.976C267.51 28.168 267.366 28.336 267.27 28.48C267.942 28.912 268.062 29.368 267.63 29.848C267.294 30.28 266.742 31.504 265.974 33.52C265.782 34.192 265.494 34.576 265.11 34.672L264.894 34.96C264.846 35.104 264.798 35.2 264.75 35.248L265.542 35.896C265.254 36.616 264.822 37.696 264.246 39.136C263.718 40.576 263.334 41.656 263.094 42.376C262.998 42.568 262.95 42.712 262.95 42.808C263.046 43.384 262.998 43.96 262.806 44.536C262.662 45.112 262.494 45.568 262.302 45.904C262.158 46.24 261.846 46.744 261.366 47.416C260.934 48.04 260.646 48.448 260.502 48.64C260.502 48.688 260.478 48.736 260.43 48.784C260.43 48.784 260.406 48.808 260.358 48.856C260.214 49.048 260.118 49.192 260.07 49.288C259.734 50.344 258.966 50.896 257.766 50.944C257.046 51.04 256.614 51.04 256.47 50.944C256.326 50.848 256.086 50.488 255.75 49.864C255.798 49.816 255.894 49.672 256.038 49.432C256.23 49.192 256.374 49 256.47 48.856C256.278 48.808 256.062 48.76 255.822 48.712C255.63 48.664 255.51 48.64 255.462 48.64C255.51 48.496 255.63 48.304 255.822 48.064C256.062 47.776 256.23 47.512 256.326 47.272C256.47 47.032 256.494 46.744 256.398 46.408C256.062 46.648 255.63 46.912 255.102 47.2L254.886 46.336L254.67 45.76C254.19 45.568 253.902 45.112 253.806 44.392C253.758 44.248 253.614 43.912 253.374 43.384C253.086 43.096 252.87 42.808 252.726 42.52C251.622 40.024 250.542 37.744 249.486 35.68C249.534 35.632 249.63 35.512 249.774 35.32C249.918 35.128 250.014 34.984 250.062 34.888C250.11 34.744 250.086 34.576 249.99 34.384C249.942 34.192 249.798 34 249.558 33.808C249.462 33.952 249.294 34.144 249.054 34.384L248.91 34.312C248.91 34.312 248.886 34.312 248.838 34.312C248.838 34.264 248.79 34.144 248.694 33.952C248.598 33.712 248.574 33.52 248.622 33.376C248.718 33.232 248.91 33.088 249.198 32.944C248.478 32.464 247.95 31.6 247.614 30.352C247.23 28.336 246.342 26.584 244.95 25.096C245.142 24.712 245.31 24.352 245.454 24.016C244.83 23.872 244.398 23.488 244.158 22.864C243.87 22.288 243.198 21.664 242.142 20.992C241.854 20.752 241.326 20.464 240.558 20.128C240.75 19.792 241.038 19.384 241.422 18.904C240.99 18.664 240.51 18.328 239.982 17.896C240.462 17.608 241.134 17.56 241.998 17.752C242.766 17.944 243.51 17.92 244.23 17.68C245.094 17.296 245.982 17.32 246.894 17.752C247.47 18.04 247.878 18.04 248.118 17.752L248.406 17.68C248.55 17.968 248.886 18.136 249.414 18.184C249.99 18.232 250.374 18.448 250.566 18.832C250.566 18.64 250.566 18.448 250.566 18.256C250.614 18.016 250.638 17.848 250.638 17.752L252.582 17.968C252.678 18.448 252.726 18.712 252.726 18.76C252.678 19.24 252.678 19.96 252.726 20.92C252.774 21.88 252.774 22.6 252.726 23.08C252.726 23.56 252.822 23.8 253.014 23.8C253.638 23.992 253.854 24.496 253.662 25.312C253.47 25.984 253.614 26.584 254.094 27.112C254.19 27.304 254.358 27.568 254.598 27.904C254.838 28.24 255.006 28.504 255.102 28.696C255.15 28.696 255.174 28.72 255.174 28.768C255.222 28.816 255.246 28.864 255.246 28.912L255.318 28.984C256.326 30.376 257.262 32.176 258.126 34.384C258.222 34.72 258.558 35.08 259.134 35.464C259.614 35.752 260.07 35.8 260.502 35.608C260.934 35.416 261.222 35.032 261.366 34.456C261.414 34.264 261.462 33.976 261.51 33.592C261.558 33.208 261.606 32.872 261.654 32.584C261.702 32.296 261.75 32.032 261.798 31.792C262.326 29.728 262.806 28.36 263.238 27.688C263.478 27.208 263.766 26.488 264.102 25.528C264.486 24.52 264.774 23.824 264.966 23.44C265.014 23.296 265.134 23.032 265.326 22.648C265.518 22.216 265.662 21.88 265.758 21.64C265.95 21.4 266.07 21.136 266.118 20.848C266.214 20.656 266.286 20.44 266.334 20.2C266.43 19.96 266.502 19.696 266.55 19.408C266.646 19.072 266.718 18.832 266.766 18.688C267.054 17.728 266.934 17.032 266.406 16.6L266.91 16.384ZM253.662 41.8C253.47 41.416 253.206 40.888 252.87 40.216C252.582 39.496 252.294 38.896 252.006 38.416C251.718 37.888 251.382 37.408 250.998 36.976C250.998 37.744 251.286 38.656 251.862 39.712C252.438 40.72 253.038 41.416 253.662 41.8ZM259.134 47.848C258.846 48.328 258.51 48.952 258.126 49.72C257.838 49.768 257.67 49.696 257.622 49.504C257.574 49.36 257.574 49.192 257.622 49C257.67 48.76 257.622 48.568 257.478 48.424C257.382 48.232 257.166 48.16 256.83 48.208C256.83 48.448 256.806 48.832 256.758 49.36C256.758 49.888 256.758 50.296 256.758 50.584C256.95 50.536 257.214 50.488 257.55 50.44C257.934 50.44 258.198 50.416 258.342 50.368C258.534 50.368 258.726 50.296 258.918 50.152C259.158 50.056 259.326 49.864 259.422 49.576C259.71 49 259.614 48.424 259.134 47.848Z" fill="#FFC100" fill-opacity="0.85"/>
<path d="M204.475 31.432L203.971 30.928V28.84C204.019 28.744 204.091 28.648 204.187 28.552C204.331 28.456 204.427 28.36 204.475 28.264V27.76L206.563 25.672C206.611 25.624 206.635 25.552 206.635 25.456C206.635 25.312 206.635 25.216 206.635 25.168C206.827 25.024 206.995 24.76 207.139 24.376C207.283 23.944 207.475 23.656 207.715 23.512V21.928C208.243 21.4 208.675 21.112 209.011 21.064C209.059 21.064 209.203 20.968 209.443 20.776C209.683 20.584 209.899 20.512 210.091 20.56C210.187 20.368 210.403 20.224 210.739 20.128C211.075 19.984 211.291 19.888 211.387 19.84C211.531 19.744 211.723 19.648 211.963 19.552C212.203 19.408 212.371 19.312 212.467 19.264V18.76C212.755 18.52 213.115 18.04 213.547 17.32C214.027 16.552 214.483 16.048 214.915 15.808C215.203 15.952 215.467 16.312 215.707 16.888C215.947 17.416 216.235 17.752 216.571 17.896H218.659C218.755 17.8 218.827 17.704 218.875 17.608C218.971 17.512 219.043 17.44 219.091 17.392H220.171C220.411 17.152 220.603 16.984 220.747 16.888H221.755C221.851 16.936 221.995 17.056 222.187 17.248C223.531 17.392 224.611 17.944 225.427 18.904C225.811 18.856 226.267 18.976 226.795 19.264C227.371 19.504 227.707 19.648 227.803 19.696C227.947 19.984 228.259 20.248 228.739 20.488C229.267 20.728 229.579 20.896 229.675 20.992C229.915 21.184 230.251 21.424 230.683 21.712C231.115 22 231.379 22.192 231.475 22.288L232.987 23.8C233.371 24.616 233.611 25.12 233.707 25.312V26.176L234.283 26.752V29.344L234.787 29.848C234.595 30.04 234.451 30.232 234.355 30.424V36.616L233.779 37.336C233.779 37.432 233.755 37.624 233.707 37.912C233.707 38.152 233.707 38.344 233.707 38.488C233.611 38.536 233.515 38.608 233.419 38.704C233.371 38.8 233.299 38.872 233.203 38.92V40.432C233.155 40.528 233.059 40.648 232.915 40.792C232.819 40.888 232.747 41.008 232.699 41.152C232.651 41.248 232.651 41.392 232.699 41.584C231.979 42.256 230.923 43.288 229.531 44.68V45.256C229.435 45.352 229.267 45.52 229.027 45.76C228.835 45.952 228.667 46.144 228.523 46.336C228.427 46.528 228.379 46.744 228.379 46.984L228.019 47.344C227.971 47.392 227.899 47.464 227.803 47.56L227.659 47.704C227.275 47.608 226.891 47.776 226.507 48.208C226.171 48.592 225.907 48.808 225.715 48.856C225.475 48.904 224.515 49.384 222.835 50.296L222.331 49.792H221.251L220.747 50.296C220.555 50.344 220.195 50.368 219.667 50.368C219.571 50.464 219.451 50.56 219.307 50.656C219.211 50.752 219.139 50.824 219.091 50.872H214.843L214.411 50.44C214.123 50.488 213.691 50.368 213.115 50.08C212.539 49.84 212.083 49.744 211.747 49.792C211.603 49.744 211.387 49.576 211.099 49.288C210.859 49 210.619 48.832 210.379 48.784C209.995 48.736 209.587 48.4 209.155 47.776C209.059 47.584 208.819 47.44 208.435 47.344C208.099 47.2 207.859 47.032 207.715 46.84V46.264C207.379 46.072 207.067 45.832 206.779 45.544C206.539 45.208 206.347 44.92 206.203 44.68C206.059 44.44 205.843 44.08 205.555 43.6C205.315 43.072 205.147 42.712 205.051 42.52V41.584L204.619 41.224C204.523 41.08 204.475 40.792 204.475 40.36C204.523 39.88 204.523 39.568 204.475 39.424L204.043 38.992V36.832C203.803 36.592 203.611 36.424 203.467 36.328V33.16C204.043 32.152 204.379 31.576 204.475 31.432ZM215.203 27.688C214.867 27.928 214.651 28.072 214.555 28.12C214.459 28.12 214.315 28.048 214.123 27.904C213.979 27.712 213.859 27.592 213.763 27.544L213.043 28.264C213.091 28.312 213.163 28.408 213.259 28.552C213.403 28.696 213.499 28.816 213.547 28.912C213.547 29.104 213.427 29.416 213.187 29.848C212.947 30.28 212.875 30.64 212.971 30.928L212.539 31.504V34.168C212.827 34.312 212.971 34.648 212.971 35.176C213.019 35.704 213.187 36.04 213.475 36.184C213.523 36.568 213.523 37.072 213.475 37.696C213.475 38.272 213.523 38.704 213.619 38.992L214.051 39.424V40.648C214.579 40.888 215.131 41.464 215.707 42.376C216.283 43.288 216.619 43.792 216.715 43.888C216.715 44.032 216.715 44.224 216.715 44.464C216.763 44.656 216.787 44.776 216.787 44.824C217.027 44.968 217.195 45.04 217.291 45.04C217.435 45.04 217.579 44.968 217.723 44.824C217.915 44.68 218.059 44.608 218.155 44.608C218.683 45.088 219.163 45.4 219.595 45.544C219.883 45.352 220.075 45.184 220.171 45.04H222.331C222.379 44.944 222.475 44.824 222.619 44.68C222.811 44.536 222.931 44.392 222.979 44.248C223.075 44.104 223.123 43.936 223.123 43.744C223.219 43.648 223.363 43.384 223.555 42.952C223.795 42.52 224.131 42.28 224.563 42.232C224.659 42.232 224.779 42.16 224.923 42.016C225.115 41.824 225.211 41.656 225.211 41.512C225.211 41.32 225.283 41.104 225.427 40.864C225.619 40.624 225.739 40.48 225.787 40.432C225.787 40.288 225.787 40.12 225.787 39.928C225.787 39.688 225.811 39.52 225.859 39.424C226.195 38.992 226.339 38.608 226.291 38.272C226.291 38.176 226.267 38.08 226.219 37.984C226.219 37.888 226.219 37.816 226.219 37.768L225.787 37.264C225.883 37.168 225.979 37.096 226.075 37.048C226.171 36.952 226.243 36.88 226.291 36.832C226.195 36.688 226.027 36.496 225.787 36.256V34.672C226.027 34.432 226.195 34.24 226.291 34.096C226.339 33.808 226.195 33.496 225.859 33.16L225.715 32.872V29.848L225.211 29.344V27.184L224.779 26.752C224.779 26.656 224.755 26.536 224.707 26.392C224.707 26.2 224.683 26.056 224.635 25.96C224.635 25.864 224.635 25.792 224.635 25.744L221.107 22.216C220.915 22.264 220.651 22.168 220.315 21.928C220.027 21.64 219.763 21.544 219.523 21.64C218.419 22.072 217.723 22.288 217.435 22.288L216.499 23.224H215.923C215.299 23.848 214.939 24.232 214.843 24.376C214.747 24.472 214.627 24.688 214.483 25.024C214.387 25.36 214.243 25.576 214.051 25.672V27.184C214.339 27.28 214.723 27.448 215.203 27.688Z" fill="#FFC100" fill-opacity="0.85"/>
<path d="M174.72 21.568C175.776 20.32 176.784 19.576 177.744 19.336C178.272 18.328 178.56 17.776 178.608 17.68C179.424 16.72 180.36 16.288 181.416 16.384C181.704 16.432 182.016 16.432 182.352 16.384C182.736 16.288 183.144 16.168 183.576 16.024C184.008 15.88 184.344 15.784 184.584 15.736C184.68 15.976 184.8 16.312 184.944 16.744C185.088 17.176 185.208 17.488 185.304 17.68C185.496 17.68 185.616 17.704 185.664 17.752C186.624 18.328 187.728 18.16 188.976 17.248C189.072 17.152 189.264 17.056 189.552 16.96C189.84 16.816 190.08 16.672 190.272 16.528C190.464 16.384 190.584 16.168 190.632 15.88C191.064 15.832 191.64 15.712 192.36 15.52C193.128 15.328 193.584 15.208 193.728 15.16C194.592 15.016 195.36 15.352 196.032 16.168C196.752 16.936 197.064 17.824 196.968 18.832C196.872 18.688 196.728 18.4 196.536 17.968C196.344 17.536 196.176 17.248 196.032 17.104C195.936 16.912 195.72 16.72 195.384 16.528C195.096 16.288 194.736 16.168 194.304 16.168C194.496 16.408 194.736 16.744 195.024 17.176C195.36 17.608 195.528 17.848 195.528 17.896C196.296 18.952 196.272 19.96 195.456 20.92C195.312 21.16 195.24 21.304 195.24 21.352C195.288 21.4 195.504 21.568 195.888 21.856C194.064 22.864 192.36 22.72 190.776 21.424C189.576 20.56 188.592 20.656 187.824 21.712C186.48 23.392 185.832 25.168 185.88 27.04C185.88 27.424 185.928 28.12 186.024 29.128C186.168 30.088 186.24 30.832 186.24 31.36C186.24 33.136 186.888 34.168 188.184 34.456C188.04 34.84 187.872 35.2 187.68 35.536C187.248 36.448 187.2 37.312 187.536 38.128C187.632 38.512 187.728 38.8 187.824 38.992C188.4 40.432 188.376 41.608 187.752 42.52C187.656 42.664 187.704 43 187.896 43.528C187.944 43.384 188.04 43.168 188.184 42.88L189.192 43.672C189.048 44.344 188.952 44.704 188.904 44.752C188.472 45.088 188.256 45.64 188.256 46.408C188.208 46.936 188.112 47.296 187.968 47.488C187.824 47.632 187.488 47.728 186.96 47.776C185.52 47.872 184.344 48.112 183.432 48.496C183.144 48.592 182.688 48.64 182.064 48.64C181.44 48.64 180.984 48.712 180.696 48.856C180.168 49.048 179.256 48.976 177.96 48.64C177.576 48.64 177.264 48.472 177.024 48.136C176.16 47.224 175.104 46.96 173.856 47.344C173.184 47.536 172.656 47.368 172.272 46.84C171.888 46.216 171.936 45.592 172.416 44.968C173.28 44.008 174.264 43.6 175.368 43.744L176.88 43.96C177.888 43.96 178.464 43.456 178.608 42.448C178.608 42.112 178.656 41.656 178.752 41.08C178.848 40.504 178.896 40.048 178.896 39.712C178.896 39.136 178.824 38.728 178.68 38.488C178.296 37.768 178.248 37.12 178.536 36.544C178.728 36.112 178.752 35.752 178.608 35.464C178.368 35.176 178.296 34.624 178.392 33.808C178.536 32.992 178.56 32.44 178.464 32.152C178.416 31.96 178.44 31.696 178.536 31.36C178.68 31.024 178.752 30.832 178.752 30.784C178.896 30.016 178.944 29.176 178.896 28.264C178.896 27.304 178.632 26.488 178.104 25.816C177.96 25.624 177.72 25.384 177.384 25.096C177.096 24.76 176.88 24.52 176.736 24.376C176.736 23.656 176.064 22.72 174.72 21.568Z" fill="#FFC100" fill-opacity="0.85"/>
<path d="M165.412 54.04C165.412 54.136 165.412 54.28 165.412 54.472C165.46 54.712 165.484 54.88 165.484 54.976C165.484 55.072 165.436 55.192 165.34 55.336C165.244 55.48 165.1 55.576 164.908 55.624V57.424C164.476 57.856 163.972 58.312 163.396 58.792L163.18 59.8C163.132 59.8 163.012 59.8 162.82 59.8C162.628 59.848 162.508 59.896 162.46 59.944C162.268 60.232 161.884 60.52 161.308 60.808C160.732 61.144 160.324 61.432 160.084 61.672C159.652 62.2 159.34 62.512 159.148 62.608C158.572 62.8 158.188 63.016 157.996 63.256C157.948 63.304 157.828 63.328 157.636 63.328C157.444 63.376 157.324 63.424 157.276 63.472C157.084 63.76 156.652 64.048 155.98 64.336C155.356 64.672 154.948 65.056 154.756 65.488H152.452L151.948 65.992H148.636C148.492 66.088 148.3 66.256 148.06 66.496H141.868L141.436 66.064H139.276C139.036 65.824 138.844 65.656 138.7 65.56H137.404C137.212 65.464 137.044 65.416 136.9 65.416C136.468 64.984 136.156 64.792 135.964 64.84C134.524 63.496 133.468 62.536 132.796 61.96V60.736L132.22 60.16V59.08L131.788 58.648C131.596 58.12 131.692 57.472 132.076 56.704C132.508 55.984 132.748 55.48 132.796 55.192C132.892 55.096 133.156 54.784 133.588 54.256C134.02 53.776 134.38 53.488 134.668 53.392C134.86 53.296 135.532 52.792 136.684 51.88V49.144C136.636 49.096 136.564 49.048 136.468 49C136.42 48.952 136.348 48.88 136.252 48.784C136.204 48.688 136.156 48.616 136.108 48.568V47.488C135.868 47.248 135.7 47.056 135.604 46.912V43.6C135.652 43.552 135.724 43.456 135.82 43.312C135.964 43.168 136.06 43.072 136.108 43.024C136.108 42.976 136.108 42.88 136.108 42.736C136.108 42.544 136.132 42.4 136.18 42.304C137.572 40.912 138.628 39.832 139.348 39.064C139.3 39.016 139.06 38.824 138.628 38.488C138.244 38.104 138.004 37.792 137.908 37.552C137.812 37.312 137.62 37.024 137.332 36.688C137.092 36.352 136.948 36.136 136.9 36.04C136.804 35.896 136.684 35.704 136.54 35.464C136.444 35.176 136.324 34.96 136.18 34.816C136.084 34.624 135.94 34.504 135.748 34.456C135.652 34.264 135.58 33.952 135.532 33.52C135.484 33.088 135.364 32.776 135.172 32.584C135.028 32.488 134.932 32.224 134.884 31.792C134.884 31.36 134.74 31.072 134.452 30.928V26.896C134.98 26.656 135.364 26.368 135.604 26.032V24.952C135.7 24.76 135.94 24.304 136.324 23.584C136.756 22.816 137.044 22.24 137.188 21.856C137.524 21.136 137.956 20.704 138.484 20.56C138.964 20.128 139.492 19.744 140.068 19.408C140.692 19.072 141.46 18.712 142.372 18.328C143.284 17.896 143.932 17.584 144.316 17.392H148.636L149.068 17.824H150.868C150.916 17.824 150.988 17.776 151.084 17.68C151.18 17.536 151.276 17.44 151.372 17.392C151.516 17.296 151.684 17.272 151.876 17.32C152.116 17.56 152.308 17.728 152.452 17.824L152.812 17.464C152.908 17.368 153.22 17.32 153.748 17.32C154.276 17.32 154.588 17.32 154.684 17.32C154.78 17.56 155.02 17.728 155.404 17.824C155.836 17.92 156.1 18.064 156.196 18.256C156.244 18.304 156.292 18.328 156.34 18.328C156.436 18.328 156.532 18.352 156.628 18.4C156.772 18.4 156.892 18.4 156.988 18.4C157.036 18.4 157.372 18.52 157.996 18.76C158.62 19 159.124 19.096 159.508 19.048C159.796 19 160.684 18.976 162.172 18.976C162.844 19.312 163.348 19.552 163.684 19.696C163.684 19.792 163.732 20.032 163.828 20.416C164.116 20.56 164.476 20.704 164.908 20.848C164.812 20.992 164.644 21.184 164.404 21.424C164.5 21.568 164.668 21.76 164.908 22C164.956 22.336 164.956 22.576 164.908 22.72C164.908 22.864 164.836 23.08 164.692 23.368C164.548 23.608 164.452 23.8 164.404 23.944C164.116 24.472 163.564 24.904 162.748 25.24V28.624C162.7 28.672 162.604 28.768 162.46 28.912C162.316 29.008 162.196 29.104 162.1 29.2V31.36C161.956 31.552 161.788 31.744 161.596 31.936V33.52C161.5 33.664 161.164 34.024 160.588 34.6C160.012 35.128 159.628 35.584 159.436 35.968C159.244 36.352 158.884 36.808 158.356 37.336C157.876 37.864 157.612 38.152 157.564 38.2L155.476 40.288C154.756 40.624 154.228 40.888 153.892 41.08H151.228C151.18 40.888 151.036 40.72 150.796 40.576H146.404C146.356 40.624 146.236 40.72 146.044 40.864C145.9 41.008 145.78 41.128 145.684 41.224C145.588 41.416 145.54 42.04 145.54 43.096C146.02 43.288 146.548 43.552 147.124 43.888H151.948C151.996 43.792 152.116 43.648 152.308 43.456C152.356 43.36 152.62 43.312 153.1 43.312C153.58 43.312 153.844 43.312 153.892 43.312L156.052 44.392H157.276C157.564 44.296 157.852 44.392 158.14 44.68C158.476 44.92 158.764 45.016 159.004 44.968C159.244 44.92 159.508 45.016 159.796 45.256C160.132 45.448 160.324 45.544 160.372 45.544C160.564 45.592 160.732 45.664 160.876 45.76C161.068 45.808 161.26 45.88 161.452 45.976C161.692 46.072 161.908 46.168 162.1 46.264C162.196 46.36 162.364 46.552 162.604 46.84C162.892 47.128 163.108 47.344 163.252 47.488V49.144C163.492 49.384 163.66 49.576 163.756 49.72V51.376C163.996 51.472 164.164 51.592 164.26 51.736C164.356 51.88 164.404 52.12 164.404 52.456V53.032L165.412 54.04ZM144.46 26.608V28.264C144.46 28.312 144.46 28.36 144.46 28.408V28.48C145.516 30.448 146.068 31.48 146.116 31.576V33.016C146.356 33.16 146.524 33.448 146.62 33.88C146.764 34.264 146.884 34.504 146.98 34.6C147.076 34.696 147.196 34.912 147.34 35.248C147.484 35.584 147.652 35.824 147.844 35.968C148.036 36.16 148.396 36.568 148.924 37.192H150.58C150.772 37.096 150.964 37 151.156 36.904C151.348 36.808 151.54 36.712 151.732 36.616C151.924 36.52 152.068 36.448 152.164 36.4V30.352C152.116 30.304 152.02 30.208 151.876 30.064C151.78 29.92 151.708 29.8 151.66 29.704C151.612 29.56 151.612 29.392 151.66 29.2C151.9 28.96 152.068 28.768 152.164 28.624V26.968C152.212 26.92 152.26 26.872 152.308 26.824C152.404 26.776 152.476 26.728 152.524 26.68C152.572 26.584 152.62 26.512 152.668 26.464V23.8C152.62 23.752 152.356 23.464 151.876 22.936C151.396 22.36 151.036 21.952 150.796 21.712C150.604 21.76 150.436 21.76 150.292 21.712C150.196 21.664 150.076 21.592 149.932 21.496C149.836 21.352 149.764 21.256 149.716 21.208H148.06C147.724 21.544 147.484 21.712 147.34 21.712C146.812 21.712 146.404 22.024 146.116 22.648C145.924 23.272 145.588 23.944 145.108 24.664C145.012 24.808 144.964 25.096 144.964 25.528C144.964 25.96 144.82 26.248 144.532 26.392C144.484 26.392 144.46 26.464 144.46 26.608ZM160.012 56.272C160.156 55.984 160.348 55.6 160.588 55.12C160.828 54.688 160.996 54.4 161.092 54.256C160.9 53.968 160.684 53.728 160.444 53.536C160.252 53.392 159.964 53.224 159.58 53.032C159.244 52.888 159.028 52.792 158.932 52.744C158.836 52.696 158.716 52.672 158.572 52.672C158.476 52.672 158.356 52.672 158.212 52.672C158.116 52.72 158.044 52.744 157.996 52.744C157.9 52.792 157.828 52.84 157.78 52.888C157.732 52.984 157.684 53.056 157.636 53.104C157.588 53.152 157.54 53.2 157.492 53.248H155.188C155.092 53.152 154.972 53.056 154.828 52.96C154.732 52.864 154.66 52.792 154.612 52.744H150.292C150.244 52.648 150.148 52.528 150.004 52.384C149.86 52.288 149.74 52.216 149.644 52.168H147.412C147.268 51.928 147.148 51.784 147.052 51.736C146.908 51.688 146.692 51.64 146.404 51.592C146.116 51.592 145.852 51.544 145.612 51.448C145.42 51.4 145.252 51.28 145.108 51.088H142.876C142.78 51.232 142.636 51.448 142.444 51.736C142.252 52.072 142.084 52.36 141.94 52.6C141.796 52.84 141.676 53.056 141.58 53.248C141.724 53.536 141.94 53.872 142.228 54.256V55.624C142.228 55.672 142.276 55.792 142.372 55.984C142.516 56.08 142.78 56.248 143.164 56.488C143.596 56.728 143.908 56.92 144.1 57.064C144.244 57.16 144.388 57.424 144.532 57.856C144.724 58.336 144.964 58.648 145.252 58.792H150.22C150.316 58.792 150.364 58.84 150.364 58.936C150.556 59.128 150.7 59.248 150.796 59.296C151.036 59.056 151.252 58.888 151.444 58.792H155.476C155.764 58.648 156.196 58.456 156.772 58.216C157.396 57.976 157.828 57.784 158.068 57.64C158.212 57.496 158.524 57.28 159.004 56.992C159.484 56.752 159.82 56.512 160.012 56.272Z" fill="#FFC100" fill-opacity="0.85"/>
<path d="M109.309 26.032H115.213C115.549 26.032 115.909 25.96 116.293 25.816C116.917 25.624 117.037 25.312 116.653 24.88C115.981 23.968 115.669 23.104 115.717 22.288C115.717 21.952 115.477 21.712 114.997 21.568C113.941 21.232 113.029 20.632 112.261 19.768C111.781 19.24 111.157 19.12 110.389 19.408C108.709 20.032 107.701 20.944 107.365 22.144C107.221 22.528 107.029 22.936 106.789 23.368C106.261 24.28 105.997 24.784 105.997 24.88C106.045 24.976 106.381 25.432 107.005 26.248C106.957 26.344 106.813 26.608 106.573 27.04L107.653 28.048C107.077 28.816 106.693 29.296 106.501 29.488C105.637 30.352 105.349 31.312 105.637 32.368C106.213 34.528 107.389 36.616 109.165 38.632C110.269 39.88 111.349 40.744 112.405 41.224C113.749 41.848 114.685 42.016 115.213 41.728C115.357 41.68 115.669 41.728 116.149 41.872C117.109 42.016 117.949 41.728 118.669 41.008C118.813 40.864 119.461 40.336 120.613 39.424C120.709 39.376 120.877 39.304 121.117 39.208C121.357 39.112 121.525 38.992 121.621 38.848C121.717 38.704 121.741 38.488 121.693 38.2C121.645 38.152 121.717 38.056 121.909 37.912C122.149 37.768 122.389 37.648 122.629 37.552C122.725 37.504 123.085 37.48 123.709 37.48C123.421 38.344 123.205 39.04 123.061 39.568C123.541 39.856 123.901 40.096 124.141 40.288C124.093 40.336 124.069 40.432 124.069 40.576C123.781 41.248 123.661 41.608 123.709 41.656C123.853 41.992 123.733 42.4 123.349 42.88L119.461 47.2C118.597 48.112 117.517 48.688 116.221 48.928C115.549 49.072 114.829 49.144 114.061 49.144C113.341 49.192 112.477 49.192 111.469 49.144C110.509 49.096 109.813 49.072 109.381 49.072C109.141 49.072 108.781 48.976 108.301 48.784C106.909 48.016 105.877 47.44 105.205 47.056C104.581 46.624 103.813 45.952 102.901 45.04C101.989 44.128 101.317 43.168 100.885 42.16C100.837 42.064 100.717 41.824 100.525 41.44C100.381 41.056 100.261 40.792 100.165 40.648C100.117 40.456 100.045 40.192 99.9492 39.856C99.8532 39.472 99.7812 39.184 99.7332 38.992C99.7332 38.752 99.7332 38.464 99.7332 38.128C99.7812 37.792 99.8532 37.48 99.9492 37.192C100.093 36.904 99.9972 36.52 99.6612 36.04C98.8932 35.224 98.4852 34.264 98.4372 33.16C98.3892 32.008 98.5092 30.952 98.7972 29.992C99.1332 28.744 99.3012 27.952 99.3012 27.616C99.3492 26.56 99.8052 25.168 100.669 23.44C100.765 23.248 100.981 23.056 101.317 22.864C101.461 22.816 101.677 22.744 101.965 22.648C102.253 22.552 102.469 22.456 102.613 22.36C102.997 20.68 103.213 19.72 103.261 19.48C103.549 18.664 104.029 18.232 104.701 18.184C105.085 18.04 105.541 17.8 106.069 17.464C106.597 17.944 107.005 18.184 107.293 18.184C107.629 18.184 108.037 17.968 108.517 17.536C109.909 16.192 111.613 15.376 113.629 15.088C115.117 14.8 116.605 15.136 118.093 16.096C120.685 17.824 122.413 19.528 123.277 21.208C123.325 21.256 123.517 21.52 123.853 22L124.069 22.288C124.213 22.48 124.309 22.624 124.357 22.72C124.405 22.912 124.501 23.512 124.645 24.52C124.789 25.528 124.957 26.296 125.149 26.824C125.149 26.872 125.101 27.064 125.005 27.4L123.781 28.984C123.541 28.984 122.965 29.008 122.053 29.056C121.189 29.104 120.493 29.104 119.965 29.056C118.573 29.008 116.605 28.888 114.061 28.696H113.413C113.029 28.744 112.837 28.744 112.837 28.696C112.645 28.696 112.381 28.672 112.045 28.624C111.757 28.528 111.565 28.48 111.469 28.48L111.613 27.616C111.661 27.232 111.613 26.968 111.469 26.824C111.325 26.68 111.061 26.56 110.677 26.464C110.533 26.416 110.365 26.416 110.173 26.464C110.029 26.464 109.861 26.44 109.669 26.392C109.525 26.344 109.405 26.224 109.309 26.032Z" fill="#FFC100" fill-opacity="0.85"/>
<path d="M80.9513 29.2L79.9433 28.264V26.032L80.4473 25.456C80.4473 25.408 80.4233 25.312 80.3753 25.168C80.3753 25.024 80.3513 24.928 80.3033 24.88L79.0793 23.656C78.7433 23.752 78.2873 23.944 77.7113 24.232C77.1833 24.52 76.7753 24.688 76.4873 24.736C76.0073 24.88 75.7673 25.12 75.7673 25.456C75.7193 25.792 75.3833 26.272 74.7593 26.896C74.7113 26.992 74.6153 27.208 74.4713 27.544C74.3753 27.88 74.2313 28.096 74.0393 28.192C74.1353 28.432 74.0393 28.72 73.7513 29.056C73.5113 29.344 73.4153 29.584 73.4633 29.776C73.4633 29.872 73.3193 30.016 73.0313 30.208V32.8C72.9833 32.896 72.8873 33.016 72.7433 33.16C72.5993 33.304 72.5033 33.424 72.4553 33.52V36.184C72.5513 36.28 72.6473 36.376 72.7433 36.472C72.8393 36.52 72.9113 36.568 72.9593 36.616V39.352C72.9113 39.4 72.8393 39.472 72.7433 39.568C72.6953 39.616 72.6233 39.688 72.5273 39.784C72.4793 39.832 72.4313 39.904 72.3833 40C72.3833 40.096 72.4073 40.216 72.4553 40.36C72.5033 40.456 72.5753 40.552 72.6713 40.648C72.8153 40.744 72.9113 40.84 72.9593 40.936V43.096C73.1993 43.288 73.5353 43.6 73.9673 44.032V47.272C73.8713 47.368 73.7513 47.512 73.6073 47.704C73.4633 47.896 73.3433 48.04 73.2473 48.136H72.6713L71.6633 49.144H70.5113L70.0793 48.712C69.9833 48.808 69.7913 48.952 69.5033 49.144H62.0153L61.2953 48.28V45.76C61.4873 45.376 61.9193 45.064 62.5913 44.824C63.3113 44.536 63.7673 44.296 63.9593 44.104C64.0073 43.912 63.9833 43.768 63.8873 43.672C63.8393 43.528 63.7433 43.408 63.5993 43.312C63.5033 43.216 63.4313 43.12 63.3833 43.024C63.2873 42.592 63.4313 42.112 63.8153 41.584C64.1993 41.008 64.4153 40.648 64.4633 40.504V33.448C64.5593 33.352 64.6553 33.28 64.7513 33.232C64.8473 33.136 64.9193 33.064 64.9673 33.016V30.28L64.4633 29.776V29.272C64.5113 29.176 64.5833 29.08 64.6793 28.984C64.8233 28.888 64.9193 28.792 64.9673 28.696V27.616C64.7273 27.376 64.5593 27.184 64.4633 27.04V26.032L63.6713 25.24H63.1673C62.5913 24.664 62.1353 24.232 61.7993 23.944L62.3753 23.368V22.36C62.4713 22.216 62.6393 22.024 62.8793 21.784C62.8793 21.736 62.8553 21.64 62.8073 21.496C62.8073 21.352 62.8073 21.232 62.8073 21.136C62.7113 21.088 62.5673 21.04 62.3753 20.992C62.1833 20.944 62.0393 20.896 61.9433 20.848C61.9913 20.752 62.0633 20.56 62.1593 20.272C62.3033 19.984 62.3753 19.792 62.3753 19.696C62.3753 19.6 62.3513 19.408 62.3033 19.12C62.4953 18.976 62.7113 18.856 62.9513 18.76C63.2393 18.664 63.4553 18.568 63.5993 18.472C63.9833 18.232 64.5593 17.992 65.3273 17.752C66.1433 17.464 66.6233 17.296 66.7673 17.248C67.0073 17.344 67.2713 17.296 67.5593 17.104C67.8953 16.864 68.1353 16.744 68.2793 16.744C68.3273 16.744 68.3753 16.768 68.4233 16.816C68.5193 16.864 68.5913 16.912 68.6393 16.96C68.6873 17.008 68.7593 17.08 68.8553 17.176C68.9513 17.224 69.0473 17.272 69.1433 17.32C69.1913 17.272 69.3113 17.2 69.5033 17.104C69.7433 16.96 69.9353 16.864 70.0793 16.816C70.1273 16.864 70.1993 16.936 70.2953 17.032C70.3913 17.08 70.4633 17.128 70.5113 17.176C70.6553 17.224 70.8473 17.272 71.0873 17.32C71.3753 17.32 71.5913 17.32 71.7353 17.32C72.0233 17.56 72.2873 18.016 72.5273 18.688C72.8153 19.312 73.0793 19.72 73.3193 19.912H73.7513C75.0953 18.472 76.1033 17.416 76.7753 16.744H78.5033C78.6473 16.648 78.8393 16.48 79.0793 16.24H80.1593L80.5193 15.808C80.7113 15.712 80.9993 15.688 81.3833 15.736C81.8153 15.736 82.1033 15.712 82.2473 15.664C82.3433 15.808 82.5113 16 82.7513 16.24C83.0393 16.432 83.2553 16.624 83.3993 16.816C83.5433 17.008 83.6393 17.248 83.6873 17.536C83.7353 17.92 84.2153 18.232 85.1273 18.472C85.1273 18.712 85.1993 19 85.3433 19.336L87.3593 21.352V22.648C87.5513 23.08 87.8873 23.728 88.3673 24.592V25.888C88.5113 26.08 88.6793 26.392 88.8713 26.824C89.1113 27.208 89.3033 27.52 89.4473 27.76V30.28C89.2553 30.424 89.0873 30.712 88.9433 31.144C88.7993 31.528 88.6313 31.792 88.4393 31.936V34.024C88.4873 34.12 88.6073 34.264 88.7993 34.456C89.0873 35.176 88.9673 35.728 88.4393 36.112V38.344C88.5353 38.44 88.7273 38.56 89.0153 38.704C89.3033 38.848 89.5193 38.968 89.6633 39.064L89.3753 39.352C89.4233 39.496 89.5193 39.688 89.6633 39.928C89.8073 40.168 89.9033 40.384 89.9513 40.576V42.52C90.1433 42.712 90.3113 42.856 90.4553 42.952C90.5513 43.192 90.5753 43.576 90.5273 44.104C90.4793 44.584 90.4793 44.944 90.5273 45.184L90.0233 45.688V47.56C89.9273 47.752 89.7833 48.04 89.5913 48.424C89.3993 48.76 89.2553 49.024 89.1593 49.216H87.5753L87.2153 49.576C87.1193 49.624 86.7113 49.648 85.9913 49.648C85.9433 49.6 85.8953 49.552 85.8473 49.504C85.7993 49.456 85.7513 49.408 85.7033 49.36C85.6553 49.312 85.6073 49.264 85.5593 49.216H81.5993C80.4473 48.064 79.5353 47.176 78.8633 46.552V44.968C79.0553 44.968 79.2953 44.968 79.5833 44.968C79.8713 44.92 80.0873 44.896 80.2313 44.896C80.3753 44.848 80.4233 44.656 80.3753 44.32C80.3753 43.936 80.3993 43.696 80.4473 43.6C80.6393 43.36 80.9753 43 81.4553 42.52V39.856L81.0233 39.424V36.616L81.4553 36.184V33.016C80.9753 32.152 80.6633 31.576 80.5193 31.288C80.7113 31.096 80.8553 30.928 80.9513 30.784V29.2Z" fill="#FFC100" fill-opacity="0.85"/>
<path d="M46.9983 10.552C46.1343 10.552 45.2223 10.168 44.2623 9.40001C43.3023 8.58401 42.7023 7.74401 42.4623 6.88001C41.9823 5.48801 41.9343 4.21601 42.3183 3.06401C42.6543 1.91201 43.3743 1.14401 44.4783 0.760012C46.3503 0.23201 47.8863 0.208011 49.0863 0.688013C50.3343 1.21601 51.2463 2.05601 51.8223 3.20801C52.3983 4.36001 52.4223 5.48801 51.8943 6.59201C51.7983 6.92801 51.7503 7.12001 51.7503 7.16801C51.9903 8.03201 51.5583 8.72801 50.4543 9.25601C50.2143 9.35201 49.8783 9.54401 49.4463 9.83201C49.0143 10.072 48.6063 10.264 48.2223 10.408C47.8383 10.552 47.4303 10.6 46.9983 10.552ZM51.8943 47.488C51.6063 48.352 51.4623 48.88 51.4623 49.072C51.4623 49.264 51.4143 49.408 51.3183 49.504C51.2703 49.648 51.1983 49.72 51.1023 49.72C51.0063 49.72 50.8863 49.72 50.7423 49.72C50.5983 49.768 50.4783 49.816 50.3823 49.864C49.9983 50.056 49.5663 50.176 49.0863 50.224C48.6063 50.32 48.1983 50.368 47.8623 50.368C47.5743 50.368 47.1183 50.32 46.4943 50.224C45.9183 50.128 45.5103 50.08 45.2703 50.08C45.0783 50.08 44.8863 50.008 44.6943 49.864C44.5503 49.768 44.3583 49.624 44.1183 49.432C43.8783 49.24 43.6623 49.096 43.4703 49L42.7503 49.36C42.4143 48.976 41.8383 48.28 41.0223 47.272C41.2143 46.696 41.3823 46.336 41.5263 46.192C41.7183 46.048 42.1743 45.808 42.8943 45.472C42.8943 44.656 42.9423 44.032 43.0383 43.6C43.1343 43.12 43.2543 42.424 43.3983 41.512C43.5903 40.6 43.7103 39.928 43.7583 39.496C43.7583 39.16 43.7103 38.92 43.6143 38.776C43.4223 38.248 43.1103 37.552 42.6783 36.688C42.8703 36.256 43.1823 35.536 43.6143 34.528C44.0463 33.472 44.3823 32.68 44.6223 32.152C44.7183 31.912 44.7183 31.672 44.6223 31.432C44.4303 31 44.3103 30.544 44.2623 30.064C44.2143 29.584 44.1903 29.056 44.1903 28.48C44.1903 27.856 44.1663 27.4 44.1183 27.112C44.0703 26.632 43.8543 26.008 43.4703 25.24C43.2303 24.52 42.7503 24.208 42.0303 24.304C41.8383 24.256 41.6943 24.256 41.5983 24.304C41.5023 24.352 41.3823 24.352 41.2383 24.304C41.1423 24.208 41.0463 24.16 40.9503 24.16C40.9023 24.16 40.8303 24.112 40.7343 24.016C40.6383 23.872 40.5663 23.8 40.5183 23.8C40.4703 23.752 40.3983 23.656 40.3023 23.512C40.2063 23.368 40.1343 23.272 40.0863 23.224C40.0863 23.176 40.0383 23.08 39.9423 22.936C39.8943 22.792 39.8463 22.696 39.7983 22.648C39.6063 22.36 39.6063 22.024 39.7983 21.64C40.8063 19.96 42.0783 19.096 43.6143 19.048C44.4303 19.048 44.9583 19.312 45.1983 19.84C45.1983 19.888 45.5583 20.032 46.2783 20.272C46.8543 19.312 47.3103 18.616 47.6463 18.184C48.1743 17.368 49.0143 17.176 50.1663 17.608C51.0783 17.944 51.4143 18.616 51.1743 19.624C51.0783 20.248 51.0783 21.136 51.1743 22.288C51.2223 22.912 51.2463 23.776 51.2463 24.88C51.2943 25.936 51.3183 26.632 51.3183 26.968C51.3183 27.832 51.4863 28.408 51.8223 28.696C52.0143 28.936 52.0623 29.368 51.9663 29.992C51.8223 30.76 51.6063 31.504 51.3183 32.224C50.7423 33.952 50.6943 35.872 51.1743 37.984C51.2703 38.272 51.2463 39.208 51.1023 40.792C51.1023 41.032 51.0303 41.392 50.8863 41.872C50.7423 42.352 50.6703 42.712 50.6703 42.952C50.5263 44.2 50.9343 45.208 51.8943 45.976L53.4063 47.488H51.8943Z" fill="#FFC100" fill-opacity="0.85"/>
<path d="M3.76 63.832C3.61601 63.64 3.30401 63.424 2.82401 63.184C2.34401 62.992 2.032 62.752 1.888 62.464V60.304C2.032 60.208 2.29601 59.968 2.68001 59.584C2.968 59.68 3.352 59.608 3.832 59.368C4.36 59.128 4.67201 59.008 4.768 59.008L5.34401 59.584C5.44 59.488 5.65601 59.248 5.99201 58.864C6.37601 58.528 6.64 58.216 6.78401 57.928C6.688 57.832 6.56801 57.688 6.42401 57.496C6.28001 57.352 6.18401 57.232 6.13601 57.136V54.472C6.23201 54.424 6.376 54.304 6.568 54.112C6.568 54.016 6.61601 53.872 6.71201 53.68V51.304C6.61601 51.256 6.496 51.16 6.35201 51.016C6.25601 50.92 6.208 50.848 6.208 50.8V47.128L5.63201 46.552V42.304L5.12801 41.8V39.064L5.63201 38.56V36.472C5.68001 36.424 5.75201 36.352 5.84801 36.256C5.99201 36.112 6.08801 35.992 6.13601 35.896V29.488C5.99201 29.344 5.82401 29.2 5.63201 29.056C5.63201 28.864 5.63201 28.648 5.63201 28.408C5.63201 28.168 5.63201 27.904 5.63201 27.616C5.63201 27.28 5.63201 27.016 5.63201 26.824C6.06401 26.392 6.23201 26.032 6.13601 25.744C5.80001 25.6 5.29601 25.36 4.62401 25.024H3.25601L2.82401 25.384C1.86401 25.096 1.216 24.688 0.880005 24.16V23.08L1.672 22.792C1.912 22.12 2.32001 21.544 2.89601 21.064C2.94401 21.016 3.18401 20.896 3.616 20.704C4.09601 20.464 4.40801 20.224 4.55201 19.984C4.64801 19.84 4.76801 19.696 4.912 19.552C5.104 19.408 5.272 19.312 5.41601 19.264C5.56001 19.168 5.72801 19.072 5.92001 18.976C6.16001 18.832 6.352 18.712 6.49601 18.616H8.51201C8.60801 18.424 8.87201 18.28 9.30401 18.184C9.73601 18.04 10 17.848 10.096 17.608H12.256C12.304 17.656 12.376 17.728 12.472 17.824C12.568 17.872 12.664 17.944 12.76 18.04H14.2C14.488 18.232 14.728 18.4 14.92 18.544H16.576L17.008 18.112H19.744L20.608 17.032H22.912C22.96 17.08 23.032 17.176 23.128 17.32C23.272 17.464 23.392 17.584 23.488 17.68C23.632 17.776 23.752 17.872 23.848 17.968C24.04 18.064 24.184 18.112 24.28 18.112H25.36C25.504 18.112 25.576 18.136 25.576 18.184C25.72 18.472 26.032 18.64 26.512 18.688C26.992 18.688 27.304 18.76 27.448 18.904C27.544 19 27.736 19.12 28.024 19.264C28.312 19.36 28.48 19.432 28.528 19.48C29.104 19.768 29.488 20.008 29.68 20.2C29.872 20.392 30.112 20.752 30.4 21.28H30.904C31.288 22.096 31.552 22.6 31.696 22.792V24.16C31.744 24.256 31.816 24.352 31.912 24.448C32.056 24.544 32.152 24.64 32.2 24.736C31.96 24.976 31.792 25.168 31.696 25.312V25.816C31.744 25.864 31.96 25.984 32.344 26.176C32.776 26.368 33.064 26.584 33.208 26.824V32.728L33.064 32.872C32.968 33.016 32.872 33.136 32.776 33.232C32.68 34.048 32.848 34.576 33.28 34.816V35.896C33.232 35.944 33.16 35.992 33.064 36.04C33.016 36.088 32.944 36.16 32.848 36.256C32.8 36.352 32.752 36.424 32.704 36.472V38.56C32.656 38.608 32.56 38.704 32.416 38.848C32.32 38.944 32.248 39.04 32.2 39.136V40.72L31.768 41.152V42.52C31.624 42.808 31.504 43 31.408 43.096C31.36 43.192 31.144 43.408 30.76 43.744C30.376 44.032 30.16 44.32 30.112 44.608C30.064 44.896 29.848 45.208 29.464 45.544C29.128 45.88 28.912 46.096 28.816 46.192C28.672 46.24 28.504 46.264 28.312 46.264C28.216 46.36 28.096 46.552 27.952 46.84C27.808 47.128 27.64 47.368 27.448 47.56C27.304 47.704 27.112 47.824 26.872 47.92L24.856 48.928H23.56C23.368 49.024 23.056 49.168 22.624 49.36C22.24 49.6 21.928 49.792 21.688 49.936H20.104C19.528 50.704 19.096 51.256 18.808 51.592H17.728C17.44 51.736 16.96 52.192 16.288 52.96C16.288 53.104 16.24 53.248 16.144 53.392C16.096 53.584 16.024 53.704 15.928 53.752C15.832 53.848 15.712 53.968 15.568 54.112C15.424 54.256 15.304 54.376 15.208 54.472V55.624C15.208 55.864 15.088 56.128 14.848 56.416C14.656 56.704 14.608 56.944 14.704 57.136C14.752 57.184 14.824 57.28 14.92 57.424C15.016 57.568 15.088 57.664 15.136 57.712V58.792C16 59.56 16.696 60.16 17.224 60.592H17.584C17.632 60.688 17.68 60.832 17.728 61.024C17.824 61.264 17.896 61.432 17.944 61.528C17.944 61.576 17.992 61.648 18.088 61.744C18.232 61.888 18.352 62.032 18.448 62.176C18.256 62.176 17.992 62.176 17.656 62.176C17.368 62.224 17.152 62.248 17.008 62.248L15.496 63.76H10.744L10.168 64.336H9.08801C8.84801 64.096 8.65601 63.928 8.51201 63.832H3.76ZM25.288 42.664V41.728L25.792 41.224C25.744 40.456 26.032 39.664 26.656 38.848C26.848 38.56 26.896 38.08 26.8 37.408L26.296 36.904V34.024L25.72 32.8L26.368 32.152C26.32 32.104 26.248 32.056 26.152 32.008C26.104 31.96 26.032 31.888 25.936 31.792C25.888 31.696 25.84 31.624 25.792 31.576V29.056C25.744 29.056 25.672 29.032 25.576 28.984C25.48 28.936 25.384 28.888 25.288 28.84C25.24 28.792 25.144 28.744 25 28.696C24.904 28.648 24.832 28.6 24.784 28.552C24.784 28.36 24.784 28.192 24.784 28.048C24.784 27.904 24.784 27.784 24.784 27.688L24.712 27.544L21.256 23.944H20.896L20.104 24.52H18.376L17.008 25.096C16.624 25.48 16.048 26.056 15.28 26.824C14.512 27.544 13.936 28.096 13.552 28.48V29.344L12.4 31.648C12.976 32.032 13.384 32.32 13.624 32.512V34.888L14.128 35.392V38.416C14.272 38.656 14.464 38.992 14.704 39.424C14.944 39.808 15.112 40.096 15.208 40.288V42.088C15.208 42.184 15.232 42.328 15.28 42.52C15.952 42.232 16.408 42.496 16.648 43.312C16.696 43.408 16.792 43.576 16.936 43.816C17.08 44.056 17.176 44.296 17.224 44.536C17.32 44.728 17.344 44.944 17.296 45.184C17.296 45.232 17.32 45.304 17.368 45.4L17.44 45.544C17.92 45.832 18.4 46.072 18.88 46.264H20.104C20.2 46.216 20.344 46.144 20.536 46.048C20.728 45.904 20.872 45.808 20.968 45.76L22.048 45.184H23.488L25.288 42.664Z" fill="#FFC100" fill-opacity="0.85"/>
</svg>
